<svg width="68" height="68" viewBox="0 0 68 68" fill="none" xmlns="http://www.w3.org/2000/svg"><g filter="url(#filter0_d_364_601)"><path d="M41.96 25.656l-9.718 9.718-6.202-6.203a1.172 1.172 0 00-1.658 1.658l7.031 7.03a1.17 1.17 0 001.658 0l10.547-10.546a1.172 1.172 0 00-1.657-1.657z" fill="#fff"/></g><g filter="url(#filter1_d_364_601)"><path d="M62.94 22.848l-3.56-.34a26.293 26.293 0 00-2.15-5.179l2.27-2.76a1.172 1.172 0 00-.077-1.573L50.98 4.555a1.172 1.172 0 00-1.574-.075l-2.76 2.277a26.24 26.24 0 00-5.18-2.146l-.346-3.553A1.172 1.172 0 0039.953 0H28.014a1.17 1.17 0 00-1.166 1.06l-.34 3.56a26.3 26.3 0 00-5.179 2.15L18.57 4.5a1.172 1.172 0 00-1.573.077L8.555 13.02a1.172 1.172 0 00-.075 1.574l2.277 2.76a26.24 26.24 0 00-2.146 5.18l-3.553.347c-.6.058-1.058.563-1.058 1.166v11.939a1.17 1.17 0 001.06 1.166l3.56.341a26.314 26.314 0 002.15 5.178l-2.27 2.76a1.172 1.172 0 00.077 1.573l8.443 8.441a1.17 1.17 0 001.574.075l2.76-2.277c1.648.9 3.384 1.619 5.18 2.146l.347 3.553c.058.6.563 1.058 1.166 1.058h11.94c.603 0 1.108-.46 1.166-1.06l.34-3.56a26.297 26.297 0 005.178-2.15l2.76 2.27c.466.382 1.147.35 1.573-.077l8.441-8.443a1.17 1.17 0 00.075-1.574l-2.277-2.76a26.272 26.272 0 002.146-5.18l3.553-.346A1.172 1.172 0 0064 35.953V24.014a1.17 1.17 0 00-1.06-1.166zM61.656 34.89l-3.295.321a1.17 1.17 0 00-1.02.872 23.93 23.93 0 01-2.526 6.094c-.249.424-.206.96.107 1.339l2.113 2.56-6.937 6.938-2.56-2.106a1.172 1.172 0 00-1.338-.105 23.956 23.956 0 01-6.093 2.53 1.172 1.172 0 00-.87 1.023l-.316 3.3h-9.81l-.322-3.295a1.172 1.172 0 00-.872-1.02 23.908 23.908 0 01-6.094-2.525 1.172 1.172 0 00-1.339.106l-2.56 2.113-6.938-6.937 2.106-2.56c.312-.38.354-.915.105-1.339a23.976 23.976 0 01-2.53-6.092 1.172 1.172 0 00-1.023-.87l-3.3-.316v-9.81l3.295-.322a1.17 1.17 0 001.02-.872 23.908 23.908 0 012.525-6.094 1.17 1.17 0 00-.106-1.339l-2.113-2.56 6.937-6.938 2.56 2.106c.38.312.915.354 1.338.105a23.957 23.957 0 016.093-2.53c.476-.125.824-.533.87-1.023l.316-3.3h9.81l.322 3.295c.048.49.396.897.872 1.02a23.904 23.904 0 016.093 2.525c.425.25.96.207 1.34-.106l2.56-2.113 6.938 6.937-2.106 2.56c-.312.38-.354.915-.105 1.338a23.956 23.956 0 012.53 6.093c.125.476.533.824 1.023.87l3.3.316v9.81z" fill="#fff"/></g><g filter="url(#filter2_d_364_601)"><path d="M46.89 44.063a1.172 1.172 0 100-2.344 1.172 1.172 0 000 2.343z" fill="#fff"/></g><g filter="url(#filter3_d_364_601)"><path d="M34 10.547c-10.726 0-19.453 8.727-19.453 19.453 0 10.726 8.727 19.453 19.453 19.453 3.228 0 6.427-.81 9.252-2.344a1.172 1.172 0 10-1.118-2.06A17.097 17.097 0 0134 47.11c-9.434 0-17.11-7.675-17.11-17.109 0-9.434 7.676-17.11 17.11-17.11S51.11 20.567 51.11 30c0 2.838-.713 5.65-2.06 8.134a1.172 1.172 0 002.06 1.118A19.452 19.452 0 0053.452 30c0-10.726-8.727-19.453-19.453-19.453z" fill="#fff"/></g><defs><filter id="filter0_d_364_601" x="20.039" y="25.313" width="27.922" height="20.891" filterUnits="userSpaceOnUse" color-interpolation-filters="sRGB"><feFlood flood-opacity="0" result="BackgroundImageFix"/><feColorMatrix in="SourceAlpha" values="0 0 0 0 0 0 0 0 0 0 0 0 0 0 0 0 0 0 127 0" result="hardAlpha"/><feOffset dy="4"/><feGaussianBlur stdDeviation="2"/><feComposite in2="hardAlpha" operator="out"/><feColorMatrix values="0 0 0 0 0 0 0 0 0 0 0 0 0 0 0 0 0 0 0.25 0"/><feBlend in2="BackgroundImageFix" result="effect1_dropShadow_364_601"/><feBlend in="SourceGraphic" in2="effect1_dropShadow_364_601" result="shape"/></filter><filter id="filter1_d_364_601" x="0" y="0" width="68" height="68" filterUnits="userSpaceOnUse" color-interpolation-filters="sRGB"><feFlood flood-opacity="0" result="BackgroundImageFix"/><feColorMatrix in="SourceAlpha" values="0 0 0 0 0 0 0 0 0 0 0 0 0 0 0 0 0 0 127 0" result="hardAlpha"/><feOffset dy="4"/><feGaussianBlur stdDeviation="2"/><feComposite in2="hardAlpha" operator="out"/><feColorMatrix values="0 0 0 0 0 0 0 0 0 0 0 0 0 0 0 0 0 0 0.25 0"/><feBlend in2="BackgroundImageFix" result="effect1_dropShadow_364_601"/><feBlend in="SourceGraphic" in2="effect1_dropShadow_364_601" result="shape"/></filter><filter id="filter2_d_364_601" x="41.719" y="41.719" width="10.344" height="10.344" filterUnits="userSpaceOnUse" color-interpolation-filters="sRGB"><feFlood flood-opacity="0" result="BackgroundImageFix"/><feColorMatrix in="SourceAlpha" values="0 0 0 0 0 0 0 0 0 0 0 0 0 0 0 0 0 0 127 0" result="hardAlpha"/><feOffset dy="4"/><feGaussianBlur stdDeviation="2"/><feComposite in2="hardAlpha" operator="out"/><feColorMatrix values="0 0 0 0 0 0 0 0 0 0 0 0 0 0 0 0 0 0 0.25 0"/><feBlend in2="BackgroundImageFix" result="effect1_dropShadow_364_601"/><feBlend in="SourceGraphic" in2="effect1_dropShadow_364_601" result="shape"/></filter><filter id="filter3_d_364_601" x="10.547" y="10.547" width="46.906" height="46.906" filterUnits="userSpaceOnUse" color-interpolation-filters="sRGB"><feFlood flood-opacity="0" result="BackgroundImageFix"/><feColorMatrix in="SourceAlpha" values="0 0 0 0 0 0 0 0 0 0 0 0 0 0 0 0 0 0 127 0" result="hardAlpha"/><feOffset dy="4"/><feGaussianBlur stdDeviation="2"/><feComposite in2="hardAlpha" operator="out"/><feColorMatrix values="0 0 0 0 0 0 0 0 0 0 0 0 0 0 0 0 0 0 0.25 0"/><feBlend in2="BackgroundImageFix" result="effect1_dropShadow_364_601"/><feBlend in="SourceGraphic" in2="effect1_dropShadow_364_601" result="shape"/></filter></defs></svg>