<svg width="16" height="23" viewBox="0 0 16 23" fill="none" xmlns="http://www.w3.org/2000/svg"><path d="M.733 12.944l.547-.228 6.733-2.832 7.28 3.06-2.733 5.46-6.684.912-5.03-5.244-.113-1.128z" fill="#133444"/><path d="M13.79 9.584A7.546 7.546 0 009.02 7.04l-.125-.012a7.129 7.129 0 00-1.752 0l-.124.012a7.594 7.594 0 00-4.77 2.544l-.298.48-.51.804-.372.588a.09.09 0 01-.025.048v.012l.807.468 5.156 2.952L8 15.5V8.456l-.993.432V7.832L8 7.4l.994.432 5.069 2.232-.274-.48z" fill="#C42370"/><path d="M15.516 14.696c-.013 2.316-1.094 4.5-2.944 5.964a7.62 7.62 0 01-2.373 1.272 7.103 7.103 0 01-2.186.336c-4.15 0-7.516-3.564-7.516-7.572 0-.588.075-1.176.224-1.752L8 17.108l7.279-4.164c.161.576.248 1.164.236 1.752z" fill="#1C4D6B"/><path d="M7.143 7.028l.87.372-.994.444v-.876l.124.06zM7.019 8.9l.994-.444v7.056l-.994-.576V8.9z" fill="#000"/><path d="M8.013 8.456v7.056l6.981-3.984-6.981-3.072z" fill="#1D4259"/><path d="M8.013.344v8.112l6.981 3.072L8.013.344z" fill="#4B6B9A"/><path d="M8.013 8.456V15.5l-.994-.564-5.975-3.408H1.03h.013a.09.09 0 01.025-.048l.87-1.404 5.067-2.22V8.9l1.007-.444z" fill="#343535"/><path d="M8.013 8.456v7.056l-.994-.576-5.975-3.408.012-.012L7.02 8.9l.994-.444z" fill="#3E5578"/><path d="M8.013.344v8.112l-6.97 3.072L8.014.344z" fill="#6DB2D8"/><path d="M5.193 21.692c.1.048.211.084.31.12-.099-.036-.198-.084-.31-.12zm.31.12c.1.036.212.084.323.108a2.11 2.11 0 01-.323-.108zm.609.192c.087.024.161.048.248.06a1.495 1.495 0 01-.248-.06z" fill="#335F8A"/><path d="M.732 12.944l7.28 4.164a8.05 8.05 0 01-.522 1.848c-.584 1.368-1.751 2.808-4.037 1.704C1.602 19.196.52 17.012.509 14.696c0-.588.074-1.176.223-1.752z" fill="#6DB2D8"/><path d="M12.572 20.66l-.025.012c-.037.024-.075.06-.112.084l-.012.012c-.037.036-.087.06-.124.096-.05.036-.088.072-.137.096-.05.024-.1.06-.137.096-.05.036-.087.048-.124.084l-.025.012a.447.447 0 00-.124.084s-.013 0-.013.012a.84.84 0 00-.136.084c-.05.024-.1.048-.15.084l-.148.072-.15.072-.148.072-.15.072c-.099.048-.21.084-.31.12a9.74 9.74 0 01-.323.108c-.037.012-.087.024-.124.036l-.15.048c-.086.024-.16.048-.248.06-.025.012-.062.012-.1.024l-.049.012-.136.024c-.05.012-.075.012-.125.024-.037.012-.074.012-.112.024a.455.455 0 00-.124.024c-.025 0-.037 0-.062.012l-.1.012h-.049c-.037 0-.074.012-.1.012-.037 0-.086.012-.124.012H7.478c-.037 0-.086-.012-.124-.012-.037 0-.074 0-.099-.012h-.05c-.025 0-.062-.012-.099-.012-.025 0-.037 0-.062-.012a.455.455 0 01-.124-.024c-.038 0-.075-.012-.112-.024a.455.455 0 01-.124-.024.46.46 0 00-.137-.024l-.05-.012c-.037 0-.074-.012-.1-.012a2.486 2.486 0 00-.248-.06L6 21.98a1.606 1.606 0 01-.124-.036c-.112-.036-.211-.072-.323-.108-.112-.036-.211-.084-.31-.12l-.15-.072-.149-.072-.149-.072-.149-.072c-.05-.024-.1-.048-.149-.084a.84.84 0 01-.136-.084l-.013-.012a.447.447 0 01-.124-.084l-.025-.012c-.037-.024-.087-.048-.124-.084-.037-.024-.1-.06-.137-.096-.05-.036-.1-.06-.136-.096l-.125-.096-.012-.012c-.037-.024-.075-.06-.112-.084l-.025-.012c2.274 1.092 3.454-.348 4.038-1.704a7.883 7.883 0 00.521-1.848c.1.636.274 1.248.522 1.848.51 1.344 1.69 2.784 3.963 1.692z" fill="#529BBA"/><path d="M9.677 22.076zm.522-.156c.111-.036.21-.072.323-.108-.1.048-.212.084-.323.108zm.323-.108c.1-.036.211-.084.31-.12-.099.036-.198.084-.31.12z" fill="#335F8A"/><path d="M15.516 14.696c-.013 2.316-1.093 4.5-2.944 5.964-2.274 1.092-3.454-.348-4.038-1.704a7.882 7.882 0 01-.521-1.848l7.28-4.164c.148.576.223 1.164.223 1.752z" fill="#4B6B9A"/></svg>