<svg width="24" height="20" viewBox="0 0 24 20" fill="none" xmlns="http://www.w3.org/2000/svg"><path d="M2.152 10.619h0l-.074-2.618c-.509.194-.808.44-.977.688-.17.247-.205.486-.2.655.004.169.053.406.236.643.184.237.496.467 1.015.632zM20.7.892L2.078 8.001l.122 2.528-.027.096h0s0 0 0 0l3.813 1.091 2.072 5.925.094-.033-.094.033c.296.846.967 1.387 1.763 1.387.498 0 .984-.21 1.403-.595h0l2.326-2.142 3.397 2.736.005.004.03.024h0l.002.001.004.004.005.004h0c.4.31.84.477 1.277.477h0c.861 0 1.533-.638 1.726-1.593l3.052-15.067c.126-.625.023-1.2-.31-1.607-.29-.354-.722-.546-1.211-.546a2.33 2.33 0 00-.827.164s0 0 0 0zm-6.72 13.833l-2.25-1.81 6.637-7.053a.745.745 0 00.053-.957h0a.745.745 0 00-.934-.216s0 0 0 0l-11.002 5.62-3.59-1.026 18.337-7h0a.848.848 0 01.296-.066.286.286 0 01.061.007c.005.01.015.036.02.082a.916.916 0 01-.02.28s0 0 0 0l-3.051 15.066a.961.961 0 01-.092.265c-.05.09-.108.135-.174.135-.087 0-.215-.05-.36-.162h-.002l-3.923-3.16-.007-.005zm7.605-12.508h0zM7.478 11.474l6.862-3.506-4.245 4.511s0 0 0 0a.743.743 0 00-.181.332s0 0 0 0L9.1 16.11l-1.622-4.635zm2.886 5.727l.715-2.899 1.298 1.045-2.013 1.854z" fill="#6D6F7F" stroke="#6D6F7F" stroke-width=".2"/></svg>