<svg width="24" height="24" viewBox="0 0 24 24" fill="none" xmlns="http://www.w3.org/2000/svg"><g clip-path="url(#clip0_303_2311)"><path d="M4.875 7.392c3.875-3.794 10.155-3.794 14.034 0l.466.456a.475.475 0 010 .687l-1.594 1.564a.251.251 0 01-.35 0l-.642-.627c-2.702-2.646-7.087-2.646-9.789 0l-.686.672a.251.251 0 01-.351 0L4.364 8.58a.475.475 0 010-.687l.511-.5zm17.332 3.228l1.418 1.388a.475.475 0 010 .687l-6.4 6.27a.502.502 0 01-.702 0l-4.546-4.45a.13.13 0 00-.175 0l-4.541 4.45a.502.502 0 01-.702 0L.154 12.7a.475.475 0 010-.687l1.418-1.388a.502.502 0 01.702 0l4.546 4.45a.13.13 0 00.175 0l4.541-4.45a.502.502 0 01.702 0l4.546 4.45a.13.13 0 00.175 0l4.546-4.45a.498.498 0 01.702-.005z" fill="#3A99FB"/></g><defs><clipPath id="clip0_303_2311"><path fill="#fff" d="M0 0h24v24H0z"/></clipPath></defs></svg>