<svg width="24" height="24" viewBox="0 0 24 24" fill="none" xmlns="http://www.w3.org/2000/svg"><path d="M12 24c6.627 0 12-5.373 12-12S18.627 0 12 0 0 5.373 0 12s5.373 12 12 12z" fill="#000"/><path d="M6.505 16.505l5.217 3.282h.631l5.133-3.282-.8-.63-4.67 2.987-4.838-2.987-.673.63zm2.524-7.614l2.946-4.46 3.029 4.502.715-.632-3.366-5.048s-.294-.379-.757 0l-3.45 5.175.883.463z" fill="#fff" fill-opacity=".703"/><path d="M12.059 17.894c.168-.59.378-1.136.547-1.725.758-2.356 1.514-4.755 2.272-7.11.042-.127.084-.295.126-.42.084-.254.21-.38.463-.38a.458.458 0 01.462.379c.21.841.38 1.725.59 2.566.378 1.6.715 3.24 1.093 4.838.084.38-.042.632-.336.716-.295.084-.505-.126-.59-.505a208.81 208.81 0 01-1.22-5.47c0-.083-.041-.125-.083-.252a2.773 2.773 0 01-.127.337c-.799 2.44-1.556 4.88-2.356 7.32-.126.463-.295.884-.42 1.347-.085.294-.253.42-.505.42-.253 0-.421-.126-.505-.42-.926-2.903-1.852-5.806-2.735-8.71-.042-.083-.042-.125-.084-.294-.075.38-.16.76-.252 1.136-.338 1.515-.674 3.071-1.01 4.586-.085.42-.42.631-.758.42-.21-.126-.252-.336-.21-.588.463-2.104.967-4.208 1.43-6.311.084-.338.169-.674.21-1.01.085-.336.253-.505.506-.505.252 0 .42.169.504.505a786.02 786.02 0 012.862 9.13h.126z" fill="#fff"/></svg>