<svg width="484" height="453" viewBox="0 0 484 453" fill="none" xmlns="http://www.w3.org/2000/svg"><g filter="url(#filter0_dd)"><path fill-rule="evenodd" clip-rule="evenodd" d="M54.194 27a4.487 4.487 0 00-4.487 4.487v364.656a4.486 4.486 0 004.487 4.486h398.103a4.487 4.487 0 000-8.973H58.681V31.486A4.487 4.487 0 0054.194 27z" fill="#BBBDBF"/></g><g filter="url(#filter1_dddd)"><path fill-rule="evenodd" clip-rule="evenodd" d="M54.194 30.068c-.676 0-1.224.548-1.224 1.224v364.656c0 .178.038.348.107.501.136.527.615.917 1.185.917h398.103a1.224 1.224 0 100-2.447H55.418V31.292c0-.676-.548-1.224-1.224-1.224z" fill="#fff"/></g><g filter="url(#filter2_dd)"><path fill-rule="evenodd" clip-rule="evenodd" d="M276.903 45.763h-38.342c-.619 0-1.209.126-1.746.353a4.5 4.5 0 00-2.585 2.96 4.501 4.501 0 00-.155 1.174v209.657a4.486 4.486 0 004.486 4.487l.055-.001h38.248a4.49 4.49 0 004.526-4.486V50.25a4.487 4.487 0 00-4.487-4.487zm-4.486 209.657V54.737h-29.369V255.42h29.369z" fill="#059FDA"/></g><g filter="url(#filter3_dddd)"><path fill-rule="evenodd" clip-rule="evenodd" d="M275.68 51.473h-35.895v207.209h35.895V51.473zm-38.342-1.223a1.224 1.224 0 011.224-1.224h38.341a1.224 1.224 0 011.224 1.224v209.656a1.225 1.225 0 01-1.224 1.224h-38.341a1.223 1.223 0 01-1.223-1.177l-.001-.047V50.249z" fill="#44D3F2"/></g><g filter="url(#filter4_dd)"><path fill-rule="evenodd" clip-rule="evenodd" d="M276.903 267.656l-.02.001h-38.322c-.619 0-1.209.125-1.746.352a4.499 4.499 0 00-2.491 2.656c-.162.463-.249.96-.249 1.478v90.552a4.479 4.479 0 004.486 4.487h38.342a4.488 4.488 0 004.487-4.486v-90.553a4.487 4.487 0 00-4.487-4.487zm-4.486 90.553V276.63h-29.369v81.579h29.369z" fill="#B92146"/></g><g filter="url(#filter5_ddddd)"><path fill-rule="evenodd" clip-rule="evenodd" d="M276.903 270.919h-38.341a1.22 1.22 0 00-1.223 1.161l-.001.063v90.552c0 .676.548 1.224 1.224 1.224h38.341c.676 0 1.224-.548 1.224-1.224v-90.552a1.213 1.213 0 00-.096-.476 1.224 1.224 0 00-1.128-.748zm-1.223 90.553v-88.105h-35.895v88.105h35.895z" fill="#F858A5"/></g><g filter="url(#filter6_dd)"><path fill-rule="evenodd" clip-rule="evenodd" d="M365.824 215.841a4.486 4.486 0 00-4.487 4.486v142.367a4.488 4.488 0 004.487 4.488h37.157a4.487 4.487 0 005.672-4.329V220.487a4.487 4.487 0 00-4.487-4.487h-37.153a4.489 4.489 0 00-1.189-.159zm33.855 142.367V224.974h-29.368v133.234h29.368z" fill="#B92146"/></g><g filter="url(#filter7_ddddd)"><path fill-rule="evenodd" clip-rule="evenodd" d="M405.39 220.224l-.001.031v142.386l.001.054c0 .676-.548 1.223-1.224 1.223h-38.225a1.224 1.224 0 01-1.341-1.218V220.328l.002-.053-.001-.051c0-.676.547-1.224 1.223-1.224h38.342c.676 0 1.224.548 1.224 1.224zm-38.342 141.247h35.894V221.447h-35.894v140.024z" fill="#F858A5"/></g><g filter="url(#filter8_dd)"><path fill-rule="evenodd" clip-rule="evenodd" d="M149.641 235.84h-38.342a4.47 4.47 0 00-1.746.353 4.497 4.497 0 00-2.424 2.476 4.46 4.46 0 00-.317 1.658v122.368a4.487 4.487 0 004.487 4.487h38.342a4.493 4.493 0 004.487-4.487V240.327a4.487 4.487 0 00-4.487-4.487zm-4.487 122.368V244.814h-29.368v113.394h29.368z" fill="#B92146"/></g><g filter="url(#filter9_ddddd)"><path fill-rule="evenodd" clip-rule="evenodd" d="M111.299 239.104a1.224 1.224 0 00-1.224 1.224v122.367c0 .676.548 1.224 1.224 1.224l.039-.001h38.264l.039.001c.676 0 1.224-.548 1.224-1.224V240.328c0-.67-.538-1.214-1.206-1.224h-38.36zm37.119 122.367v-119.92h-35.895v119.92h35.895z" fill="#F858A5"/></g><g filter="url(#filter10_dd)"><path fill-rule="evenodd" clip-rule="evenodd" d="M302.193 125a4.487 4.487 0 00-4.487 4.487v232.916l.002.149-.002.143a4.487 4.487 0 004.487 4.487h38.342a4.487 4.487 0 004.484-4.635l.003-.144V129.487a4.478 4.478 0 00-1.633-3.462 4.47 4.47 0 00-2.854-1.025h-38.342zm33.855 233.209V133.974H306.68v224.235h29.368z" fill="#B92146"/></g><g filter="url(#filter11_ddddd)"><path fill-rule="evenodd" clip-rule="evenodd" d="M341.549 128.54a1.221 1.221 0 00-1.014-.54h-38.342a1.224 1.224 0 00-1.193 1.5c-.02.088-.031.181-.031.275v232.923a1.224 1.224 0 001.317 1.22h37.299a1.224 1.224 0 002.173-.772V129.224c0-.254-.077-.489-.209-.684zm-2.238 232.931V130.447h-35.895v231.024h35.895z" fill="#F858A5"/></g><g filter="url(#filter12_dd)"><path fill-rule="evenodd" clip-rule="evenodd" d="M174.5 161a4.5 4.5 0 00-4.5 4.5v197a4.502 4.502 0 002.976 4.235 4.46 4.46 0 001.954.447h38.342a4.475 4.475 0 002.882-1.047A4.495 4.495 0 00218 362.5v-197a4.5 4.5 0 00-4.5-4.5l-.114.001-.114-.001H174.93c-.072 0-.144.002-.215.005a5.101 5.101 0 00-.215-.005zM209 358.209V169.974h-30v188.235h30z" fill="#B92146"/></g><g filter="url(#filter13_ddddd)"><path fill-rule="evenodd" clip-rule="evenodd" d="M174.93 164a1.225 1.225 0 00-1.223 1.224v198c0 .675.547 1.223 1.223 1.223h38.342c.676 0 1.224-.548 1.224-1.223l-.001-.038.001-.04V165.224c0-.676-.548-1.224-1.224-1.224H174.93zm37.119 198V166.447h-35.895V362h35.895z" fill="#F858A5"/></g><g filter="url(#filter14_dddd)" fill="#fff"><path d="M205.922 446.258c.697 0 1.293-.247 1.787-.741s.741-1.09.741-1.787v-8.552l5.131-.038c2.547 0 4.6-.786 6.158-2.357 1.457-1.571 2.179-3.471 2.167-5.701a8.312 8.312 0 00-1.027-4.181.18.18 0 00-.038-.057l-.133-.172a7.747 7.747 0 00-1.539-1.786c-1.216-1.267-2.876-1.882-4.979-1.844a11.056 11.056 0 00-.609-.019.444.444 0 00-.133.019h-1.976l-3.535-.019h-2.034c-.697 0-1.292.248-1.786.742a2.435 2.435 0 00-.742 1.786c0 .697.254 1.305.761 1.825.507.506 1.102.76 1.786.76l2.338-.019h5.321c.837 0 1.54.291 2.11.874.583.57.874 1.28.874 2.129 0 .038.007.076.019.114-.063.823-.38 1.507-.95 2.052-.558.532-1.235.799-2.034.799h-5.321l-2.338-.019c-.697 0-1.317.278-1.862.836-.456.507-.685 1.083-.685 1.729v11.099c0 .697.248 1.293.742 1.787a2.434 2.434 0 001.786.741zm.019-15.28l2.338.019h.741c.773 0 1.635.006 2.585.019h1.995c1.077 0 1.983-.368 2.718-1.103.748-.747 1.14-1.678 1.178-2.793a.537.537 0 00-.019-.133c-.05-1.09-.449-1.996-1.197-2.718-.735-.722-1.634-1.083-2.699-1.083h-5.321l-2.338.038c-.443 0-.83-.165-1.159-.495a1.639 1.639 0 01-.475-1.178c0-.443.158-.823.475-1.14a1.555 1.555 0 011.14-.475l2.034.019 3.554.019h.057a.85.85 0 01.171-.019h2.452c1.127.012 2.014.158 2.66.437a5.045 5.045 0 011.73 1.197 6.039 6.039 0 011.368 1.578.233.233 0 00.038.057l.133.152a7.204 7.204 0 01.874 3.687v.038c.026 1.976-.608 3.655-1.9 5.036-1.343 1.381-3.18 2.072-5.512 2.072l-5.587.038a.509.509 0 00-.323.152.379.379 0 00-.133.304v9.027c0 .444-.159.824-.475 1.141a1.527 1.527 0 01-1.122.456c-.443 0-.823-.152-1.14-.456a1.555 1.555 0 01-.475-1.141v-11.099c0-.405.145-.773.437-1.102h.019c.342-.367.735-.551 1.178-.551zm22.369 15.261c.697 0 1.293-.247 1.787-.741s.741-1.09.741-1.787v-8.571l5.132-.019c2.546 0 4.599-.786 6.157-2.357 1.457-1.571 2.18-3.471 2.167-5.701a8.258 8.258 0 00-1.026-4.181l-.038-.077-.133-.152a7.751 7.751 0 00-1.54-1.786c-1.216-1.267-2.876-1.882-4.979-1.844a11.02 11.02 0 00-.608-.019.44.44 0 00-.133.019l-1.73-.019c-.076 0-.158.007-.247.019l-3.535-.019h-2.034c-.696 0-1.292.248-1.786.742a2.434 2.434 0 00-.741 1.786c0 .697.253 1.305.76 1.825.507.506 1.102.76 1.786.76l2.338-.019h5.322c.836 0 1.539.291 2.109.874.583.57.874 1.28.874 2.129 0 .038.007.076.019.114-.063.823-.38 1.507-.95 2.052-.557.532-1.235.799-2.033.799h-5.322l-2.338-.038c-.696 0-1.317.285-1.862.855-.456.507-.684 1.083-.684 1.729v11.099c0 .697.247 1.293.741 1.787s1.09.741 1.786.741zm.019-15.28l2.338.019h5.322c1.077 0 1.983-.368 2.717-1.103.748-.734 1.141-1.659 1.179-2.774a.44.44 0 00-.019-.133c-.051-1.103-.45-2.009-1.198-2.718-.734-.722-1.634-1.083-2.698-1.083h-5.322l-2.338.019c-.443 0-.829-.165-1.159-.495a1.615 1.615 0 01-.475-1.159c0-.443.158-.823.475-1.14a1.555 1.555 0 011.14-.475h2.034l3.554.038h.057a.85.85 0 01.171-.019h1.863a.378.378 0 00.114-.019c.152 0 .304.006.456.019h.019c1.127.012 2.014.158 2.661.437a5.182 5.182 0 011.71 1.159c0 .013.006.025.019.038a6.039 6.039 0 011.368 1.578.266.266 0 00.038.057l.133.152a7.204 7.204 0 01.875 3.687v.019c.025 1.976-.608 3.661-1.901 5.055-1.343 1.381-3.18 2.072-5.511 2.072l-5.588.038a.438.438 0 00-.323.133.437.437 0 00-.133.323v9.027c0 .444-.158.824-.475 1.141a1.525 1.525 0 01-1.122.456c-.443 0-.823-.152-1.14-.456a1.555 1.555 0 01-.475-1.141v-11.099c0-.418.146-.785.437-1.102h.019c.342-.368.735-.551 1.178-.551zm13.418 15.204c.672 0 1.267-.247 1.787-.741.494-.558.741-1.159.741-1.806 0-.646-.247-1.248-.741-1.805l-3.459-3.459c-.52-.494-1.122-.741-1.806-.741-.671 0-1.267.247-1.786.741-.494.545-.741 1.147-.741 1.805 0 .647.247 1.242.741 1.787l3.459 3.478c.519.494 1.121.741 1.805.741zm-3.478-7.64c.431 0 .817.158 1.16.475l3.459 3.478a1.6 1.6 0 01.475 1.14c0 .431-.159.811-.475 1.141-.33.316-.71.475-1.141.475-.431 0-.817-.159-1.159-.475l-3.459-3.459a1.598 1.598 0 01-.475-1.141c0-.43.158-.817.475-1.159a1.594 1.594 0 011.14-.475zm12.411 7.697c.697 0 1.292-.247 1.786-.741s.741-1.09.741-1.787v-22.388c0-.697-.247-1.292-.741-1.786a2.43 2.43 0 00-1.786-.742c-.697 0-1.293.247-1.787.742a2.434 2.434 0 00-.741 1.786v22.388c0 .697.247 1.293.741 1.787s1.09.741 1.787.741zm0-26.512c.443 0 .817.158 1.121.475.317.304.475.678.475 1.121v22.388c0 .444-.158.824-.475 1.141a1.524 1.524 0 01-1.121.456 1.59 1.59 0 01-1.141-.456 1.559 1.559 0 01-.475-1.141v-22.388c0-.443.159-.817.475-1.121a1.555 1.555 0 011.141-.475zm19.974 26.512c2.914 0 5.594-.868 8.04-2.604a3.83 3.83 0 00.361-.285h.019c.545-.545.817-1.172.817-1.881 0-.697-.253-1.293-.76-1.787a2.404 2.404 0 00-1.787-.76 2.52 2.52 0 00-1.558.532c-1.546 1.153-3.256 1.73-5.132 1.73-1.571 0-3.009-.387-4.314-1.16a8.847 8.847 0 01-3.098-3.098c-.773-1.305-1.159-2.743-1.159-4.314 0-1.571.386-3.003 1.159-4.295a8.802 8.802 0 013.098-3.117c1.305-.773 2.743-1.159 4.314-1.159 1.838 0 3.529.551 5.075 1.653.481.393 1.02.589 1.615.589.697 0 1.293-.247 1.787-.741.507-.494.76-1.089.76-1.786 0-.862-.38-1.571-1.14-2.129-2.458-1.774-5.157-2.661-8.097-2.661-2.508 0-4.795.615-6.861 1.844a13.988 13.988 0 00-4.941 4.941c-1.229 2.066-1.843 4.353-1.843 6.861 0 2.509.614 4.796 1.843 6.861a13.99 13.99 0 004.941 4.942c2.066 1.216 4.353 1.824 6.861 1.824zm0-26.341c2.75 0 5.271.83 7.564 2.489h.019c.482.368.723.824.723 1.369 0 .443-.159.823-.475 1.14a1.555 1.555 0 01-1.141.475c-.38 0-.728-.126-1.045-.38 0-.013-.006-.019-.019-.019-1.711-1.229-3.586-1.843-5.626-1.843-1.748 0-3.338.424-4.77 1.273a9.723 9.723 0 00-3.44 3.44c-.849 1.432-1.273 3.022-1.273 4.77 0 1.736.424 3.326 1.273 4.771a9.946 9.946 0 003.44 3.44c1.432.848 3.022 1.273 4.77 1.273 2.078 0 3.979-.634 5.702-1.901.304-.228.633-.342.988-.342.444 0 .824.159 1.141.475.316.317.475.697.475 1.141 0 .456-.171.855-.513 1.197a1.177 1.177 0 01-.248.19c-.012 0-.025.006-.038.019-2.28 1.635-4.783 2.452-7.507 2.452-2.331 0-4.46-.57-6.385-1.711a13.213 13.213 0 01-4.619-4.618c-1.14-1.926-1.71-4.054-1.71-6.386 0-2.344.57-4.472 1.71-6.386a13.061 13.061 0 014.619-4.599c1.925-1.153 4.054-1.729 6.385-1.729zm29.231 4.162c.696 0 1.286-.241 1.767-.722.494-.494.741-1.09.741-1.787 0-.684-.247-1.273-.741-1.767a2.374 2.374 0 00-1.767-.742h-13.684c-.684 0-1.274.248-1.768.742a2.412 2.412 0 00-.741 1.767c0 .697.247 1.293.741 1.787a2.448 2.448 0 001.768.722h13.684zm-13.684-4.086h13.684c.443 0 .817.158 1.121.475.317.304.475.671.475 1.102 0 .444-.158.824-.475 1.14a1.521 1.521 0 01-1.121.457h-13.684c-.431 0-.805-.152-1.122-.457a1.586 1.586 0 01-.456-1.14 1.5 1.5 0 01.456-1.102 1.534 1.534 0 011.122-.475zm13.684 26.265c.696 0 1.286-.241 1.767-.722.494-.494.741-1.09.741-1.787 0-.697-.247-1.286-.741-1.767a2.373 2.373 0 00-1.767-.741h-11.1v-6.139h2.357c.697 0 1.292-.247 1.787-.741.506-.494.76-1.09.76-1.787 0-.709-.254-1.311-.76-1.805a2.438 2.438 0 00-1.787-.741h-4.903a2.5 2.5 0 00-1.806.741 2.457 2.457 0 00-.741 1.805v11.175c0 .697.247 1.293.741 1.787a2.448 2.448 0 001.768.722h13.684zm-13.646-15.318h4.903c.444 0 .824.158 1.14.475.317.317.476.703.476 1.159 0 .444-.159.824-.476 1.141a1.555 1.555 0 01-1.14.475h-2.813a.44.44 0 00-.323.133.44.44 0 00-.133.323v7.051c0 .126.045.234.133.323a.44.44 0 00.323.133h11.556c.443 0 .817.158 1.121.475.317.317.475.691.475 1.121 0 .444-.158.824-.475 1.141a1.524 1.524 0 01-1.121.456h-13.684c-.431 0-.799-.152-1.103-.456a1.618 1.618 0 01-.475-1.141v-11.175c0-.456.159-.842.475-1.159a1.555 1.555 0 011.141-.475z"/></g><g filter="url(#filter15_dddd)" fill="#fff"><path d="M32.05 280.782c0-.654-.231-1.213-.695-1.677a2.266 2.266 0 00-1.66-.696c-.654 0-1.214.232-1.678.696a2.285 2.285 0 00-.696 1.677v10.441H8.671c-.654 0-1.213.232-1.677.696a2.286 2.286 0 00-.696 1.677c0 .655.232 1.214.696 1.678a2.287 2.287 0 001.677.696h21.024c.642 0 1.196-.232 1.66-.696a2.265 2.265 0 00.696-1.66v-12.832zm-2.355 14.331H8.671c-.416 0-.773-.148-1.07-.446a1.46 1.46 0 01-.447-1.071c0-.416.15-.767.447-1.053a1.462 1.462 0 011.07-.446H27.75a.472.472 0 00.32-.125.412.412 0 00.126-.303v-10.887c0-.416.149-.767.446-1.053a1.404 1.404 0 011.053-.446c.404 0 .756.149 1.053.446.297.286.446.637.446 1.053v12.832c0 .405-.143.756-.428 1.053a1.558 1.558 0 01-1.071.446zm2.32-22.647c0-.655-.232-1.214-.696-1.678a2.286 2.286 0 00-1.678-.696H8.618c-.655 0-1.214.232-1.678.696a2.286 2.286 0 00-.696 1.678c0 .654.232 1.213.696 1.677a2.287 2.287 0 001.678.696H29.64c.655 0 1.214-.232 1.678-.696a2.285 2.285 0 00.696-1.677zm-24.896 0a1.4 1.4 0 01.446-1.053 1.401 1.401 0 011.053-.447H29.64c.417 0 .774.149 1.071.447.286.285.429.636.429 1.053 0 .416-.143.773-.429 1.07a1.459 1.459 0 01-1.07.447H8.617a1.4 1.4 0 01-1.053-.447 1.459 1.459 0 01-.446-1.07zm24.95-29.251c0-.607-.226-1.143-.679-1.607-.511-.464-1.07-.696-1.677-.696s-1.166.232-1.678.696l-1.552 1.553c-2.225-1.499-4.647-2.249-7.264-2.249-2.356 0-4.504.577-6.443 1.731a13.138 13.138 0 00-4.64 4.641c-1.154 1.927-1.731 4.069-1.731 6.424 0 2.356.577 4.504 1.73 6.443a13.127 13.127 0 004.641 4.64c1.94 1.155 4.087 1.732 6.443 1.732s4.503-.577 6.443-1.732a13.128 13.128 0 004.64-4.64c1.142-1.939 1.713-4.087 1.713-6.443a.518.518 0 00-.018-.124 2.291 2.291 0 00-.732-1.589 2.28 2.28 0 00-1.624-.642c-.63 0-1.171.22-1.624.66a2.307 2.307 0 00-.731 1.606.298.298 0 00-.018.089c0 1.488-.363 2.844-1.089 4.07a8.313 8.313 0 01-2.909 2.909c-1.225.725-2.576 1.088-4.051 1.088-1.487 0-2.838-.363-4.051-1.088a8.314 8.314 0 01-2.91-2.909c-.725-1.226-1.088-2.582-1.088-4.07 0-1.475.363-2.819 1.088-4.033a8.267 8.267 0 012.91-2.927c1.213-.726 2.564-1.088 4.05-1.088 1.429 0 2.75.339 3.963 1.017 1.201.678 2.177 1.63 2.927 2.855a.438.438 0 00.321.214.288.288 0 00.143 0 1.18 1.18 0 00.16-.071c.06-.048.15-.125.268-.232l.464-.464c.19-.202.44-.458.75-.767.32-.345.612-.649.874-.911.262-.273.423-.44.482-.499v-.018l1.624-1.624c.583-.607.875-1.255.875-1.945zm-5.515 5.425c-1.785-2.487-4.23-3.772-7.335-3.855-1.642 0-3.135.405-4.48 1.214a9.126 9.126 0 00-3.23 3.23c-.81 1.344-1.214 2.838-1.214 4.479 0 1.642.405 3.142 1.214 4.498a9.134 9.134 0 003.23 3.23c1.345.797 2.838 1.196 4.48 1.196 1.63 0 3.117-.399 4.462-1.196a9.126 9.126 0 003.212-3.177c.797-1.332 1.214-2.819 1.25-4.461v-.09c0-.404.148-.755.445-1.052a1.401 1.401 0 011.053-.447c.417 0 .774.149 1.071.447.286.297.429.648.429 1.052 0 .036.006.072.017.108-.047 2.213-.6 4.205-1.66 5.978a12.308 12.308 0 01-4.3 4.266c-1.809 1.059-3.802 1.588-5.98 1.588-2.2 0-4.2-.535-5.996-1.606a12.121 12.121 0 01-4.319-4.319c-1.082-1.809-1.624-3.813-1.624-6.015 0-2.189.542-4.188 1.624-5.996a12.113 12.113 0 014.32-4.319c1.796-1.083 3.795-1.624 5.996-1.624 2.558 0 4.908.767 7.05 2.302a.358.358 0 00.285.089.432.432 0 00.268-.125l1.82-1.82c.333-.297.696-.446 1.089-.446.38 0 .731.149 1.053.446.285.286.428.619.428 1 0 .464-.208.91-.625 1.338l-1.624 1.624-.018.018-1.32 1.392c-.44.44-.797.791-1.071 1.053zm5.479-26.521c0-.654-.232-1.213-.696-1.677a2.286 2.286 0 00-1.678-.696H8.636c-.655 0-1.214.232-1.678.696a2.286 2.286 0 00-.696 1.677c0 .655.232 1.214.696 1.678a2.287 2.287 0 001.678.696h18.65v1c0 .654.232 1.213.696 1.677a2.286 2.286 0 001.677.696c.655 0 1.214-.232 1.678-.696a2.286 2.286 0 00.696-1.677v-3.374zm-3.89 3.374v-1.446a.412.412 0 00-.126-.303.41.41 0 00-.303-.125H8.636a1.43 1.43 0 01-1.053-.429 1.46 1.46 0 01-.447-1.071c0-.416.15-.773.447-1.07a1.401 1.401 0 011.053-.447h21.023c.417 0 .774.149 1.071.447.286.297.428.654.428 1.07v3.374c0 .416-.142.773-.428 1.07a1.49 1.49 0 01-1.07.429 1.49 1.49 0 01-1.072-.429 1.458 1.458 0 01-.446-1.07zm3.89 6.085c0-.654-.232-1.213-.696-1.677a2.286 2.286 0 00-1.678-.696c-.654 0-1.213.232-1.677.696a2.286 2.286 0 00-.696 1.677v1H8.636c-.655 0-1.214.232-1.678.696a2.286 2.286 0 00-.696 1.677c0 .655.232 1.214.696 1.678a2.287 2.287 0 001.678.696h21.023c.655 0 1.214-.232 1.678-.696a2.286 2.286 0 00.696-1.678v-3.373zm-24.897 3.373c0-.416.15-.767.447-1.053a1.404 1.404 0 011.053-.446h19.078a.41.41 0 00.303-.125.434.434 0 00.125-.321v-1.428c0-.416.149-.773.447-1.07a1.459 1.459 0 011.07-.447c.417 0 .774.149 1.071.447.286.297.428.654.428 1.07v3.373c0 .417-.142.774-.428 1.071a1.458 1.458 0 01-1.07.446H8.635a1.4 1.4 0 01-1.053-.446 1.46 1.46 0 01-.447-1.071zm24.879-21.166c0-.654-.232-1.214-.696-1.678a2.286 2.286 0 00-1.678-.696H8.618c-.655 0-1.214.232-1.678.696a2.288 2.288 0 00-.696 1.678c0 .654.232 1.214.696 1.678a2.287 2.287 0 001.678.696H29.64c.655 0 1.214-.232 1.678-.696a2.288 2.288 0 00.696-1.678zm-24.896 0c0-.416.148-.767.446-1.053a1.404 1.404 0 011.053-.446H29.64c.417 0 .774.149 1.071.446.286.286.429.637.429 1.053 0 .416-.143.773-.429 1.071a1.462 1.462 0 01-1.07.446H8.617c-.417 0-.768-.149-1.053-.446a1.462 1.462 0 01-.446-1.071zm24.914-14.242c0-.202-.006-.404-.018-.607v-.178c0-.155-.012-.309-.036-.464-.357-3.236-1.73-5.967-4.122-8.192-2.546-2.237-5.426-3.355-8.638-3.355-2.344 0-4.486.577-6.425 1.731a13.135 13.135 0 00-4.64 4.64c-1.154 1.94-1.731 4.081-1.731 6.425v3.73c-.012 1.13-.018 1.755-.018 1.874 0 .036.006.065.018.089v.232c0 .655.232 1.214.696 1.678a2.228 2.228 0 001.66.696c.654 0 1.213-.232 1.677-.696a2.317 2.317 0 00.678-1.678v-5.925c0-1.475.369-2.82 1.107-4.033a8.069 8.069 0 012.927-2.909c1.213-.726 2.564-1.089 4.05-1.089 1.488 0 2.838.363 4.052 1.089a8.112 8.112 0 012.91 2.909c.725 1.213 1.088 2.558 1.088 4.033 0 .488.006 1.053.018 1.696v1.856h-8.103c-.654 0-1.213.232-1.677.696a2.286 2.286 0 00-.697 1.677c0 .655.232 1.214.697 1.678a2.287 2.287 0 001.677.696H29.66c.655 0 1.214-.232 1.678-.696a2.317 2.317 0 00.678-1.678v-.339c0-.202.006-.862.018-1.981v-3.605zm-14.349 5.925c0-.416.149-.773.446-1.071a1.404 1.404 0 011.053-.446h8.531a.472.472 0 00.321-.125.412.412 0 00.125-.303c-.012-.631-.018-1.315-.018-2.052v-1.928c0-1.63-.398-3.117-1.195-4.462a9.134 9.134 0 00-3.23-3.23c-1.357-.809-2.856-1.213-4.498-1.213-1.642 0-3.141.404-4.498 1.213a8.946 8.946 0 00-3.23 3.23c-.809 1.345-1.213 2.832-1.213 4.462v5.925c0 .417-.143.774-.429 1.071a1.49 1.49 0 01-1.07.428 1.43 1.43 0 01-1.054-.428 1.439 1.439 0 01-.446-1.053v-.339c.012-.024.012-.053 0-.089v-5.515c0-2.189.542-4.188 1.624-5.996a12.105 12.105 0 014.32-4.319c1.808-1.083 3.807-1.624 5.996-1.624 2.07 0 3.968.475 5.693 1.427a11.915 11.915 0 014.23 3.837c1.094 1.618 1.749 3.463 1.963 5.533.012.012.018.03.018.053.023.096.035.197.035.304v6.71c0 .417-.142.768-.428 1.053a1.51 1.51 0 01-1.07.446H19.184a1.43 1.43 0 01-1.054-.428 1.459 1.459 0 01-.446-1.071zm14.331-24.664c0-.655-.232-1.214-.696-1.678a2.286 2.286 0 00-1.678-.696H8.618c-.655 0-1.214.232-1.678.696a2.286 2.286 0 00-.696 1.678c0 .654.232 1.213.696 1.677a2.287 2.287 0 001.678.697H29.64c.655 0 1.214-.233 1.678-.697a2.285 2.285 0 00.696-1.677zm-24.896 0a1.4 1.4 0 01.446-1.053 1.4 1.4 0 011.053-.446H29.64c.417 0 .774.148 1.071.446.286.285.429.636.429 1.053 0 .416-.143.773-.429 1.071a1.462 1.462 0 01-1.07.446H8.617c-.417 0-.768-.149-1.053-.446a1.462 1.462 0 01-.446-1.071zm4.033-21.149c0-.642-.232-1.195-.696-1.659a2.284 2.284 0 00-1.678-.697c-.642 0-1.195.232-1.66.697a2.265 2.265 0 00-.695 1.659v12.85c0 .654.232 1.214.696 1.678a2.296 2.296 0 001.66.678c.654 0 1.213-.226 1.677-.678a2.288 2.288 0 00.696-1.678v-12.85zm-3.855 12.85v-12.85c0-.404.149-.749.446-1.035.286-.297.63-.446 1.035-.446.417 0 .774.149 1.071.446.286.286.428.631.428 1.035v12.85c0 .416-.142.773-.428 1.071a1.493 1.493 0 01-1.07.428c-.405 0-.75-.143-1.036-.428a1.462 1.462 0 01-.446-1.071zm24.754-6.425c0-.654-.226-1.213-.678-1.677a2.286 2.286 0 00-1.678-.696h-10.44c-.655 0-1.208.232-1.66.696a2.286 2.286 0 00-.696 1.677c0 .655.232 1.214.696 1.678a2.228 2.228 0 001.66.696h10.44c.654 0 1.214-.232 1.678-.696a2.317 2.317 0 00.678-1.678zm-14.296 0c0-.416.15-.767.447-1.053a1.404 1.404 0 011.052-.446h10.441c.416 0 .773.149 1.07.446.286.286.43.637.43 1.053 0 .417-.144.774-.43 1.071a1.462 1.462 0 01-1.07.446h-10.44c-.417 0-.768-.149-1.053-.446a1.459 1.459 0 01-.447-1.071zm3.73-23.076c0-.809-.333-1.469-.999-1.981l-10.316-8.138v-.018c-.535-.393-1.118-.553-1.749-.482-.618.072-1.142.363-1.57.875 0 .012-.006.018-.018.018-.393.535-.553 1.118-.482 1.749.072.618.363 1.142.875 1.57l.018.018 8.102 6.389-8.102 6.389-.018.018c-.512.428-.803.952-.875 1.571-.071.63.09 1.213.482 1.749.012 0 .018.006.018.018.428.511.952.803 1.57.874.631.071 1.214-.089 1.75-.482v-.018l10.315-8.138c.666-.511 1-1.172 1-1.981zm-11.832 9.441c-.357.262-.732.369-1.124.321-.393-.047-.726-.238-1-.571-.262-.345-.369-.714-.321-1.106.047-.393.238-.732.571-1.018l8.53-6.728a.439.439 0 000-.678l-8.53-6.728c-.333-.286-.524-.625-.571-1.018-.048-.392.06-.761.321-1.106.274-.333.607-.524 1-.571.392-.048.767.059 1.124.321l10.298 8.138h.017v.018c.44.321.66.75.66 1.285 0 .536-.22.97-.66 1.303h-.017l-10.298 8.138zm22.398-9.441c0-.654-.238-1.219-.714-1.695a2.286 2.286 0 00-1.678-.696h-4.604c-.655 0-1.22.232-1.696.696a2.346 2.346 0 00-.696 1.695c0 .655.232 1.22.696 1.696a2.346 2.346 0 001.696.696h4.604c.655 0 1.22-.232 1.696-.696a2.346 2.346 0 00.696-1.696zm-8.513 0c0-.428.148-.785.446-1.071a1.424 1.424 0 011.07-.446h4.605c.417 0 .774.149 1.071.446.297.286.446.643.446 1.071 0 .428-.148.785-.446 1.071a1.462 1.462 0 01-1.07.446h-4.605c-.428 0-.785-.149-1.071-.446a1.424 1.424 0 01-.446-1.071z"/></g><defs><filter id="filter0_dd" x="22.707" y="0" width="461.077" height="427.629" filterUnits="userSpaceOnUse" color-interpolation-filters="sRGB"><feFlood flood-opacity="0" result="BackgroundImageFix"/><feColorMatrix in="SourceAlpha" values="0 0 0 0 0 0 0 0 0 0 0 0 0 0 0 0 0 0 127 0" result="hardAlpha"/><feOffset/><feGaussianBlur stdDeviation="13.5"/><feComposite in2="hardAlpha" operator="out"/><feColorMatrix values="0 0 0 0 1 0 0 0 0 1 0 0 0 0 1 0 0 0 1 0"/><feBlend in2="BackgroundImageFix" result="effect1_dropShadow"/><feColorMatrix in="SourceAlpha" values="0 0 0 0 0 0 0 0 0 0 0 0 0 0 0 0 0 0 127 0" result="hardAlpha"/><feOffset dy="12"/><feGaussianBlur stdDeviation="3"/><feComposite in2="hardAlpha" operator="out"/><feColorMatrix values="0 0 0 0 0 0 0 0 0 0 0 0 0 0 0 0 0 0 0.3 0"/><feBlend in2="effect1_dropShadow" result="effect2_dropShadow"/><feBlend in="SourceGraphic" in2="effect2_dropShadow" result="shape"/></filter><filter id="filter1_dddd" x="46.97" y="24.068" width="412.619" height="379.298" filterUnits="userSpaceOnUse" color-interpolation-filters="sRGB"><feFlood flood-opacity="0" result="BackgroundImageFix"/><feColorMatrix in="SourceAlpha" values="0 0 0 0 0 0 0 0 0 0 0 0 0 0 0 0 0 0 127 0" result="hardAlpha"/><feOffset/><feGaussianBlur stdDeviation="2"/><feComposite in2="hardAlpha" operator="out"/><feColorMatrix values="0 0 0 0 1 0 0 0 0 1 0 0 0 0 1 0 0 0 1 0"/><feBlend in2="BackgroundImageFix" result="effect1_dropShadow"/><feColorMatrix in="SourceAlpha" values="0 0 0 0 0 0 0 0 0 0 0 0 0 0 0 0 0 0 127 0" result="hardAlpha"/><feOffset/><feGaussianBlur stdDeviation="3"/><feComposite in2="hardAlpha" operator="out"/><feColorMatrix values="0 0 0 0 1 0 0 0 0 1 0 0 0 0 1 0 0 0 1 0"/><feBlend in2="effect1_dropShadow" result="effect2_dropShadow"/><feColorMatrix in="SourceAlpha" values="0 0 0 0 0 0 0 0 0 0 0 0 0 0 0 0 0 0 127 0" result="hardAlpha"/><feOffset/><feGaussianBlur stdDeviation="2"/><feComposite in2="hardAlpha" operator="out"/><feColorMatrix values="0 0 0 0 1 0 0 0 0 1 0 0 0 0 1 0 0 0 1 0"/><feBlend in2="effect2_dropShadow" result="effect3_dropShadow"/><feColorMatrix in="SourceAlpha" values="0 0 0 0 0 0 0 0 0 0 0 0 0 0 0 0 0 0 127 0" result="hardAlpha"/><feOffset/><feGaussianBlur stdDeviation="1.5"/><feComposite in2="hardAlpha" operator="out"/><feColorMatrix values="0 0 0 0 1 0 0 0 0 1 0 0 0 0 1 0 0 0 1 0"/><feBlend in2="effect3_dropShadow" result="effect4_dropShadow"/><feBlend in="SourceGraphic" in2="effect4_dropShadow" result="shape"/></filter><filter id="filter2_dd" x="200.075" y="11.763" width="115.316" height="286.631" filterUnits="userSpaceOnUse" color-interpolation-filters="sRGB"><feFlood flood-opacity="0" result="BackgroundImageFix"/><feColorMatrix in="SourceAlpha" values="0 0 0 0 0 0 0 0 0 0 0 0 0 0 0 0 0 0 127 0" result="hardAlpha"/><feOffset/><feGaussianBlur stdDeviation="17"/><feComposite in2="hardAlpha" operator="out"/><feColorMatrix values="0 0 0 0 0.0941176 0 0 0 0 0.65098 0 0 0 0 0.866667 0 0 0 1 0"/><feBlend in2="BackgroundImageFix" result="effect1_dropShadow"/><feColorMatrix in="SourceAlpha" values="0 0 0 0 0 0 0 0 0 0 0 0 0 0 0 0 0 0 127 0" result="hardAlpha"/><feOffset dy="8"/><feGaussianBlur stdDeviation="2"/><feComposite in2="hardAlpha" operator="out"/><feColorMatrix values="0 0 0 0 0 0 0 0 0 0 0 0 0 0 0 0 0 0 0.18 0"/><feBlend in2="effect1_dropShadow" result="effect2_dropShadow"/><feBlend in="SourceGraphic" in2="effect2_dropShadow" result="shape"/></filter><filter id="filter3_dddd" x="231.338" y="43.026" width="52.789" height="224.104" filterUnits="userSpaceOnUse" color-interpolation-filters="sRGB"><feFlood flood-opacity="0" result="BackgroundImageFix"/><feColorMatrix in="SourceAlpha" values="0 0 0 0 0 0 0 0 0 0 0 0 0 0 0 0 0 0 127 0" result="hardAlpha"/><feOffset/><feGaussianBlur stdDeviation="2"/><feComposite in2="hardAlpha" operator="out"/><feColorMatrix values="0 0 0 0 0.196078 0 0 0 0 0.803922 0 0 0 0 0.937255 0 0 0 1 0"/><feBlend in2="BackgroundImageFix" result="effect1_dropShadow"/><feColorMatrix in="SourceAlpha" values="0 0 0 0 0 0 0 0 0 0 0 0 0 0 0 0 0 0 127 0" result="hardAlpha"/><feOffset/><feGaussianBlur stdDeviation="3"/><feComposite in2="hardAlpha" operator="out"/><feColorMatrix values="0 0 0 0 0.196078 0 0 0 0 0.803922 0 0 0 0 0.937255 0 0 0 1 0"/><feBlend in2="effect1_dropShadow" result="effect2_dropShadow"/><feColorMatrix in="SourceAlpha" values="0 0 0 0 0 0 0 0 0 0 0 0 0 0 0 0 0 0 127 0" result="hardAlpha"/><feOffset/><feGaussianBlur stdDeviation="2"/><feComposite in2="hardAlpha" operator="out"/><feColorMatrix values="0 0 0 0 0.196078 0 0 0 0 0.803922 0 0 0 0 0.937255 0 0 0 1 0"/><feBlend in2="effect2_dropShadow" result="effect3_dropShadow"/><feColorMatrix in="SourceAlpha" values="0 0 0 0 0 0 0 0 0 0 0 0 0 0 0 0 0 0 127 0" result="hardAlpha"/><feOffset/><feGaussianBlur stdDeviation="1.5"/><feComposite in2="hardAlpha" operator="out"/><feColorMatrix values="0 0 0 0 0.196078 0 0 0 0 0.803922 0 0 0 0 0.937255 0 0 0 1 0"/><feBlend in2="effect3_dropShadow" result="effect4_dropShadow"/><feBlend in="SourceGraphic" in2="effect4_dropShadow" result="shape"/></filter><filter id="filter4_dd" x="180.075" y="213.656" width="155.316" height="207.526" filterUnits="userSpaceOnUse" color-interpolation-filters="sRGB"><feFlood flood-opacity="0" result="BackgroundImageFix"/><feColorMatrix in="SourceAlpha" values="0 0 0 0 0 0 0 0 0 0 0 0 0 0 0 0 0 0 127 0" result="hardAlpha"/><feOffset/><feGaussianBlur stdDeviation="27"/><feComposite in2="hardAlpha" operator="out"/><feColorMatrix values="0 0 0 0 0.776471 0 0 0 0 0.152941 0 0 0 0 0.345098 0 0 0 1 0"/><feBlend in2="BackgroundImageFix" result="effect1_dropShadow"/><feColorMatrix in="SourceAlpha" values="0 0 0 0 0 0 0 0 0 0 0 0 0 0 0 0 0 0 127 0" result="hardAlpha"/><feOffset dy="10"/><feGaussianBlur stdDeviation="3"/><feComposite in2="hardAlpha" operator="out"/><feColorMatrix values="0 0 0 0 0 0 0 0 0 0 0 0 0 0 0 0 0 0 0.23 0"/><feBlend in2="effect1_dropShadow" result="effect2_dropShadow"/><feBlend in="SourceGraphic" in2="effect2_dropShadow" result="shape"/></filter><filter id="filter5_ddddd" x="231.338" y="264.919" width="52.789" height="105" filterUnits="userSpaceOnUse" color-interpolation-filters="sRGB"><feFlood flood-opacity="0" result="BackgroundImageFix"/><feColorMatrix in="SourceAlpha" values="0 0 0 0 0 0 0 0 0 0 0 0 0 0 0 0 0 0 127 0" result="hardAlpha"/><feOffset/><feGaussianBlur stdDeviation="1"/><feComposite in2="hardAlpha" operator="out"/><feColorMatrix values="0 0 0 0 0.937255 0 0 0 0 0.196078 0 0 0 0 0.552941 0 0 0 1 0"/><feBlend in2="BackgroundImageFix" result="effect1_dropShadow"/><feColorMatrix in="SourceAlpha" values="0 0 0 0 0 0 0 0 0 0 0 0 0 0 0 0 0 0 127 0" result="hardAlpha"/><feOffset/><feGaussianBlur stdDeviation="2"/><feComposite in2="hardAlpha" operator="out"/><feColorMatrix values="0 0 0 0 0.937255 0 0 0 0 0.196078 0 0 0 0 0.552941 0 0 0 1 0"/><feBlend in2="effect1_dropShadow" result="effect2_dropShadow"/><feColorMatrix in="SourceAlpha" values="0 0 0 0 0 0 0 0 0 0 0 0 0 0 0 0 0 0 127 0" result="hardAlpha"/><feOffset/><feGaussianBlur stdDeviation="3"/><feComposite in2="hardAlpha" operator="out"/><feColorMatrix values="0 0 0 0 0.937255 0 0 0 0 0.196078 0 0 0 0 0.552941 0 0 0 1 0"/><feBlend in2="effect2_dropShadow" result="effect3_dropShadow"/><feColorMatrix in="SourceAlpha" values="0 0 0 0 0 0 0 0 0 0 0 0 0 0 0 0 0 0 127 0" result="hardAlpha"/><feOffset/><feGaussianBlur stdDeviation="2"/><feComposite in2="hardAlpha" operator="out"/><feColorMatrix values="0 0 0 0 0.937255 0 0 0 0 0.196078 0 0 0 0 0.552941 0 0 0 1 0"/><feBlend in2="effect3_dropShadow" result="effect4_dropShadow"/><feColorMatrix in="SourceAlpha" values="0 0 0 0 0 0 0 0 0 0 0 0 0 0 0 0 0 0 127 0" result="hardAlpha"/><feOffset/><feGaussianBlur stdDeviation="1.5"/><feComposite in2="hardAlpha" operator="out"/><feColorMatrix values="0 0 0 0 0.937255 0 0 0 0 0.196078 0 0 0 0 0.552941 0 0 0 1 0"/><feBlend in2="effect4_dropShadow" result="effect5_dropShadow"/><feBlend in="SourceGraphic" in2="effect5_dropShadow" result="shape"/></filter><filter id="filter6_dd" x="307.337" y="161.841" width="155.316" height="259.499" filterUnits="userSpaceOnUse" color-interpolation-filters="sRGB"><feFlood flood-opacity="0" result="BackgroundImageFix"/><feColorMatrix in="SourceAlpha" values="0 0 0 0 0 0 0 0 0 0 0 0 0 0 0 0 0 0 127 0" result="hardAlpha"/><feOffset/><feGaussianBlur stdDeviation="27"/><feComposite in2="hardAlpha" operator="out"/><feColorMatrix values="0 0 0 0 0.776471 0 0 0 0 0.152941 0 0 0 0 0.345098 0 0 0 1 0"/><feBlend in2="BackgroundImageFix" result="effect1_dropShadow"/><feColorMatrix in="SourceAlpha" values="0 0 0 0 0 0 0 0 0 0 0 0 0 0 0 0 0 0 127 0" result="hardAlpha"/><feOffset dy="10"/><feGaussianBlur stdDeviation="3"/><feComposite in2="hardAlpha" operator="out"/><feColorMatrix values="0 0 0 0 0 0 0 0 0 0 0 0 0 0 0 0 0 0 0.23 0"/><feBlend in2="effect1_dropShadow" result="effect2_dropShadow"/><feBlend in="SourceGraphic" in2="effect2_dropShadow" result="shape"/></filter><filter id="filter7_ddddd" x="358.6" y="213" width="52.789" height="156.924" filterUnits="userSpaceOnUse" color-interpolation-filters="sRGB"><feFlood flood-opacity="0" result="BackgroundImageFix"/><feColorMatrix in="SourceAlpha" values="0 0 0 0 0 0 0 0 0 0 0 0 0 0 0 0 0 0 127 0" result="hardAlpha"/><feOffset/><feGaussianBlur stdDeviation="1"/><feComposite in2="hardAlpha" operator="out"/><feColorMatrix values="0 0 0 0 0.937255 0 0 0 0 0.196078 0 0 0 0 0.552941 0 0 0 1 0"/><feBlend in2="BackgroundImageFix" result="effect1_dropShadow"/><feColorMatrix in="SourceAlpha" values="0 0 0 0 0 0 0 0 0 0 0 0 0 0 0 0 0 0 127 0" result="hardAlpha"/><feOffset/><feGaussianBlur stdDeviation="2"/><feComposite in2="hardAlpha" operator="out"/><feColorMatrix values="0 0 0 0 0.937255 0 0 0 0 0.196078 0 0 0 0 0.552941 0 0 0 1 0"/><feBlend in2="effect1_dropShadow" result="effect2_dropShadow"/><feColorMatrix in="SourceAlpha" values="0 0 0 0 0 0 0 0 0 0 0 0 0 0 0 0 0 0 127 0" result="hardAlpha"/><feOffset/><feGaussianBlur stdDeviation="3"/><feComposite in2="hardAlpha" operator="out"/><feColorMatrix values="0 0 0 0 0.937255 0 0 0 0 0.196078 0 0 0 0 0.552941 0 0 0 1 0"/><feBlend in2="effect2_dropShadow" result="effect3_dropShadow"/><feColorMatrix in="SourceAlpha" values="0 0 0 0 0 0 0 0 0 0 0 0 0 0 0 0 0 0 127 0" result="hardAlpha"/><feOffset/><feGaussianBlur stdDeviation="2"/><feComposite in2="hardAlpha" operator="out"/><feColorMatrix values="0 0 0 0 0.937255 0 0 0 0 0.196078 0 0 0 0 0.552941 0 0 0 1 0"/><feBlend in2="effect3_dropShadow" result="effect4_dropShadow"/><feColorMatrix in="SourceAlpha" values="0 0 0 0 0 0 0 0 0 0 0 0 0 0 0 0 0 0 127 0" result="hardAlpha"/><feOffset/><feGaussianBlur stdDeviation="1.5"/><feComposite in2="hardAlpha" operator="out"/><feColorMatrix values="0 0 0 0 0.937255 0 0 0 0 0.196078 0 0 0 0 0.552941 0 0 0 1 0"/><feBlend in2="effect4_dropShadow" result="effect5_dropShadow"/><feBlend in="SourceGraphic" in2="effect5_dropShadow" result="shape"/></filter><filter id="filter8_dd" x="52.812" y="181.84" width="155.316" height="239.342" filterUnits="userSpaceOnUse" color-interpolation-filters="sRGB"><feFlood flood-opacity="0" result="BackgroundImageFix"/><feColorMatrix in="SourceAlpha" values="0 0 0 0 0 0 0 0 0 0 0 0 0 0 0 0 0 0 127 0" result="hardAlpha"/><feOffset/><feGaussianBlur stdDeviation="27"/><feComposite in2="hardAlpha" operator="out"/><feColorMatrix values="0 0 0 0 0.776471 0 0 0 0 0.152941 0 0 0 0 0.345098 0 0 0 1 0"/><feBlend in2="BackgroundImageFix" result="effect1_dropShadow"/><feColorMatrix in="SourceAlpha" values="0 0 0 0 0 0 0 0 0 0 0 0 0 0 0 0 0 0 127 0" result="hardAlpha"/><feOffset dy="10"/><feGaussianBlur stdDeviation="3"/><feComposite in2="hardAlpha" operator="out"/><feColorMatrix values="0 0 0 0 0 0 0 0 0 0 0 0 0 0 0 0 0 0 0.23 0"/><feBlend in2="effect1_dropShadow" result="effect2_dropShadow"/><feBlend in="SourceGraphic" in2="effect2_dropShadow" result="shape"/></filter><filter id="filter9_ddddd" x="104.075" y="233.104" width="52.79" height="136.815" filterUnits="userSpaceOnUse" color-interpolation-filters="sRGB"><feFlood flood-opacity="0" result="BackgroundImageFix"/><feColorMatrix in="SourceAlpha" values="0 0 0 0 0 0 0 0 0 0 0 0 0 0 0 0 0 0 127 0" result="hardAlpha"/><feOffset/><feGaussianBlur stdDeviation="1"/><feComposite in2="hardAlpha" operator="out"/><feColorMatrix values="0 0 0 0 0.937255 0 0 0 0 0.196078 0 0 0 0 0.552941 0 0 0 1 0"/><feBlend in2="BackgroundImageFix" result="effect1_dropShadow"/><feColorMatrix in="SourceAlpha" values="0 0 0 0 0 0 0 0 0 0 0 0 0 0 0 0 0 0 127 0" result="hardAlpha"/><feOffset/><feGaussianBlur stdDeviation="2"/><feComposite in2="hardAlpha" operator="out"/><feColorMatrix values="0 0 0 0 0.937255 0 0 0 0 0.196078 0 0 0 0 0.552941 0 0 0 1 0"/><feBlend in2="effect1_dropShadow" result="effect2_dropShadow"/><feColorMatrix in="SourceAlpha" values="0 0 0 0 0 0 0 0 0 0 0 0 0 0 0 0 0 0 127 0" result="hardAlpha"/><feOffset/><feGaussianBlur stdDeviation="3"/><feComposite in2="hardAlpha" operator="out"/><feColorMatrix values="0 0 0 0 0.937255 0 0 0 0 0.196078 0 0 0 0 0.552941 0 0 0 1 0"/><feBlend in2="effect2_dropShadow" result="effect3_dropShadow"/><feColorMatrix in="SourceAlpha" values="0 0 0 0 0 0 0 0 0 0 0 0 0 0 0 0 0 0 127 0" result="hardAlpha"/><feOffset/><feGaussianBlur stdDeviation="2"/><feComposite in2="hardAlpha" operator="out"/><feColorMatrix values="0 0 0 0 0.937255 0 0 0 0 0.196078 0 0 0 0 0.552941 0 0 0 1 0"/><feBlend in2="effect3_dropShadow" result="effect4_dropShadow"/><feColorMatrix in="SourceAlpha" values="0 0 0 0 0 0 0 0 0 0 0 0 0 0 0 0 0 0 127 0" result="hardAlpha"/><feOffset/><feGaussianBlur stdDeviation="1.5"/><feComposite in2="hardAlpha" operator="out"/><feColorMatrix values="0 0 0 0 0.937255 0 0 0 0 0.196078 0 0 0 0 0.552941 0 0 0 1 0"/><feBlend in2="effect4_dropShadow" result="effect5_dropShadow"/><feBlend in="SourceGraphic" in2="effect5_dropShadow" result="shape"/></filter><filter id="filter10_dd" x="243.706" y="71" width="155.316" height="350.182" filterUnits="userSpaceOnUse" color-interpolation-filters="sRGB"><feFlood flood-opacity="0" result="BackgroundImageFix"/><feColorMatrix in="SourceAlpha" values="0 0 0 0 0 0 0 0 0 0 0 0 0 0 0 0 0 0 127 0" result="hardAlpha"/><feOffset/><feGaussianBlur stdDeviation="27"/><feComposite in2="hardAlpha" operator="out"/><feColorMatrix values="0 0 0 0 0.776471 0 0 0 0 0.152941 0 0 0 0 0.345098 0 0 0 1 0"/><feBlend in2="BackgroundImageFix" result="effect1_dropShadow"/><feColorMatrix in="SourceAlpha" values="0 0 0 0 0 0 0 0 0 0 0 0 0 0 0 0 0 0 127 0" result="hardAlpha"/><feOffset dy="10"/><feGaussianBlur stdDeviation="3"/><feComposite in2="hardAlpha" operator="out"/><feColorMatrix values="0 0 0 0 0 0 0 0 0 0 0 0 0 0 0 0 0 0 0.23 0"/><feBlend in2="effect1_dropShadow" result="effect2_dropShadow"/><feBlend in="SourceGraphic" in2="effect2_dropShadow" result="shape"/></filter><filter id="filter11_ddddd" x="294.969" y="122" width="52.789" height="248.37" filterUnits="userSpaceOnUse" color-interpolation-filters="sRGB"><feFlood flood-opacity="0" result="BackgroundImageFix"/><feColorMatrix in="SourceAlpha" values="0 0 0 0 0 0 0 0 0 0 0 0 0 0 0 0 0 0 127 0" result="hardAlpha"/><feOffset/><feGaussianBlur stdDeviation="1"/><feComposite in2="hardAlpha" operator="out"/><feColorMatrix values="0 0 0 0 0.937255 0 0 0 0 0.196078 0 0 0 0 0.552941 0 0 0 1 0"/><feBlend in2="BackgroundImageFix" result="effect1_dropShadow"/><feColorMatrix in="SourceAlpha" values="0 0 0 0 0 0 0 0 0 0 0 0 0 0 0 0 0 0 127 0" result="hardAlpha"/><feOffset/><feGaussianBlur stdDeviation="2"/><feComposite in2="hardAlpha" operator="out"/><feColorMatrix values="0 0 0 0 0.937255 0 0 0 0 0.196078 0 0 0 0 0.552941 0 0 0 1 0"/><feBlend in2="effect1_dropShadow" result="effect2_dropShadow"/><feColorMatrix in="SourceAlpha" values="0 0 0 0 0 0 0 0 0 0 0 0 0 0 0 0 0 0 127 0" result="hardAlpha"/><feOffset/><feGaussianBlur stdDeviation="3"/><feComposite in2="hardAlpha" operator="out"/><feColorMatrix values="0 0 0 0 0.937255 0 0 0 0 0.196078 0 0 0 0 0.552941 0 0 0 1 0"/><feBlend in2="effect2_dropShadow" result="effect3_dropShadow"/><feColorMatrix in="SourceAlpha" values="0 0 0 0 0 0 0 0 0 0 0 0 0 0 0 0 0 0 127 0" result="hardAlpha"/><feOffset/><feGaussianBlur stdDeviation="2"/><feComposite in2="hardAlpha" operator="out"/><feColorMatrix values="0 0 0 0 0.937255 0 0 0 0 0.196078 0 0 0 0 0.552941 0 0 0 1 0"/><feBlend in2="effect3_dropShadow" result="effect4_dropShadow"/><feColorMatrix in="SourceAlpha" values="0 0 0 0 0 0 0 0 0 0 0 0 0 0 0 0 0 0 127 0" result="hardAlpha"/><feOffset/><feGaussianBlur stdDeviation="1.5"/><feComposite in2="hardAlpha" operator="out"/><feColorMatrix values="0 0 0 0 0.937255 0 0 0 0 0.196078 0 0 0 0 0.552941 0 0 0 1 0"/><feBlend in2="effect4_dropShadow" result="effect5_dropShadow"/><feBlend in="SourceGraphic" in2="effect5_dropShadow" result="shape"/></filter><filter id="filter12_dd" x="116" y="107" width="156" height="314.182" filterUnits="userSpaceOnUse" color-interpolation-filters="sRGB"><feFlood flood-opacity="0" result="BackgroundImageFix"/><feColorMatrix in="SourceAlpha" values="0 0 0 0 0 0 0 0 0 0 0 0 0 0 0 0 0 0 127 0" result="hardAlpha"/><feOffset/><feGaussianBlur stdDeviation="27"/><feComposite in2="hardAlpha" operator="out"/><feColorMatrix values="0 0 0 0 0.776471 0 0 0 0 0.152941 0 0 0 0 0.345098 0 0 0 1 0"/><feBlend in2="BackgroundImageFix" result="effect1_dropShadow"/><feColorMatrix in="SourceAlpha" values="0 0 0 0 0 0 0 0 0 0 0 0 0 0 0 0 0 0 127 0" result="hardAlpha"/><feOffset dy="10"/><feGaussianBlur stdDeviation="3"/><feComposite in2="hardAlpha" operator="out"/><feColorMatrix values="0 0 0 0 0 0 0 0 0 0 0 0 0 0 0 0 0 0 0.23 0"/><feBlend in2="effect1_dropShadow" result="effect2_dropShadow"/><feBlend in="SourceGraphic" in2="effect2_dropShadow" result="shape"/></filter><filter id="filter13_ddddd" x="167.707" y="158" width="52.789" height="212.447" filterUnits="userSpaceOnUse" color-interpolation-filters="sRGB"><feFlood flood-opacity="0" result="BackgroundImageFix"/><feColorMatrix in="SourceAlpha" values="0 0 0 0 0 0 0 0 0 0 0 0 0 0 0 0 0 0 127 0" result="hardAlpha"/><feOffset/><feGaussianBlur stdDeviation="1"/><feComposite in2="hardAlpha" operator="out"/><feColorMatrix values="0 0 0 0 0.937255 0 0 0 0 0.196078 0 0 0 0 0.552941 0 0 0 1 0"/><feBlend in2="BackgroundImageFix" result="effect1_dropShadow"/><feColorMatrix in="SourceAlpha" values="0 0 0 0 0 0 0 0 0 0 0 0 0 0 0 0 0 0 127 0" result="hardAlpha"/><feOffset/><feGaussianBlur stdDeviation="2"/><feComposite in2="hardAlpha" operator="out"/><feColorMatrix values="0 0 0 0 0.937255 0 0 0 0 0.196078 0 0 0 0 0.552941 0 0 0 1 0"/><feBlend in2="effect1_dropShadow" result="effect2_dropShadow"/><feColorMatrix in="SourceAlpha" values="0 0 0 0 0 0 0 0 0 0 0 0 0 0 0 0 0 0 127 0" result="hardAlpha"/><feOffset/><feGaussianBlur stdDeviation="3"/><feComposite in2="hardAlpha" operator="out"/><feColorMatrix values="0 0 0 0 0.937255 0 0 0 0 0.196078 0 0 0 0 0.552941 0 0 0 1 0"/><feBlend in2="effect2_dropShadow" result="effect3_dropShadow"/><feColorMatrix in="SourceAlpha" values="0 0 0 0 0 0 0 0 0 0 0 0 0 0 0 0 0 0 127 0" result="hardAlpha"/><feOffset/><feGaussianBlur stdDeviation="2"/><feComposite in2="hardAlpha" operator="out"/><feColorMatrix values="0 0 0 0 0.937255 0 0 0 0 0.196078 0 0 0 0 0.552941 0 0 0 1 0"/><feBlend in2="effect3_dropShadow" result="effect4_dropShadow"/><feColorMatrix in="SourceAlpha" values="0 0 0 0 0 0 0 0 0 0 0 0 0 0 0 0 0 0 127 0" result="hardAlpha"/><feOffset/><feGaussianBlur stdDeviation="1.5"/><feComposite in2="hardAlpha" operator="out"/><feColorMatrix values="0 0 0 0 0.937255 0 0 0 0 0.196078 0 0 0 0 0.552941 0 0 0 1 0"/><feBlend in2="effect4_dropShadow" result="effect5_dropShadow"/><feBlend in="SourceGraphic" in2="effect5_dropShadow" result="shape"/></filter><filter id="filter14_dddd" x="197.375" y="412.776" width="111.018" height="39.482" filterUnits="userSpaceOnUse" color-interpolation-filters="sRGB"><feFlood flood-opacity="0" result="BackgroundImageFix"/><feColorMatrix in="SourceAlpha" values="0 0 0 0 0 0 0 0 0 0 0 0 0 0 0 0 0 0 127 0" result="hardAlpha"/><feOffset/><feGaussianBlur stdDeviation="2"/><feComposite in2="hardAlpha" operator="out"/><feColorMatrix values="0 0 0 0 1 0 0 0 0 1 0 0 0 0 1 0 0 0 1 0"/><feBlend in2="BackgroundImageFix" result="effect1_dropShadow"/><feColorMatrix in="SourceAlpha" values="0 0 0 0 0 0 0 0 0 0 0 0 0 0 0 0 0 0 127 0" result="hardAlpha"/><feOffset/><feGaussianBlur stdDeviation="3"/><feComposite in2="hardAlpha" operator="out"/><feColorMatrix values="0 0 0 0 1 0 0 0 0 1 0 0 0 0 1 0 0 0 1 0"/><feBlend in2="effect1_dropShadow" result="effect2_dropShadow"/><feColorMatrix in="SourceAlpha" values="0 0 0 0 0 0 0 0 0 0 0 0 0 0 0 0 0 0 127 0" result="hardAlpha"/><feOffset/><feGaussianBlur stdDeviation="2"/><feComposite in2="hardAlpha" operator="out"/><feColorMatrix values="0 0 0 0 1 0 0 0 0 1 0 0 0 0 1 0 0 0 1 0"/><feBlend in2="effect2_dropShadow" result="effect3_dropShadow"/><feColorMatrix in="SourceAlpha" values="0 0 0 0 0 0 0 0 0 0 0 0 0 0 0 0 0 0 127 0" result="hardAlpha"/><feOffset/><feGaussianBlur stdDeviation="1.5"/><feComposite in2="hardAlpha" operator="out"/><feColorMatrix values="0 0 0 0 1 0 0 0 0 1 0 0 0 0 1 0 0 0 1 0"/><feBlend in2="effect3_dropShadow" result="effect4_dropShadow"/><feBlend in="SourceGraphic" in2="effect4_dropShadow" result="shape"/></filter><filter id="filter15_dddd" x=".244" y="126.369" width="37.825" height="175.601" filterUnits="userSpaceOnUse" color-interpolation-filters="sRGB"><feFlood flood-opacity="0" result="BackgroundImageFix"/><feColorMatrix in="SourceAlpha" values="0 0 0 0 0 0 0 0 0 0 0 0 0 0 0 0 0 0 127 0" result="hardAlpha"/><feOffset/><feGaussianBlur stdDeviation="2"/><feComposite in2="hardAlpha" operator="out"/><feColorMatrix values="0 0 0 0 1 0 0 0 0 1 0 0 0 0 1 0 0 0 1 0"/><feBlend in2="BackgroundImageFix" result="effect1_dropShadow"/><feColorMatrix in="SourceAlpha" values="0 0 0 0 0 0 0 0 0 0 0 0 0 0 0 0 0 0 127 0" result="hardAlpha"/><feOffset/><feGaussianBlur stdDeviation="3"/><feComposite in2="hardAlpha" operator="out"/><feColorMatrix values="0 0 0 0 1 0 0 0 0 1 0 0 0 0 1 0 0 0 1 0"/><feBlend in2="effect1_dropShadow" result="effect2_dropShadow"/><feColorMatrix in="SourceAlpha" values="0 0 0 0 0 0 0 0 0 0 0 0 0 0 0 0 0 0 127 0" result="hardAlpha"/><feOffset/><feGaussianBlur stdDeviation="2"/><feComposite in2="hardAlpha" operator="out"/><feColorMatrix values="0 0 0 0 1 0 0 0 0 1 0 0 0 0 1 0 0 0 1 0"/><feBlend in2="effect2_dropShadow" result="effect3_dropShadow"/><feColorMatrix in="SourceAlpha" values="0 0 0 0 0 0 0 0 0 0 0 0 0 0 0 0 0 0 127 0" result="hardAlpha"/><feOffset/><feGaussianBlur stdDeviation="1.5"/><feComposite in2="hardAlpha" operator="out"/><feColorMatrix values="0 0 0 0 1 0 0 0 0 1 0 0 0 0 1 0 0 0 1 0"/><feBlend in2="effect3_dropShadow" result="effect4_dropShadow"/><feBlend in="SourceGraphic" in2="effect4_dropShadow" result="shape"/></filter></defs></svg>