<svg width="24" height="24" viewBox="0 0 24 24" fill="none" xmlns="http://www.w3.org/2000/svg"><path d="M20.62.195a.776.776 0 011.057.752c-.196 4.49-1.742 8.362-1.742 8.362l-5.838-4.097C16.424 2.408 19.24.722 20.62.195z" fill="#D26437"/><path d="M16.043 6.577c1.517-2.47 3.806-4.83 4.53-5.25.294-.171.552.246.486.796-.35 2.93-.985 5.56-1.375 7.01l-3.641-2.556z" fill="#B44632"/><path d="M3.38.195a.776.776 0 00-1.057.752c.195 4.49 1.741 8.362 1.741 8.362l5.839-4.097C7.575 2.408 4.758.722 3.38.195z" fill="#D26437"/><path d="M7.957 6.577c-1.517-2.47-3.806-4.83-4.53-5.25-.294-.171-.552.246-.486.796.35 2.93.985 5.56 1.375 7.01l3.641-2.556z" fill="#B44632"/><path d="M12 23.857c1.283 0 2.322-.693 2.322-1.548 0-.855-1.04-1.549-2.322-1.549-1.283 0-2.323.694-2.323 1.549s1.04 1.548 2.323 1.548zm-2.71-1.935c-2.71-1.549-7.198-3.235-7.198-3.235l.43-1.292c-.181-.086-1.425-.102-2.522.268l1.161-1.935h8.13v6.194zm5.42 0c2.71-1.549 7.198-3.235 7.198-3.235l-.43-1.292c.181-.086 1.425-.102 2.522.268l-1.162-1.935H14.71v6.194z" fill="#EBC9A0"/><path d="M12 4.502c5.643 0 10.487 5.654 11.983 13.074l.017.087s-2.855-2.951-5.952-1.378c-1.148.583-1.693 1.864-1.693 3.264 0 2.322-1.861 3.606-4.066 2.714a.766.766 0 00-.578 0c-2.205.892-4.066-.393-4.066-2.714 0-1.4-.545-2.681-1.693-3.264C2.855 14.712 0 17.663 0 17.663l.017-.087C1.513 10.156 6.357 4.502 12 4.502z" fill="#EB874B"/><path d="M7.935 15.34a1.358 1.358 0 01-1.354-1.354v-.774c0-.745.61-1.355 1.354-1.355.746 0 1.355.61 1.355 1.355v.774a1.36 1.36 0 01-1.355 1.355z" fill="#4B3F4E"/><path d="M7.935 11.857c-.066 0-.13.01-.193.02v1.915a.774.774 0 001.548 0v-.58a1.36 1.36 0 00-1.355-1.355z" fill="#5D5360"/><path d="M7.936 13.406a.58.58 0 100-1.162.58.58 0 000 1.162z" fill="#fff"/><path d="M16.064 15.34a1.358 1.358 0 01-1.354-1.354v-.774c0-.745.61-1.355 1.354-1.355.745 0 1.355.61 1.355 1.355v.774a1.36 1.36 0 01-1.355 1.355z" fill="#4B3F4E"/><path d="M16.065 11.857c-.067 0-.13.01-.194.02v1.915a.774.774 0 001.548 0v-.58a1.36 1.36 0 00-1.354-1.355z" fill="#5D5360"/><path d="M16.064 13.406a.58.58 0 100-1.162.58.58 0 000 1.162z" fill="#fff"/><path d="M11.613 22.298c.033-.012.067-.025.1-.039a.774.774 0 01.573 0l.101.04V20.76h-.774v1.538z" fill="#D26437"/><path d="M11.977 18.438c.868 0 1.571.575 1.571 1.284 0 .683-.66 1.043-1.136 1.31a.872.872 0 01-.869 0c-.476-.267-1.136-.627-1.136-1.31 0-.71.703-1.284 1.57-1.284z" fill="#5D5360"/><path d="M12.362 20.998c-.476-.342-1.136-.805-1.136-1.684 0-.288.076-.555.2-.79-.595.182-1.02.648-1.02 1.197 0 .684.66 1.044 1.137 1.31a.872.872 0 00.869 0l.006-.003c-.018-.011-.038-.016-.056-.03z" fill="#4B3F4E"/><path d="M12 4.502l-.753.038c-5.316.476-9.8 5.948-11.23 13.036L0 17.663s2.304-2.38 5.017-1.724C5.357 6.3 11.37 4.502 12 4.502z" fill="#D26437"/></svg>