<svg width="25" height="24" viewBox="0 0 25 24" fill="none" xmlns="http://www.w3.org/2000/svg"><g clip-path="url(#clip0_303_2735)"><path d="M12.185 0c6.729 0 12.184 5.373 12.184 12s-5.455 12-12.184 12C5.455 24 0 18.627 0 12S5.455 0 12.185 0z" fill="#000"/><path d="M6.333 9.796c0 .09.09.18.182.18H8.73v1.11H6.515c-.091 0-.182.089-.182.179v1.83c0 .09.09.179.182.179H8.73v4.379c0 .09.06.15.152.15h2.126c.09 0 .151-.06.151-.15v-4.138c0-.09.061-.15.152-.15h1.701c.06 0 .121.03.152.09l1.883 4.29c.03.059.09.089.151.089h2.278c.121 0 .182-.12.152-.21l-1.883-4.2c-.03-.089 0-.179.091-.209.91-.33 1.488-1.14 1.488-2.22v-2.7c0-1.379-1.154-2.519-2.551-2.519h-5.89c-.091 0-.152.06-.152.15v1.86H6.515c-.091 0-.182.09-.182.18v1.83z" fill="#fff"/><path d="M11.16 8.206c0-.09.061-.15.152-.15h2.855c.395 0 .73.33.73.72v1.62c0 .39-.335.72-.73.72h-2.855c-.09 0-.151-.061-.151-.15v-2.76z" fill="#000"/></g><defs><clipPath id="clip0_303_2735"><path fill="#fff" d="M0 0h24.369v24H0z"/></clipPath></defs></svg>