<svg width="24" height="24" viewBox="0 0 24 24" fill="none" xmlns="http://www.w3.org/2000/svg"><g clip-path="url(#clip0_303_2785)" fill="#3996FF"><path d="M44.408 12.138a9.805 9.805 0 01-.747 3.917 8.335 8.335 0 01-2.098 2.993 9.519 9.519 0 01-3.227 1.918 13.18 13.18 0 01-8.312 0 9.368 9.368 0 01-3.227-1.918 8.792 8.792 0 01-2.098-2.993 10.088 10.088 0 01-.747-3.917 10.068 10.068 0 01.747-3.904 8.333 8.333 0 012.098-2.993 9.619 9.619 0 013.227-1.93 12.077 12.077 0 014.148-.69 12.43 12.43 0 014.165.676 9.19 9.19 0 013.226 1.93 8.713 8.713 0 012.098 3.007c.509 1.256.763 2.58.747 3.904zm-1.621 0a9.488 9.488 0 00-.604-3.504 7.141 7.141 0 00-1.764-2.62 7.908 7.908 0 00-2.734-1.655 11.03 11.03 0 00-6.994 0 7.763 7.763 0 00-2.733 1.655 7.439 7.439 0 00-1.78 2.634 9.4 9.4 0 00-.636 3.49 9.507 9.507 0 00.62 3.503 7.389 7.389 0 001.78 2.621 7.674 7.674 0 002.733 1.642c2.257.744 4.753.744 6.994 0a7.408 7.408 0 002.734-1.642 7.342 7.342 0 001.764-2.62 8.895 8.895 0 00.62-3.504zM14.193 2.634H2.02v5.738h12.174V2.634z"/><path d="M14.194 2.634H7.582v19.007h6.612V2.634zm4.926 5.725c1.826 0 3.306-1.285 3.306-2.87 0-1.584-1.48-2.868-3.306-2.868-1.825 0-3.306 1.284-3.306 2.869 0 1.584 1.48 2.869 3.306 2.869z"/></g><defs><clipPath id="clip0_303_2785"><path fill="#fff" d="M0 0h24v24H0z"/></clipPath></defs></svg>