<svg width="36" height="36" viewBox="0 0 36 36" fill="none" xmlns="http://www.w3.org/2000/svg"><g filter="url(#filter0_b_303_1794)"><path fill="#fff" fill-opacity=".12" d="M0 0h36v36H0z"/></g><g clip-path="url(#clip0_303_1794)"><path d="M25.445 23.945l-3.962-2.096-.184-.572c-.054-.192-.141-.383-.32-.434-.056-.016-.128-.119-.137-.191l-.106-1.112a.346.346 0 01.083-.24c.303-.365.469-.786.539-1.268.035-.242.161-.465.226-.704l.254-1.33c.027-.174.021-.309-.174-.376-.054-.02-.1-.108-.1-.242l.002-2.509c-.041-.607-.363-1.077-.819-1.404-.87-.624-2.43-.334-1.922-1.353.03-.06.02-.164-.188-.087-.781.288-2.861 1.047-3.384 1.44-.467.353-.777.797-.819 1.404l.003 2.509c0 .11-.047.223-.1.242-.196.067-.201.202-.175.376l.255 1.33c.064.239.19.462.226.704.07.482.235.903.539 1.267.05.06.088.146.082.24l-.105 1.113c-.01.072-.082.175-.138.191-.179.05-.265.242-.32.434l-.183.572-3.963 2.096a.312.312 0 00-.166.275v1.468c0 .172.14.312.312.312h14.598c.173 0 .313-.14.313-.312V24.22a.312.312 0 00-.167-.275z" fill="#fff" fill-opacity=".2"/></g><defs><clipPath id="clip0_303_1794"><path fill="#fff" transform="translate(10 10)" d="M0 0h16v16H0z"/></clipPath><filter id="filter0_b_303_1794" x="-4" y="-4" width="44" height="44" filterUnits="userSpaceOnUse" color-interpolation-filters="sRGB"><feFlood flood-opacity="0" result="BackgroundImageFix"/><feGaussianBlur in="BackgroundImage" stdDeviation="2"/><feComposite in2="SourceAlpha" operator="in" result="effect1_backgroundBlur_303_1794"/><feBlend in="SourceGraphic" in2="effect1_backgroundBlur_303_1794" result="shape"/></filter></defs></svg>