<svg width="22" height="19" viewBox="0 0 22 19" fill="none" xmlns="http://www.w3.org/2000/svg"><path fill-rule="evenodd" clip-rule="evenodd" d="M13.85 2.658a3.086 3.086 0 00-3.028 3.693A1 1 0 019.72 7.539a11.167 11.167 0 01-5.834-2.544c.031.602.24 1.242.693 1.912l.68 1.004-1.116.475-.215.092c.16.183.352.37.567.555.287.246.592.472.91.676l.011.007h.001l1.548.939-1.62.81c-.08.04-.16.076-.24.108.348.29.732.533 1.142.726l1.39.657-1.164 1.004c-.635.548-1.274.957-2.103 1.173A8.749 8.749 0 008.5 16.16c4.806 0 8.676-3.835 8.676-8.534v-.52l.425-.3c.664-.465 1.133-1.095 1.47-1.816h-2.16l-.273-.57a3.086 3.086 0 00-2.788-1.762zm-11.28 7.3a1 1 0 00-.238.797c.113.8.592 1.49 1.122 2.018.144.143.298.28.46.41l-.075.02c-.48.12-1.13.146-2.21.04a1 1 0 00-.814 1.695A10.717 10.717 0 008.5 18.16c5.713 0 10.4-4.436 10.664-10.034 1.29-1.083 1.935-2.55 2.283-3.883a1 1 0 00-.968-1.253h-2.353A5.086 5.086 0 008.78 5.329a9.214 9.214 0 01-4.72-2.975 1 1 0 00-1.674.23C1.78 3.906 1.664 5.43 2.34 6.98l-.234.1a1 1 0 00-.57 1.193c.186.652.604 1.228 1.032 1.685h.001z" fill="#6D6F7F"/></svg>