<svg width="24" height="16" viewBox="0 0 24 16" fill="none" xmlns="http://www.w3.org/2000/svg"><path fill-rule="evenodd" clip-rule="evenodd" d="M1.264 0h21.47C23.432 0 24 .57 24 1.265v.136a1.27 1.27 0 01-1.265 1.266H1.264C.568 2.667 0 2.097 0 1.4v-.136C0 .57.568 0 1.264 0zm21.47 6.667H1.265C.568 6.667 0 7.236 0 7.932v.136c0 .696.568 1.265 1.264 1.265h21.47c.697 0 1.266-.569 1.266-1.265v-.136c0-.696-.57-1.265-1.265-1.265zm0 6.666H1.265C.568 13.333 0 13.903 0 14.6v.136C0 15.43.568 16 1.264 16h21.47A1.27 1.27 0 0024 14.735v-.136a1.27 1.27 0 00-1.265-1.266z" fill="#fff"/></svg>