<svg width="16" height="16" viewBox="0 0 16 16" fill="none" xmlns="http://www.w3.org/2000/svg"><path d="M15.531.781H.47a.469.469 0 000 .938h1.125V14.75a.469.469 0 00.65.432l2.787-1.173 2.787 1.173a.469.469 0 00.364 0l2.787-1.173 2.787 1.173a.47.47 0 00.65-.432V1.719h1.125a.469.469 0 000-.938zM4.625 10.625a.625.625 0 110-1.25.625.625 0 010 1.25zm0-2.5a.625.625 0 110-1.25.625.625 0 010 1.25zm.562-4.375a.47.47 0 01.47-.469h4.687a.469.469 0 110 .938H5.656a.469.469 0 01-.469-.469zm6.25 6.719H7.063a.469.469 0 110-.938h4.375a.469.469 0 010 .938zm0-2.5H7.063a.469.469 0 010-.938h4.375a.469.469 0 110 .938z" fill="#fff" fill-opacity=".2"/></svg>