<svg width="562" height="396" viewBox="0 0 562 396" fill="none" xmlns="http://www.w3.org/2000/svg"><g filter="url(#filter0_dd)"><path d="M117.506 287.371c-.301 0-.602-.019-.901-.054a5.91 5.91 0 01-4.791-4.377l-10.565-42.816-42.798-10.69a5.877 5.877 0 01-4.38-4.783 5.875 5.875 0 012.696-5.899l37.466-23.281-3.07-44.023a5.853 5.853 0 019.636-4.873l33.72 28.406 40.897-16.499a5.824 5.824 0 016.305 1.296 5.884 5.884 0 011.279 6.35l-16.608 40.871 27.578 32.891a5.86 5.86 0 012.314 4.665 6.036 6.036 0 01-5.953 5.863 3.62 3.62 0 01-.531 0l-43.987-3.179-23.417 37.394a5.853 5.853 0 01-4.89 2.738zM74.743 221.4l32.766 8.178a5.845 5.845 0 014.278 4.296l8.105 32.783 17.905-28.64a5.847 5.847 0 015.404-2.702l33.684 2.44-21.697-25.884a5.879 5.879 0 01-.9-5.989l12.726-31.288-31.325 12.609a5.783 5.783 0 01-5.98-.946l-25.83-21.768 2.351 33.702a5.828 5.828 0 01-2.756 5.403L74.744 221.4zm368.937 65.971a5.901 5.901 0 01-4.99-2.747l-23.416-37.394-43.996 3.179a5.953 5.953 0 01-3.288-.758 5.948 5.948 0 01-2.35-2.421 5.829 5.829 0 01.729-6.439l28.334-33.783-16.572-40.871a5.861 5.861 0 014.265-7.962 5.862 5.862 0 013.373.316l40.898 16.499 33.692-28.406a5.85 5.85 0 016.45-.789 5.855 5.855 0 013.205 5.653l-3.062 44.014 37.448 23.281a5.874 5.874 0 011.214 8.967 5.875 5.875 0 01-2.925 1.724l-42.78 10.672-10.546 42.834a5.868 5.868 0 01-4.765 4.395 7.82 7.82 0 01-.918.036zm-25.263-52.119a5.868 5.868 0 014.98 2.765l17.905 28.64 8.106-32.783a5.843 5.843 0 014.278-4.296l32.792-8.178-28.685-17.842a5.835 5.835 0 01-2.747-5.403l2.341-33.702-25.848 21.795a5.822 5.822 0 01-5.98.946l-31.324-12.609 12.717 31.261a5.88 5.88 0 01-.946 5.989l-21.696 25.884 33.683-2.44.424-.027zm-192.394 3.341a5.8 5.8 0 01-3.44-1.126 5.861 5.861 0 01-2.27-6.07l13.582-58.604-45.437-39.43a5.877 5.877 0 01-1.727-6.243 5.871 5.871 0 015.068-4.033l59.937-5.179 23.417-55.416c1.801-4.323 9.006-4.323 10.807 0l23.471 55.416 59.964 5.179a5.915 5.915 0 015.08 4.034 5.853 5.853 0 01-1.747 6.242l-45.447 39.43 13.582 58.604a5.867 5.867 0 01-2.264 6.07 5.865 5.865 0 01-6.472.279l-51.534-31.026-51.544 31.026a5.787 5.787 0 01-3.026.847zm54.57-44.59a5.8 5.8 0 013.026.846l42.69 25.695-11.249-48.535a5.888 5.888 0 01.136-3.14 5.891 5.891 0 011.728-2.624l37.647-32.657-49.652-4.296a5.856 5.856 0 01-4.891-3.603l-19.435-45.932-19.436 45.932a5.865 5.865 0 01-4.891 3.603l-49.643 4.296 37.638 32.657a5.878 5.878 0 011.864 5.764l-11.258 48.535 42.663-25.695a5.792 5.792 0 013.063-.846z" fill="#B92146"/></g><g filter="url(#filter1_dd)"><path d="M420.452 360.233c-82.66-71.105-207.353-71.15-290.112 0a5.877 5.877 0 01-4.313 1.537 5.864 5.864 0 01-3.325-10.426c87.101-74.879 218.386-74.87 305.397 0a5.863 5.863 0 01-7.647 8.889zm33.089-8.962a251.861 251.861 0 00-356.264 0 5.875 5.875 0 01-4.193 1.865 5.873 5.873 0 01-5.546-3.674 5.877 5.877 0 011.445-6.494 263.628 263.628 0 01287.33-57.165 263.625 263.625 0 0185.532 57.165 5.87 5.87 0 01-8.304 8.303z" fill="#059FDA"/></g><g filter="url(#filter2_dd)"><path d="M424.415 126.671a5.866 5.866 0 01-5.143-8.673l22.858-41.996a5.874 5.874 0 0110.689 1.206 5.874 5.874 0 01-.376 4.404l-22.867 41.997a5.868 5.868 0 01-5.161 3.062zm-285.357 0a5.854 5.854 0 01-5.161-3.062L111.03 81.613a5.864 5.864 0 01.588-6.492 5.872 5.872 0 016.223-1.94 5.872 5.872 0 013.492 2.82l22.903 41.997a5.87 5.87 0 01-2.35 7.962c-.866.475-1.84.72-2.828.711zm246.233-21.3a5.848 5.848 0 01-5.042-2.859 5.841 5.841 0 01-.1-5.796l36.268-66.647a5.884 5.884 0 013.488-2.827 5.865 5.865 0 016.825 8.42l-36.278 66.647a5.856 5.856 0 01-5.161 3.062zm-207.146 0a5.843 5.843 0 01-2.995-.818 5.844 5.844 0 01-2.156-2.235l-36.287-66.647a5.862 5.862 0 012.36-7.953 5.866 5.866 0 017.952 2.36l36.278 66.647a5.863 5.863 0 01.476 4.464 5.86 5.86 0 01-2.827 3.489 5.799 5.799 0 01-2.774.693h-.027zm39.133-21.29a5.855 5.855 0 01-5.161-3.063l-22.849-41.996a5.876 5.876 0 012.443-7.776 5.872 5.872 0 017.86 2.155l22.859 42.006a5.868 5.868 0 01-.103 5.8 5.864 5.864 0 01-5.04 2.873h-.009zm128.854 0a5.86 5.86 0 01-5.85-5.762 5.86 5.86 0 01.716-2.912l22.849-42.005a5.874 5.874 0 017.958-2.331 5.87 5.87 0 012.354 7.95l-22.831 41.997a5.87 5.87 0 01-5.169 3.062h-.027z" fill="#BBBDBF"/></g><g filter="url(#filter3_ddddd)"><path d="M423.514 356.676c-84.389-72.61-211.739-72.61-296.227 0a1.184 1.184 0 01-1.944-.997c.025-.312.174-.602.412-.805a229.745 229.745 0 01299.281 0 1.166 1.166 0 01.414.802 1.178 1.178 0 01-1.936 1z" fill="#44D3F2"/></g><g filter="url(#filter4_ddddd)"><path d="M93.135 348.281a1.15 1.15 0 01-.838-.333 1.197 1.197 0 010-1.666 258.97 258.97 0 01366.225 0 1.172 1.172 0 01.391.846 1.185 1.185 0 01-.345.866 1.185 1.185 0 01-1.329.237 1.19 1.19 0 01-.383-.283 256.617 256.617 0 00-362.902 0 1.104 1.104 0 01-.82.333z" fill="#44D3F2"/></g><g filter="url(#filter5_ddddd)"><path d="M226.023 233.901a1.19 1.19 0 01-.922-.449 1.178 1.178 0 01-.222-1.001l14.23-61.351-47.571-41.268a1.173 1.173 0 01-.356-1.257 1.178 1.178 0 011.022-.814l62.747-5.404 24.561-58.01a1.23 1.23 0 011.708-.467c.19.113.347.274.453.467l24.561 58.01 62.747 5.404a1.183 1.183 0 011.015.815 1.19 1.19 0 01-.34 1.256L322.067 171.1l14.23 61.351a1.196 1.196 0 01-.46 1.225 1.148 1.148 0 01-1.288.045l-53.957-32.495-53.966 32.495a1.13 1.13 0 01-.603.18zm54.569-35.215c.212.003.42.058.604.162l52.174 31.432-13.762-59.343a1.16 1.16 0 01.378-1.143l46.032-39.962-60.694-5.25a1.208 1.208 0 01-.982-.712l-23.75-56.082-23.776 56.118a1.196 1.196 0 01-.982.712l-60.667 5.214 46.014 39.926a1.147 1.147 0 01.369 1.143l-13.753 59.343 52.237-31.432c.174-.083.365-.126.558-.126z" fill="#F858A5"/></g><g filter="url(#filter6_ddddd)"><path d="M443.68 282.679a1.188 1.188 0 01-1.009-.54l-24.876-39.79-46.833 3.386a1.229 1.229 0 01-1.134-.639 1.213 1.213 0 01.153-1.288l30.153-35.962-17.68-43.483a1.138 1.138 0 01.253-1.252 1.208 1.208 0 011.278-.279l43.51 17.58 35.89-30.261a1.189 1.189 0 011.288-.135 1.158 1.158 0 01.631 1.126l-3.261 46.833 39.863 24.776a1.192 1.192 0 01.531 1.18 1.162 1.162 0 01-.901.964l-45.518 11.357-11.258 45.563a1.152 1.152 0 01-.954.9l-.126-.036zm-25.263-42.735a1.187 1.187 0 01.999.559l23.831 38.033 10.763-43.554a1.126 1.126 0 01.846-.847l43.528-10.861-38.106-23.696a1.155 1.155 0 01-.549-1.072l3.116-44.77-34.305 28.928a1.177 1.177 0 01-1.198.18l-41.609-16.788 16.923 41.574a1.15 1.15 0 01-.199 1.179l-28.82 34.387 44.762-3.252h.018z" fill="#F858A5"/></g><g filter="url(#filter7_ddddd)"><path d="M117.506 282.679h-.18a1.152 1.152 0 01-.964-.901l-11.249-45.563-45.536-11.339a1.177 1.177 0 01-.78-1.633c.095-.21.25-.388.447-.51l39.853-24.777-3.26-46.833a1.162 1.162 0 01.639-1.125 1.217 1.217 0 011.288.135l35.881 30.261 43.519-17.58a1.179 1.179 0 011.522 1.531l-17.68 43.482 29.974 35.747a1.199 1.199 0 01.513.972 1.168 1.168 0 01-1.171 1.171h-.153l-46.833-3.386-24.885 39.79a1.178 1.178 0 01-.945.558zm-54.66-59.442l43.564 10.898a1.132 1.132 0 01.847.847l10.753 43.554 23.795-38.034a1.142 1.142 0 011.081-.558l44.743 3.251-28.82-34.386a1.142 1.142 0 01-.189-1.18l16.896-41.573-41.637 16.788a1.215 1.215 0 01-1.198-.18l-34.305-28.929 3.116 44.771a1.155 1.155 0 01-.549 1.072l-38.097 23.659z" fill="#F858A5"/></g><g filter="url(#filter8_ddddd)"><path d="M139.049 121.979a1.187 1.187 0 01-1.036-.613l-22.858-41.97a1.178 1.178 0 01.904-1.731 1.163 1.163 0 011.149.606l22.877 41.997a1.159 1.159 0 01.088.887 1.17 1.17 0 01-.566.689.975.975 0 01-.558.135z" fill="#fff"/></g><g filter="url(#filter9_ddddd)"><path d="M178.172 100.688a1.147 1.147 0 01-1.026-.612l-36.278-66.647a1.179 1.179 0 01-.101-.893 1.163 1.163 0 01.56-.701 1.2 1.2 0 011.595.468l36.277 66.647a1.19 1.19 0 01-1.027 1.738z" fill="#fff"/></g><g filter="url(#filter10_ddddd)"><path d="M217.296 79.397a1.214 1.214 0 01-1.036-.604L193.411 36.78a1.178 1.178 0 01.468-1.594 1.16 1.16 0 01.892-.1 1.149 1.149 0 01.694.568l22.867 42.006a1.16 1.16 0 01-.478 1.585c-.169.1-.362.153-.558.153z" fill="#fff"/></g><g filter="url(#filter11_ddddd)"><path d="M424.424 121.979a.974.974 0 01-.558-.153 1.167 1.167 0 01-.565-.69 1.161 1.161 0 01.096-.886l22.859-41.997a1.14 1.14 0 01.697-.573 1.152 1.152 0 01.897.105 1.167 1.167 0 01.56.701 1.172 1.172 0 01-.101.893l-22.858 41.987c-.101.185-.249.34-.429.448a1.188 1.188 0 01-.598.165z" fill="#fff"/></g><g filter="url(#filter12_ddddd)"><path d="M385.3 100.688a1.164 1.164 0 01-.567-.153 1.164 1.164 0 01-.564-.696 1.147 1.147 0 01.105-.89l36.277-66.646a1.173 1.173 0 012.151.235 1.166 1.166 0 01-.097.89l-36.287 66.647a1.129 1.129 0 01-1.018.613z" fill="#fff"/></g><g filter="url(#filter13_ddddd)"><path d="M346.177 79.397a1.1 1.1 0 01-.559-.144 1.146 1.146 0 01-.569-.694 1.157 1.157 0 01.101-.892l22.849-42.005a1.173 1.173 0 012.151.235 1.177 1.177 0 01-.098.89l-22.849 42.006a1.193 1.193 0 01-1.026.604z" fill="#fff"/></g><defs><filter id="filter0_dd" x="0" y="5.25" width="561.17" height="336.123" filterUnits="userSpaceOnUse" color-interpolation-filters="sRGB"><feFlood flood-opacity="0" result="BackgroundImageFix"/><feColorMatrix in="SourceAlpha" values="0 0 0 0 0 0 0 0 0 0 0 0 0 0 0 0 0 0 127 0" result="hardAlpha"/><feOffset/><feGaussianBlur stdDeviation="27"/><feComposite in2="hardAlpha" operator="out"/><feColorMatrix values="0 0 0 0 0.776471 0 0 0 0 0.152941 0 0 0 0 0.345098 0 0 0 1 0"/><feBlend in2="BackgroundImageFix" result="effect1_dropShadow"/><feColorMatrix in="SourceAlpha" values="0 0 0 0 0 0 0 0 0 0 0 0 0 0 0 0 0 0 127 0" result="hardAlpha"/><feOffset dy="10"/><feGaussianBlur stdDeviation="3"/><feComposite in2="hardAlpha" operator="out"/><feColorMatrix values="0 0 0 0 0 0 0 0 0 0 0 0 0 0 0 0 0 0 0.23 0"/><feBlend in2="effect1_dropShadow" result="effect2_dropShadow"/><feBlend in="SourceGraphic" in2="effect2_dropShadow" result="shape"/></filter><filter id="filter1_dd" x="53.112" y="231.729" width="444.403" height="164.051" filterUnits="userSpaceOnUse" color-interpolation-filters="sRGB"><feFlood flood-opacity="0" result="BackgroundImageFix"/><feColorMatrix in="SourceAlpha" values="0 0 0 0 0 0 0 0 0 0 0 0 0 0 0 0 0 0 127 0" result="hardAlpha"/><feOffset/><feGaussianBlur stdDeviation="17"/><feComposite in2="hardAlpha" operator="out"/><feColorMatrix values="0 0 0 0 0.0941176 0 0 0 0 0.65098 0 0 0 0 0.866667 0 0 0 1 0"/><feBlend in2="BackgroundImageFix" result="effect1_dropShadow"/><feColorMatrix in="SourceAlpha" values="0 0 0 0 0 0 0 0 0 0 0 0 0 0 0 0 0 0 127 0" result="hardAlpha"/><feOffset dy="8"/><feGaussianBlur stdDeviation="2"/><feComposite in2="hardAlpha" operator="out"/><feColorMatrix values="0 0 0 0 0 0 0 0 0 0 0 0 0 0 0 0 0 0 0.18 0"/><feBlend in2="effect1_dropShadow" result="effect2_dropShadow"/><feBlend in="SourceGraphic" in2="effect2_dropShadow" result="shape"/></filter><filter id="filter2_dd" x="83.316" y="0" width="396.767" height="153.672" filterUnits="userSpaceOnUse" color-interpolation-filters="sRGB"><feFlood flood-opacity="0" result="BackgroundImageFix"/><feColorMatrix in="SourceAlpha" values="0 0 0 0 0 0 0 0 0 0 0 0 0 0 0 0 0 0 127 0" result="hardAlpha"/><feOffset/><feGaussianBlur stdDeviation="13.5"/><feComposite in2="hardAlpha" operator="out"/><feColorMatrix values="0 0 0 0 1 0 0 0 0 1 0 0 0 0 1 0 0 0 1 0"/><feBlend in2="BackgroundImageFix" result="effect1_dropShadow"/><feColorMatrix in="SourceAlpha" values="0 0 0 0 0 0 0 0 0 0 0 0 0 0 0 0 0 0 127 0" result="hardAlpha"/><feOffset dy="12"/><feGaussianBlur stdDeviation="3"/><feComposite in2="hardAlpha" operator="out"/><feColorMatrix values="0 0 0 0 0 0 0 0 0 0 0 0 0 0 0 0 0 0 0.3 0"/><feBlend in2="effect1_dropShadow" result="effect2_dropShadow"/><feBlend in="SourceGraphic" in2="effect2_dropShadow" result="shape"/></filter><filter id="filter3_ddddd" x="119.339" y="293.457" width="312.115" height="69.5" filterUnits="userSpaceOnUse" color-interpolation-filters="sRGB"><feFlood flood-opacity="0" result="BackgroundImageFix"/><feColorMatrix in="SourceAlpha" values="0 0 0 0 0 0 0 0 0 0 0 0 0 0 0 0 0 0 127 0" result="hardAlpha"/><feOffset/><feGaussianBlur stdDeviation="1"/><feComposite in2="hardAlpha" operator="out"/><feColorMatrix values="0 0 0 0 0.196078 0 0 0 0 0.803922 0 0 0 0 0.937255 0 0 0 1 0"/><feBlend in2="BackgroundImageFix" result="effect1_dropShadow"/><feColorMatrix in="SourceAlpha" values="0 0 0 0 0 0 0 0 0 0 0 0 0 0 0 0 0 0 127 0" result="hardAlpha"/><feOffset/><feGaussianBlur stdDeviation="2"/><feComposite in2="hardAlpha" operator="out"/><feColorMatrix values="0 0 0 0 0.196078 0 0 0 0 0.803922 0 0 0 0 0.937255 0 0 0 1 0"/><feBlend in2="effect1_dropShadow" result="effect2_dropShadow"/><feColorMatrix in="SourceAlpha" values="0 0 0 0 0 0 0 0 0 0 0 0 0 0 0 0 0 0 127 0" result="hardAlpha"/><feOffset/><feGaussianBlur stdDeviation="3"/><feComposite in2="hardAlpha" operator="out"/><feColorMatrix values="0 0 0 0 0.196078 0 0 0 0 0.803922 0 0 0 0 0.937255 0 0 0 1 0"/><feBlend in2="effect2_dropShadow" result="effect3_dropShadow"/><feColorMatrix in="SourceAlpha" values="0 0 0 0 0 0 0 0 0 0 0 0 0 0 0 0 0 0 127 0" result="hardAlpha"/><feOffset/><feGaussianBlur stdDeviation="2"/><feComposite in2="hardAlpha" operator="out"/><feColorMatrix values="0 0 0 0 0.196078 0 0 0 0 0.803922 0 0 0 0 0.937255 0 0 0 1 0"/><feBlend in2="effect3_dropShadow" result="effect4_dropShadow"/><feColorMatrix in="SourceAlpha" values="0 0 0 0 0 0 0 0 0 0 0 0 0 0 0 0 0 0 127 0" result="hardAlpha"/><feOffset/><feGaussianBlur stdDeviation="1.5"/><feComposite in2="hardAlpha" operator="out"/><feColorMatrix values="0 0 0 0 0.196078 0 0 0 0 0.803922 0 0 0 0 0.937255 0 0 0 1 0"/><feBlend in2="effect4_dropShadow" result="effect5_dropShadow"/><feBlend in="SourceGraphic" in2="effect5_dropShadow" result="shape"/></filter><filter id="filter4_ddddd" x="85.96" y="264.438" width="378.953" height="89.901" filterUnits="userSpaceOnUse" color-interpolation-filters="sRGB"><feFlood flood-opacity="0" result="BackgroundImageFix"/><feColorMatrix in="SourceAlpha" values="0 0 0 0 0 0 0 0 0 0 0 0 0 0 0 0 0 0 127 0" result="hardAlpha"/><feOffset/><feGaussianBlur stdDeviation="1"/><feComposite in2="hardAlpha" operator="out"/><feColorMatrix values="0 0 0 0 0.196078 0 0 0 0 0.803922 0 0 0 0 0.937255 0 0 0 1 0"/><feBlend in2="BackgroundImageFix" result="effect1_dropShadow"/><feColorMatrix in="SourceAlpha" values="0 0 0 0 0 0 0 0 0 0 0 0 0 0 0 0 0 0 127 0" result="hardAlpha"/><feOffset/><feGaussianBlur stdDeviation="2"/><feComposite in2="hardAlpha" operator="out"/><feColorMatrix values="0 0 0 0 0.196078 0 0 0 0 0.803922 0 0 0 0 0.937255 0 0 0 1 0"/><feBlend in2="effect1_dropShadow" result="effect2_dropShadow"/><feColorMatrix in="SourceAlpha" values="0 0 0 0 0 0 0 0 0 0 0 0 0 0 0 0 0 0 127 0" result="hardAlpha"/><feOffset/><feGaussianBlur stdDeviation="3"/><feComposite in2="hardAlpha" operator="out"/><feColorMatrix values="0 0 0 0 0.196078 0 0 0 0 0.803922 0 0 0 0 0.937255 0 0 0 1 0"/><feBlend in2="effect2_dropShadow" result="effect3_dropShadow"/><feColorMatrix in="SourceAlpha" values="0 0 0 0 0 0 0 0 0 0 0 0 0 0 0 0 0 0 127 0" result="hardAlpha"/><feOffset/><feGaussianBlur stdDeviation="2"/><feComposite in2="hardAlpha" operator="out"/><feColorMatrix values="0 0 0 0 0.196078 0 0 0 0 0.803922 0 0 0 0 0.937255 0 0 0 1 0"/><feBlend in2="effect3_dropShadow" result="effect4_dropShadow"/><feColorMatrix in="SourceAlpha" values="0 0 0 0 0 0 0 0 0 0 0 0 0 0 0 0 0 0 127 0" result="hardAlpha"/><feOffset/><feGaussianBlur stdDeviation="1.5"/><feComposite in2="hardAlpha" operator="out"/><feColorMatrix values="0 0 0 0 0.196078 0 0 0 0 0.803922 0 0 0 0 0.937255 0 0 0 1 0"/><feBlend in2="effect4_dropShadow" result="effect5_dropShadow"/><feBlend in="SourceGraphic" in2="effect5_dropShadow" result="shape"/></filter><filter id="filter5_ddddd" x="185.125" y="57.709" width="190.929" height="182.192" filterUnits="userSpaceOnUse" color-interpolation-filters="sRGB"><feFlood flood-opacity="0" result="BackgroundImageFix"/><feColorMatrix in="SourceAlpha" values="0 0 0 0 0 0 0 0 0 0 0 0 0 0 0 0 0 0 127 0" result="hardAlpha"/><feOffset/><feGaussianBlur stdDeviation="1"/><feComposite in2="hardAlpha" operator="out"/><feColorMatrix values="0 0 0 0 0.937255 0 0 0 0 0.196078 0 0 0 0 0.552941 0 0 0 1 0"/><feBlend in2="BackgroundImageFix" result="effect1_dropShadow"/><feColorMatrix in="SourceAlpha" values="0 0 0 0 0 0 0 0 0 0 0 0 0 0 0 0 0 0 127 0" result="hardAlpha"/><feOffset/><feGaussianBlur stdDeviation="2"/><feComposite in2="hardAlpha" operator="out"/><feColorMatrix values="0 0 0 0 0.937255 0 0 0 0 0.196078 0 0 0 0 0.552941 0 0 0 1 0"/><feBlend in2="effect1_dropShadow" result="effect2_dropShadow"/><feColorMatrix in="SourceAlpha" values="0 0 0 0 0 0 0 0 0 0 0 0 0 0 0 0 0 0 127 0" result="hardAlpha"/><feOffset/><feGaussianBlur stdDeviation="3"/><feComposite in2="hardAlpha" operator="out"/><feColorMatrix values="0 0 0 0 0.937255 0 0 0 0 0.196078 0 0 0 0 0.552941 0 0 0 1 0"/><feBlend in2="effect2_dropShadow" result="effect3_dropShadow"/><feColorMatrix in="SourceAlpha" values="0 0 0 0 0 0 0 0 0 0 0 0 0 0 0 0 0 0 127 0" result="hardAlpha"/><feOffset/><feGaussianBlur stdDeviation="2"/><feComposite in2="hardAlpha" operator="out"/><feColorMatrix values="0 0 0 0 0.937255 0 0 0 0 0.196078 0 0 0 0 0.552941 0 0 0 1 0"/><feBlend in2="effect3_dropShadow" result="effect4_dropShadow"/><feColorMatrix in="SourceAlpha" values="0 0 0 0 0 0 0 0 0 0 0 0 0 0 0 0 0 0 127 0" result="hardAlpha"/><feOffset/><feGaussianBlur stdDeviation="1.5"/><feComposite in2="hardAlpha" operator="out"/><feColorMatrix values="0 0 0 0 0.937255 0 0 0 0 0.196078 0 0 0 0 0.552941 0 0 0 1 0"/><feBlend in2="effect4_dropShadow" result="effect5_dropShadow"/><feBlend in="SourceGraphic" in2="effect5_dropShadow" result="shape"/></filter><filter id="filter6_ddddd" x="363.709" y="143.886" width="144.741" height="144.829" filterUnits="userSpaceOnUse" color-interpolation-filters="sRGB"><feFlood flood-opacity="0" result="BackgroundImageFix"/><feColorMatrix in="SourceAlpha" values="0 0 0 0 0 0 0 0 0 0 0 0 0 0 0 0 0 0 127 0" result="hardAlpha"/><feOffset/><feGaussianBlur stdDeviation="1"/><feComposite in2="hardAlpha" operator="out"/><feColorMatrix values="0 0 0 0 0.937255 0 0 0 0 0.196078 0 0 0 0 0.552941 0 0 0 1 0"/><feBlend in2="BackgroundImageFix" result="effect1_dropShadow"/><feColorMatrix in="SourceAlpha" values="0 0 0 0 0 0 0 0 0 0 0 0 0 0 0 0 0 0 127 0" result="hardAlpha"/><feOffset/><feGaussianBlur stdDeviation="2"/><feComposite in2="hardAlpha" operator="out"/><feColorMatrix values="0 0 0 0 0.937255 0 0 0 0 0.196078 0 0 0 0 0.552941 0 0 0 1 0"/><feBlend in2="effect1_dropShadow" result="effect2_dropShadow"/><feColorMatrix in="SourceAlpha" values="0 0 0 0 0 0 0 0 0 0 0 0 0 0 0 0 0 0 127 0" result="hardAlpha"/><feOffset/><feGaussianBlur stdDeviation="3"/><feComposite in2="hardAlpha" operator="out"/><feColorMatrix values="0 0 0 0 0.937255 0 0 0 0 0.196078 0 0 0 0 0.552941 0 0 0 1 0"/><feBlend in2="effect2_dropShadow" result="effect3_dropShadow"/><feColorMatrix in="SourceAlpha" values="0 0 0 0 0 0 0 0 0 0 0 0 0 0 0 0 0 0 127 0" result="hardAlpha"/><feOffset/><feGaussianBlur stdDeviation="2"/><feComposite in2="hardAlpha" operator="out"/><feColorMatrix values="0 0 0 0 0.937255 0 0 0 0 0.196078 0 0 0 0 0.552941 0 0 0 1 0"/><feBlend in2="effect3_dropShadow" result="effect4_dropShadow"/><feColorMatrix in="SourceAlpha" values="0 0 0 0 0 0 0 0 0 0 0 0 0 0 0 0 0 0 127 0" result="hardAlpha"/><feOffset/><feGaussianBlur stdDeviation="1.5"/><feComposite in2="hardAlpha" operator="out"/><feColorMatrix values="0 0 0 0 0.937255 0 0 0 0 0.196078 0 0 0 0 0.552941 0 0 0 1 0"/><feBlend in2="effect4_dropShadow" result="effect5_dropShadow"/><feBlend in="SourceGraphic" in2="effect5_dropShadow" result="shape"/></filter><filter id="filter7_ddddd" x="52.689" y="143.873" width="144.804" height="144.806" filterUnits="userSpaceOnUse" color-interpolation-filters="sRGB"><feFlood flood-opacity="0" result="BackgroundImageFix"/><feColorMatrix in="SourceAlpha" values="0 0 0 0 0 0 0 0 0 0 0 0 0 0 0 0 0 0 127 0" result="hardAlpha"/><feOffset/><feGaussianBlur stdDeviation="1"/><feComposite in2="hardAlpha" operator="out"/><feColorMatrix values="0 0 0 0 0.937255 0 0 0 0 0.196078 0 0 0 0 0.552941 0 0 0 1 0"/><feBlend in2="BackgroundImageFix" result="effect1_dropShadow"/><feColorMatrix in="SourceAlpha" values="0 0 0 0 0 0 0 0 0 0 0 0 0 0 0 0 0 0 127 0" result="hardAlpha"/><feOffset/><feGaussianBlur stdDeviation="2"/><feComposite in2="hardAlpha" operator="out"/><feColorMatrix values="0 0 0 0 0.937255 0 0 0 0 0.196078 0 0 0 0 0.552941 0 0 0 1 0"/><feBlend in2="effect1_dropShadow" result="effect2_dropShadow"/><feColorMatrix in="SourceAlpha" values="0 0 0 0 0 0 0 0 0 0 0 0 0 0 0 0 0 0 127 0" result="hardAlpha"/><feOffset/><feGaussianBlur stdDeviation="3"/><feComposite in2="hardAlpha" operator="out"/><feColorMatrix values="0 0 0 0 0.937255 0 0 0 0 0.196078 0 0 0 0 0.552941 0 0 0 1 0"/><feBlend in2="effect2_dropShadow" result="effect3_dropShadow"/><feColorMatrix in="SourceAlpha" values="0 0 0 0 0 0 0 0 0 0 0 0 0 0 0 0 0 0 127 0" result="hardAlpha"/><feOffset/><feGaussianBlur stdDeviation="2"/><feComposite in2="hardAlpha" operator="out"/><feColorMatrix values="0 0 0 0 0.937255 0 0 0 0 0.196078 0 0 0 0 0.552941 0 0 0 1 0"/><feBlend in2="effect3_dropShadow" result="effect4_dropShadow"/><feColorMatrix in="SourceAlpha" values="0 0 0 0 0 0 0 0 0 0 0 0 0 0 0 0 0 0 127 0" result="hardAlpha"/><feOffset/><feGaussianBlur stdDeviation="1.5"/><feComposite in2="hardAlpha" operator="out"/><feColorMatrix values="0 0 0 0 0.937255 0 0 0 0 0.196078 0 0 0 0 0.552941 0 0 0 1 0"/><feBlend in2="effect4_dropShadow" result="effect5_dropShadow"/><feBlend in="SourceGraphic" in2="effect5_dropShadow" result="shape"/></filter><filter id="filter8_ddddd" x="109.013" y="71.658" width="37.21" height="56.322" filterUnits="userSpaceOnUse" color-interpolation-filters="sRGB"><feFlood flood-opacity="0" result="BackgroundImageFix"/><feColorMatrix in="SourceAlpha" values="0 0 0 0 0 0 0 0 0 0 0 0 0 0 0 0 0 0 127 0" result="hardAlpha"/><feOffset/><feGaussianBlur stdDeviation="1"/><feComposite in2="hardAlpha" operator="out"/><feColorMatrix values="0 0 0 0 1 0 0 0 0 1 0 0 0 0 1 0 0 0 1 0"/><feBlend in2="BackgroundImageFix" result="effect1_dropShadow"/><feColorMatrix in="SourceAlpha" values="0 0 0 0 0 0 0 0 0 0 0 0 0 0 0 0 0 0 127 0" result="hardAlpha"/><feOffset/><feGaussianBlur stdDeviation="2"/><feComposite in2="hardAlpha" operator="out"/><feColorMatrix values="0 0 0 0 1 0 0 0 0 1 0 0 0 0 1 0 0 0 1 0"/><feBlend in2="effect1_dropShadow" result="effect2_dropShadow"/><feColorMatrix in="SourceAlpha" values="0 0 0 0 0 0 0 0 0 0 0 0 0 0 0 0 0 0 127 0" result="hardAlpha"/><feOffset/><feGaussianBlur stdDeviation="3"/><feComposite in2="hardAlpha" operator="out"/><feColorMatrix values="0 0 0 0 1 0 0 0 0 1 0 0 0 0 1 0 0 0 1 0"/><feBlend in2="effect2_dropShadow" result="effect3_dropShadow"/><feColorMatrix in="SourceAlpha" values="0 0 0 0 0 0 0 0 0 0 0 0 0 0 0 0 0 0 127 0" result="hardAlpha"/><feOffset/><feGaussianBlur stdDeviation="2"/><feComposite in2="hardAlpha" operator="out"/><feColorMatrix values="0 0 0 0 1 0 0 0 0 1 0 0 0 0 1 0 0 0 1 0"/><feBlend in2="effect3_dropShadow" result="effect4_dropShadow"/><feColorMatrix in="SourceAlpha" values="0 0 0 0 0 0 0 0 0 0 0 0 0 0 0 0 0 0 127 0" result="hardAlpha"/><feOffset/><feGaussianBlur stdDeviation="1.5"/><feComposite in2="hardAlpha" operator="out"/><feColorMatrix values="0 0 0 0 1 0 0 0 0 1 0 0 0 0 1 0 0 0 1 0"/><feBlend in2="effect4_dropShadow" result="effect5_dropShadow"/><feBlend in="SourceGraphic" in2="effect5_dropShadow" result="shape"/></filter><filter id="filter9_ddddd" x="134.721" y="25.699" width="50.613" height="80.989" filterUnits="userSpaceOnUse" color-interpolation-filters="sRGB"><feFlood flood-opacity="0" result="BackgroundImageFix"/><feColorMatrix in="SourceAlpha" values="0 0 0 0 0 0 0 0 0 0 0 0 0 0 0 0 0 0 127 0" result="hardAlpha"/><feOffset/><feGaussianBlur stdDeviation="1"/><feComposite in2="hardAlpha" operator="out"/><feColorMatrix values="0 0 0 0 1 0 0 0 0 1 0 0 0 0 1 0 0 0 1 0"/><feBlend in2="BackgroundImageFix" result="effect1_dropShadow"/><feColorMatrix in="SourceAlpha" values="0 0 0 0 0 0 0 0 0 0 0 0 0 0 0 0 0 0 127 0" result="hardAlpha"/><feOffset/><feGaussianBlur stdDeviation="2"/><feComposite in2="hardAlpha" operator="out"/><feColorMatrix values="0 0 0 0 1 0 0 0 0 1 0 0 0 0 1 0 0 0 1 0"/><feBlend in2="effect1_dropShadow" result="effect2_dropShadow"/><feColorMatrix in="SourceAlpha" values="0 0 0 0 0 0 0 0 0 0 0 0 0 0 0 0 0 0 127 0" result="hardAlpha"/><feOffset/><feGaussianBlur stdDeviation="3"/><feComposite in2="hardAlpha" operator="out"/><feColorMatrix values="0 0 0 0 1 0 0 0 0 1 0 0 0 0 1 0 0 0 1 0"/><feBlend in2="effect2_dropShadow" result="effect3_dropShadow"/><feColorMatrix in="SourceAlpha" values="0 0 0 0 0 0 0 0 0 0 0 0 0 0 0 0 0 0 127 0" result="hardAlpha"/><feOffset/><feGaussianBlur stdDeviation="2"/><feComposite in2="hardAlpha" operator="out"/><feColorMatrix values="0 0 0 0 1 0 0 0 0 1 0 0 0 0 1 0 0 0 1 0"/><feBlend in2="effect3_dropShadow" result="effect4_dropShadow"/><feColorMatrix in="SourceAlpha" values="0 0 0 0 0 0 0 0 0 0 0 0 0 0 0 0 0 0 127 0" result="hardAlpha"/><feOffset/><feGaussianBlur stdDeviation="1.5"/><feComposite in2="hardAlpha" operator="out"/><feColorMatrix values="0 0 0 0 1 0 0 0 0 1 0 0 0 0 1 0 0 0 1 0"/><feBlend in2="effect4_dropShadow" result="effect5_dropShadow"/><feBlend in="SourceGraphic" in2="effect5_dropShadow" result="shape"/></filter><filter id="filter10_ddddd" x="187.269" y="29.037" width="37.205" height="56.36" filterUnits="userSpaceOnUse" color-interpolation-filters="sRGB"><feFlood flood-opacity="0" result="BackgroundImageFix"/><feColorMatrix in="SourceAlpha" values="0 0 0 0 0 0 0 0 0 0 0 0 0 0 0 0 0 0 127 0" result="hardAlpha"/><feOffset/><feGaussianBlur stdDeviation="1"/><feComposite in2="hardAlpha" operator="out"/><feColorMatrix values="0 0 0 0 1 0 0 0 0 1 0 0 0 0 1 0 0 0 1 0"/><feBlend in2="BackgroundImageFix" result="effect1_dropShadow"/><feColorMatrix in="SourceAlpha" values="0 0 0 0 0 0 0 0 0 0 0 0 0 0 0 0 0 0 127 0" result="hardAlpha"/><feOffset/><feGaussianBlur stdDeviation="2"/><feComposite in2="hardAlpha" operator="out"/><feColorMatrix values="0 0 0 0 1 0 0 0 0 1 0 0 0 0 1 0 0 0 1 0"/><feBlend in2="effect1_dropShadow" result="effect2_dropShadow"/><feColorMatrix in="SourceAlpha" values="0 0 0 0 0 0 0 0 0 0 0 0 0 0 0 0 0 0 127 0" result="hardAlpha"/><feOffset/><feGaussianBlur stdDeviation="3"/><feComposite in2="hardAlpha" operator="out"/><feColorMatrix values="0 0 0 0 1 0 0 0 0 1 0 0 0 0 1 0 0 0 1 0"/><feBlend in2="effect2_dropShadow" result="effect3_dropShadow"/><feColorMatrix in="SourceAlpha" values="0 0 0 0 0 0 0 0 0 0 0 0 0 0 0 0 0 0 127 0" result="hardAlpha"/><feOffset/><feGaussianBlur stdDeviation="2"/><feComposite in2="hardAlpha" operator="out"/><feColorMatrix values="0 0 0 0 1 0 0 0 0 1 0 0 0 0 1 0 0 0 1 0"/><feBlend in2="effect3_dropShadow" result="effect4_dropShadow"/><feColorMatrix in="SourceAlpha" values="0 0 0 0 0 0 0 0 0 0 0 0 0 0 0 0 0 0 127 0" result="hardAlpha"/><feOffset/><feGaussianBlur stdDeviation="1.5"/><feComposite in2="hardAlpha" operator="out"/><feColorMatrix values="0 0 0 0 1 0 0 0 0 1 0 0 0 0 1 0 0 0 1 0"/><feBlend in2="effect4_dropShadow" result="effect5_dropShadow"/><feBlend in="SourceGraphic" in2="effect5_dropShadow" result="shape"/></filter><filter id="filter11_ddddd" x="417.253" y="71.633" width="37.203" height="56.346" filterUnits="userSpaceOnUse" color-interpolation-filters="sRGB"><feFlood flood-opacity="0" result="BackgroundImageFix"/><feColorMatrix in="SourceAlpha" values="0 0 0 0 0 0 0 0 0 0 0 0 0 0 0 0 0 0 127 0" result="hardAlpha"/><feOffset/><feGaussianBlur stdDeviation="1"/><feComposite in2="hardAlpha" operator="out"/><feColorMatrix values="0 0 0 0 1 0 0 0 0 1 0 0 0 0 1 0 0 0 1 0"/><feBlend in2="BackgroundImageFix" result="effect1_dropShadow"/><feColorMatrix in="SourceAlpha" values="0 0 0 0 0 0 0 0 0 0 0 0 0 0 0 0 0 0 127 0" result="hardAlpha"/><feOffset/><feGaussianBlur stdDeviation="2"/><feComposite in2="hardAlpha" operator="out"/><feColorMatrix values="0 0 0 0 1 0 0 0 0 1 0 0 0 0 1 0 0 0 1 0"/><feBlend in2="effect1_dropShadow" result="effect2_dropShadow"/><feColorMatrix in="SourceAlpha" values="0 0 0 0 0 0 0 0 0 0 0 0 0 0 0 0 0 0 127 0" result="hardAlpha"/><feOffset/><feGaussianBlur stdDeviation="3"/><feComposite in2="hardAlpha" operator="out"/><feColorMatrix values="0 0 0 0 1 0 0 0 0 1 0 0 0 0 1 0 0 0 1 0"/><feBlend in2="effect2_dropShadow" result="effect3_dropShadow"/><feColorMatrix in="SourceAlpha" values="0 0 0 0 0 0 0 0 0 0 0 0 0 0 0 0 0 0 127 0" result="hardAlpha"/><feOffset/><feGaussianBlur stdDeviation="2"/><feComposite in2="hardAlpha" operator="out"/><feColorMatrix values="0 0 0 0 1 0 0 0 0 1 0 0 0 0 1 0 0 0 1 0"/><feBlend in2="effect3_dropShadow" result="effect4_dropShadow"/><feColorMatrix in="SourceAlpha" values="0 0 0 0 0 0 0 0 0 0 0 0 0 0 0 0 0 0 127 0" result="hardAlpha"/><feOffset/><feGaussianBlur stdDeviation="1.5"/><feComposite in2="hardAlpha" operator="out"/><feColorMatrix values="0 0 0 0 1 0 0 0 0 1 0 0 0 0 1 0 0 0 1 0"/><feBlend in2="effect4_dropShadow" result="effect5_dropShadow"/><feBlend in="SourceGraphic" in2="effect5_dropShadow" result="shape"/></filter><filter id="filter12_ddddd" x="378.124" y="25.695" width="50.625" height="80.993" filterUnits="userSpaceOnUse" color-interpolation-filters="sRGB"><feFlood flood-opacity="0" result="BackgroundImageFix"/><feColorMatrix in="SourceAlpha" values="0 0 0 0 0 0 0 0 0 0 0 0 0 0 0 0 0 0 127 0" result="hardAlpha"/><feOffset/><feGaussianBlur stdDeviation="1"/><feComposite in2="hardAlpha" operator="out"/><feColorMatrix values="0 0 0 0 1 0 0 0 0 1 0 0 0 0 1 0 0 0 1 0"/><feBlend in2="BackgroundImageFix" result="effect1_dropShadow"/><feColorMatrix in="SourceAlpha" values="0 0 0 0 0 0 0 0 0 0 0 0 0 0 0 0 0 0 127 0" result="hardAlpha"/><feOffset/><feGaussianBlur stdDeviation="2"/><feComposite in2="hardAlpha" operator="out"/><feColorMatrix values="0 0 0 0 1 0 0 0 0 1 0 0 0 0 1 0 0 0 1 0"/><feBlend in2="effect1_dropShadow" result="effect2_dropShadow"/><feColorMatrix in="SourceAlpha" values="0 0 0 0 0 0 0 0 0 0 0 0 0 0 0 0 0 0 127 0" result="hardAlpha"/><feOffset/><feGaussianBlur stdDeviation="3"/><feComposite in2="hardAlpha" operator="out"/><feColorMatrix values="0 0 0 0 1 0 0 0 0 1 0 0 0 0 1 0 0 0 1 0"/><feBlend in2="effect2_dropShadow" result="effect3_dropShadow"/><feColorMatrix in="SourceAlpha" values="0 0 0 0 0 0 0 0 0 0 0 0 0 0 0 0 0 0 127 0" result="hardAlpha"/><feOffset/><feGaussianBlur stdDeviation="2"/><feComposite in2="hardAlpha" operator="out"/><feColorMatrix values="0 0 0 0 1 0 0 0 0 1 0 0 0 0 1 0 0 0 1 0"/><feBlend in2="effect3_dropShadow" result="effect4_dropShadow"/><feColorMatrix in="SourceAlpha" values="0 0 0 0 0 0 0 0 0 0 0 0 0 0 0 0 0 0 127 0" result="hardAlpha"/><feOffset/><feGaussianBlur stdDeviation="1.5"/><feComposite in2="hardAlpha" operator="out"/><feColorMatrix values="0 0 0 0 1 0 0 0 0 1 0 0 0 0 1 0 0 0 1 0"/><feBlend in2="effect4_dropShadow" result="effect5_dropShadow"/><feBlend in="SourceGraphic" in2="effect5_dropShadow" result="shape"/></filter><filter id="filter13_ddddd" x="339.002" y="29.054" width="37.195" height="56.343" filterUnits="userSpaceOnUse" color-interpolation-filters="sRGB"><feFlood flood-opacity="0" result="BackgroundImageFix"/><feColorMatrix in="SourceAlpha" values="0 0 0 0 0 0 0 0 0 0 0 0 0 0 0 0 0 0 127 0" result="hardAlpha"/><feOffset/><feGaussianBlur stdDeviation="1"/><feComposite in2="hardAlpha" operator="out"/><feColorMatrix values="0 0 0 0 1 0 0 0 0 1 0 0 0 0 1 0 0 0 1 0"/><feBlend in2="BackgroundImageFix" result="effect1_dropShadow"/><feColorMatrix in="SourceAlpha" values="0 0 0 0 0 0 0 0 0 0 0 0 0 0 0 0 0 0 127 0" result="hardAlpha"/><feOffset/><feGaussianBlur stdDeviation="2"/><feComposite in2="hardAlpha" operator="out"/><feColorMatrix values="0 0 0 0 1 0 0 0 0 1 0 0 0 0 1 0 0 0 1 0"/><feBlend in2="effect1_dropShadow" result="effect2_dropShadow"/><feColorMatrix in="SourceAlpha" values="0 0 0 0 0 0 0 0 0 0 0 0 0 0 0 0 0 0 127 0" result="hardAlpha"/><feOffset/><feGaussianBlur stdDeviation="3"/><feComposite in2="hardAlpha" operator="out"/><feColorMatrix values="0 0 0 0 1 0 0 0 0 1 0 0 0 0 1 0 0 0 1 0"/><feBlend in2="effect2_dropShadow" result="effect3_dropShadow"/><feColorMatrix in="SourceAlpha" values="0 0 0 0 0 0 0 0 0 0 0 0 0 0 0 0 0 0 127 0" result="hardAlpha"/><feOffset/><feGaussianBlur stdDeviation="2"/><feComposite in2="hardAlpha" operator="out"/><feColorMatrix values="0 0 0 0 1 0 0 0 0 1 0 0 0 0 1 0 0 0 1 0"/><feBlend in2="effect3_dropShadow" result="effect4_dropShadow"/><feColorMatrix in="SourceAlpha" values="0 0 0 0 0 0 0 0 0 0 0 0 0 0 0 0 0 0 127 0" result="hardAlpha"/><feOffset/><feGaussianBlur stdDeviation="1.5"/><feComposite in2="hardAlpha" operator="out"/><feColorMatrix values="0 0 0 0 1 0 0 0 0 1 0 0 0 0 1 0 0 0 1 0"/><feBlend in2="effect4_dropShadow" result="effect5_dropShadow"/><feBlend in="SourceGraphic" in2="effect5_dropShadow" result="shape"/></filter></defs></svg>