<svg width="148" height="148" viewBox="0 0 148 148" fill="none" xmlns="http://www.w3.org/2000/svg"><g filter="url(#filter0_dd)" fill="#fff"><path d="M54.313 67.015v2.047h1.874v-1.874h1.876v-2.813a2.816 2.816 0 00-2.813-2.813.938.938 0 01-.938-.937v-.938h.938c.517 0 .938.42.938.938v.938h1.874v-.938c0-1.22-.786-2.252-1.874-2.64v-2.047h-1.876v1.874h-1.874v2.813a2.816 2.816 0 002.812 2.813c.517 0 .938.42.938.937v.938h-.938a.938.938 0 01-.938-.938v-.938h-1.874v.938c0 1.22.786 2.252 1.874 2.64zm16.875-3.577h1.874v-3.75h1.876V46.562h-1.876v-3.75h-1.874v3.75h-1.876v13.126h1.876v3.75zm0-15h1.874v9.374h-1.874v-9.374zm-9.375 1.875h1.874v-1.876h1.876v-5.624h-1.876v-1.876h-1.874v1.876h-1.876v5.624h1.876v1.876zm0-5.626h1.874v1.876h-1.874v-1.876zm39.375.001v-3.75h-1.876v3.75h-1.874v15h1.874v3.75h1.876v-3.75h1.874v-15h-1.874zm0 13.124h-1.876v-11.25h1.876v11.25zm-11.25 1.876h1.874v-3.75h1.876v-7.5h-1.876v-3.75h-1.874v3.75h-1.876v7.5h1.876v3.75zm0-9.376h1.874v3.75h-1.874v-3.75zm-9.375 13.126h1.874v-1.876h1.876v-7.5h-1.876v-1.874h-1.874v1.874h-1.876v7.5h1.876v1.876zm0-7.5h1.874v3.75h-1.874v-3.75z"/><path d="M87.125 71.875h-.938v4.73c-1.302.108-2.57.438-3.75.98v-9.46a2.816 2.816 0 00-2.812-2.813H65.163c.254-.895.4-1.836.4-2.812 0-5.686-4.627-10.313-10.313-10.313-5.686 0-10.313 4.627-10.313 10.313 0 2.2.698 4.235 1.876 5.91v19.403a3.754 3.754 0 003.75 3.75h7.5v5.624h-3.75v1.876h20.624v-1.876h-3.75v-5.624h5.336c1.574 4.448 5.831 7.5 10.602 7.5 5.887 0 10.723-4.547 11.202-10.313h4.735v-.938c0-8.788-7.149-15.937-15.937-15.937zm-.938 6.63v6.813l-3.75-4.286v-1.314a9.299 9.299 0 013.75-1.213zm-6.562-11.317c.517 0 .938.42.938.937v15.938H48.686V70.448a10.265 10.265 0 006.563 2.364c3.998 0 7.463-2.292 9.174-5.626h15.201zM55.25 54.062c4.652 0 8.438 3.785 8.438 8.438 0 4.653-3.786 8.438-8.438 8.438-4.652 0-8.438-3.785-8.438-8.438 0-4.653 3.786-8.438 8.438-8.438zm-6.563 33.75v-1.874h31.876v1.874a1.877 1.877 0 01-1.876 1.876H50.564a1.877 1.877 0 01-1.876-1.876zm20.626 9.376h-9.376v-5.626h9.376v5.626zm9.225-5.626h.15a3.754 3.754 0 003.75-3.75V83.88l3.472 3.968-5.244 6.743a9.328 9.328 0 01-2.128-3.028zm8.587 5.626a9.354 9.354 0 01-4.98-1.443l5.438-6.995h8.87c-.472 4.73-4.475 8.438-9.328 8.438zm.938-10.313V73.781c7.008.463 12.629 6.085 13.094 13.094H88.063z"/><path d="M63.688 70.938h3.75v1.874h-3.75v-1.874zm5.625 0h7.5v1.874h-7.5v-1.874zm-5.625 3.75h13.124v1.874H63.688v-1.874zm0 3.75h1.874v1.874h-1.874v-1.874zm3.75 0h1.874v1.874h-1.874v-1.874zm3.75 0h5.624v1.874h-5.624v-1.874z"/></g><defs><filter id="filter0_dd" x=".938" y=".938" width="146.125" height="146.125" filterUnits="userSpaceOnUse" color-interpolation-filters="sRGB"><feFlood flood-opacity="0" result="BackgroundImageFix"/><feColorMatrix in="SourceAlpha" values="0 0 0 0 0 0 0 0 0 0 0 0 0 0 0 0 0 0 127 0" result="hardAlpha"/><feOffset dy="4"/><feGaussianBlur stdDeviation="22"/><feComposite in2="hardAlpha" operator="out"/><feColorMatrix values="0 0 0 0 1 0 0 0 0 1 0 0 0 0 1 0 0 0 0.25 0"/><feBlend in2="BackgroundImageFix" result="effect1_dropShadow"/><feColorMatrix in="SourceAlpha" values="0 0 0 0 0 0 0 0 0 0 0 0 0 0 0 0 0 0 127 0" result="hardAlpha"/><feOffset dy="1"/><feGaussianBlur stdDeviation="6.5"/><feComposite in2="hardAlpha" operator="out"/><feColorMatrix values="0 0 0 0 1 0 0 0 0 1 0 0 0 0 1 0 0 0 0.55 0"/><feBlend in2="effect1_dropShadow" result="effect2_dropShadow"/><feBlend in="SourceGraphic" in2="effect2_dropShadow" result="shape"/></filter></defs></svg>