<svg width="148" height="148" viewBox="0 0 148 148" fill="none" xmlns="http://www.w3.org/2000/svg"><g filter="url(#filter0_dd)" fill="#fff"><path d="M63.688 67.188c-7.238 0-13.126 5.887-13.126 13.124 0 7.238 5.888 13.126 13.126 13.126 7.237 0 13.124-5.888 13.124-13.126 0-7.237-5.887-13.124-13.124-13.124zm0 24.374c-6.204 0-11.25-5.046-11.25-11.25 0-6.203 5.046-11.25 11.25-11.25 6.203 0 11.25 5.047 11.25 11.25 0 6.204-5.047 11.25-11.25 11.25zm5.625-33.749h1.874v1.874h-1.874v-1.874zm3.75 0h1.874v1.874h-1.874v-1.874zM52.438 44.688h1.874v1.874h-1.874v-1.874zm3.75 0h1.874v1.874h-1.874v-1.874z"/><path d="M69.313 77.5h-1.876V85h-1.874v-5.625h-1.876V85h-1.874v-7.5h-1.876V85h-1.874v-9.375h-1.876v11.25h15V85h-1.874v-7.5z"/><path d="M94.076 85.938l-6.563-6.563h-5.076v-2.55l-2.443-.816a16.735 16.735 0 00-1.735-4.18l1.153-2.308-3.537-3.537v-2.546a2.816 2.816 0 002.813-2.813v-.938h5.236l2.813 2.813h3.285c.448 2.656 2.758 4.688 5.54 4.688a5.631 5.631 0 005.626-5.626c0-.97-.247-1.883-.681-2.68l2.281-2.282-1.326-1.325-2.127 2.127a5.598 5.598 0 00-3.772-1.465c-2.782 0-5.092 2.032-5.541 4.688h-2.509l-2.812-2.813h-6.013v-.937a2.816 2.816 0 00-2.813-2.813v-3.75a2.816 2.816 0 002.813-2.812v-.938h5.236l2.813 2.813h3.285c.448 2.656 2.758 4.688 5.54 4.688a5.631 5.631 0 005.626-5.626c0-.97-.247-1.883-.681-2.68l2.281-2.282-1.326-1.325-2.127 2.127a5.598 5.598 0 00-3.772-1.465c-2.782 0-5.092 2.032-5.541 4.688h-2.509l-2.812-2.813h-6.013v-.937a2.816 2.816 0 00-2.813-2.813H51.5a2.816 2.816 0 00-2.813 2.813v3.75a2.816 2.816 0 002.813 2.813v3.75a2.816 2.816 0 00-2.813 2.812v3.75a2.816 2.816 0 002.813 2.813v2.546l-3.537 3.537 1.153 2.307a16.735 16.735 0 00-1.735 4.181l-2.444.815V83.8l2.444.815a16.736 16.736 0 001.735 4.18l-1.153 2.308 4.933 4.933 2.307-1.153a16.735 16.735 0 004.181 1.735l.815 2.445h6.976l.815-2.444a16.702 16.702 0 004.18-1.736l2.31 1.154 4.931-4.933-1.153-2.307a16.735 16.735 0 001.735-4.181l2.445-.815V81.25h4.299l4.687 4.688h-7.112v13.124h18.75V85.939h-8.986zm1.487-28.126c.934 0 1.78.357 2.437.925l-2.438 2.437-1.212-1.212-1.325 1.326 2.537 2.538 3.519-3.519c.14.395.231.813.231 1.255a3.754 3.754 0 01-3.75 3.75 3.754 3.754 0 01-3.75-3.75 3.754 3.754 0 013.75-3.75zm0-13.124c.934 0 1.78.356 2.437.924l-2.438 2.437-1.212-1.212-1.325 1.326 2.537 2.538 3.519-3.519c.14.395.231.813.231 1.255a3.754 3.754 0 01-3.75 3.75 3.754 3.754 0 01-3.75-3.75 3.754 3.754 0 013.75-3.75zM74 64.828l-1.83.914a16.74 16.74 0 00-4.18-1.736l-.19-.569H74v1.39zM50.562 47.5v-3.75a.94.94 0 01.938-.938h24.375a.94.94 0 01.938.938v3.75a.94.94 0 01-.938.938H51.5a.939.939 0 01-.938-.938zm2.813 2.813H74v3.75H53.375v-3.75zm-2.813 10.312v-3.75a.94.94 0 01.938-.938h24.375a.94.94 0 01.938.938v3.75a.94.94 0 01-.938.938H51.5a.939.939 0 01-.938-.938zm9.013 2.813l-.19.568a16.736 16.736 0 00-4.18 1.735l-1.83-.914v-1.39h6.2zm20.987 19.011l-2.15.717-.117.513a14.88 14.88 0 01-1.9 4.576l-.28.446 1.016 2.033-3.021 3.021-2.033-1.015-.446.28a14.856 14.856 0 01-4.576 1.899l-.513.117-.718 2.151H61.55l-.717-2.15-.513-.117a14.878 14.878 0 01-4.576-1.9l-.446-.28-2.033 1.016-3.021-3.021 1.015-2.033-.28-.446a14.856 14.856 0 01-1.899-4.576l-.117-.513-2.15-.718v-4.274l2.15-.717.117-.513a14.878 14.878 0 011.9-4.576l.28-.446-1.016-2.033 3.021-3.021 2.033 1.015.446-.28a14.856 14.856 0 014.576-1.899l.513-.117.718-2.15h4.273l.717 2.15.513.117a14.88 14.88 0 014.576 1.9l.446.28 2.033-1.016 3.021 3.021-1.015 2.033.28.446a14.856 14.856 0 011.899 4.576l.117.513 2.151.718v4.273zm20.626 14.739h-15v-9.376h15v9.376z"/><path d="M88.063 93.438h11.25v1.874h-11.25v-1.874zm0-3.75h11.25v1.874h-11.25v-1.874z"/></g><defs><filter id="filter0_dd" x=".938" y=".938" width="146.125" height="146.125" filterUnits="userSpaceOnUse" color-interpolation-filters="sRGB"><feFlood flood-opacity="0" result="BackgroundImageFix"/><feColorMatrix in="SourceAlpha" values="0 0 0 0 0 0 0 0 0 0 0 0 0 0 0 0 0 0 127 0" result="hardAlpha"/><feOffset dy="4"/><feGaussianBlur stdDeviation="22"/><feComposite in2="hardAlpha" operator="out"/><feColorMatrix values="0 0 0 0 1 0 0 0 0 1 0 0 0 0 1 0 0 0 0.25 0"/><feBlend in2="BackgroundImageFix" result="effect1_dropShadow"/><feColorMatrix in="SourceAlpha" values="0 0 0 0 0 0 0 0 0 0 0 0 0 0 0 0 0 0 127 0" result="hardAlpha"/><feOffset dy="1"/><feGaussianBlur stdDeviation="6.5"/><feComposite in2="hardAlpha" operator="out"/><feColorMatrix values="0 0 0 0 1 0 0 0 0 1 0 0 0 0 1 0 0 0 0.55 0"/><feBlend in2="effect1_dropShadow" result="effect2_dropShadow"/><feBlend in="SourceGraphic" in2="effect2_dropShadow" result="shape"/></filter></defs></svg>