<svg width="407" height="539" viewBox="0 0 407 539" fill="none" xmlns="http://www.w3.org/2000/svg"><g filter="url(#filter0_dd)"><path d="M158.082 485c-18.688 0-30.696-3.824-32.881-11.341l-3.628-43.727a2.615 2.615 0 012.383-2.815 2.583 2.583 0 012.814 2.383l3.532 43.209c2.007 6.68 29.715 11.785 82.529-.196 40.276-9.119 52.516-17.124 55.691-22.235.786-1.263 1.039-2.433.765-3.574l-3.198-39.543a2.61 2.61 0 012.382-2.811 2.55 2.55 0 011.918.587 2.534 2.534 0 01.896 1.795l3.133 39.148c.542 2.135.066 4.675-1.489 7.147-5.462 8.782-24.754 16.82-58.966 24.572-21.8 4.962-40.97 7.401-55.881 7.401zm-3.124-52.713c-15.802 0-26.949-2.704-31.363-8.091-2.227-2.719-2.632-6.043-1.152-9.345a2.608 2.608 0 013.42-1.249 2.61 2.61 0 011.345 3.384c-.682 1.507-.548 2.71.426 3.907 5.837 7.121 33.95 9.861 81.897-1.012 44.606-10.099 54.351-18.852 56.185-23.167.596-1.438.495-2.737-.396-4.199a2.622 2.622 0 01-.395-2.029 2.615 2.615 0 014.862-.675c2.195 3.642 1.606 6.876.727 8.934-4.017 9.432-23.587 18.009-59.833 26.207-21.567 4.917-40.737 7.35-55.723 7.35v-.015z" fill="#B92146"/></g><g filter="url(#filter1_dd)"><path d="M149.829 469.895c-6.632 0-12.478-5.307-13.422-12.508-1.018-7.802 4.065-14.917 11.335-15.873 7.269-.956 14.015 4.634 15.039 12.428a14.748 14.748 0 01-2.493 10.423 12.6 12.6 0 01-10.459 5.551v-.021zm-.473-23.28a7.733 7.733 0 00-.938.06c-4.414.578-7.481 5.063-6.832 10.018.649 4.956 4.711 8.479 9.181 7.922a7.58 7.58 0 005.251-3.276 9.507 9.507 0 001.584-6.733c-.601-4.593-4.196-7.991-8.246-7.991zm54.326 20.549a15.261 15.261 0 01-14.098-9.419 15.255 15.255 0 01-.868-8.816 15.255 15.255 0 0111.988-11.991 15.264 15.264 0 0115.665 6.486 15.261 15.261 0 012.573 8.478 15.284 15.284 0 01-15.26 15.268v-.006zm0-25.314a10.045 10.045 0 00-9.848 12.004 10.037 10.037 0 007.893 7.888 10.042 10.042 0 0011.998-9.855 10.055 10.055 0 00-10.043-10.016v-.021zm49.967 9.334c-6.016 0-11.18-5.956-11.615-13.592-.217-3.675.676-7.216 2.502-9.977 1.983-2.996 4.825-4.741 7.993-4.926 3.139-.232 6.189 1.215 8.521 3.961 2.132 2.529 3.43 5.942 3.648 9.611.217 3.669-.673 7.21-2.499 9.976-1.959 2.948-4.875 4.747-7.999 4.926-.194.021-.375.021-.551.021zm-.596-23.295h-.229c-1.489.089-2.889 1.013-3.94 2.603-1.191 1.787-1.787 4.274-1.653 6.79.298 4.884 3.318 8.553 6.653 8.669 1.489-.089 2.895-1.012 3.949-2.609 1.191-1.786 1.787-4.267 1.653-6.781-.134-2.513-1.042-4.893-2.433-6.551-1.176-1.356-2.582-2.109-4-2.109v-.012zm-77.162-136.704c-2.21 0-3.982-.837-4.977-2.475-1.614-2.656-5.497-11.805-3.731-17.737.613-2.052 1.867-3.574 3.627-4.417a6.384 6.384 0 015.319-.154c4.765 1.971 7.907 9.357 10.126 15.569l.318.893c.923 2.317-.78 4.765-4.687 6.707-2.171 1.075-4.223 1.614-5.995 1.614zm-2.832-19.926c-.28.137-.629.396-.873 1.212-1.027 3.443 1.489 10.721 3.19 13.535.941.435 4.601-1.045 5.977-2.215l-.03-.075c-3.276-9.232-5.712-11.876-7.186-12.49a1.21 1.21 0 00-1.078.033zm8.621 13.434a.694.694 0 00.042.11l-.042-.11zm23.605-9.232c-2.207 0-3.982-.837-4.974-2.475-1.617-2.662-5.497-11.808-3.731-17.734.613-2.055 1.87-3.574 3.621-4.423a6.362 6.362 0 015.322-.152c4.765 1.972 7.91 9.354 10.125 15.567l.319.893c.923 2.317-.78 4.765-4.69 6.707-2.166 1.081-4.217 1.632-5.992 1.632v-.015zm-2.249-20.075c-.202.005-.4.058-.578.154-.28.131-.631.391-.875 1.192-1.028 3.442 1.489 10.721 3.186 13.541.956.435 4.602-1.054 5.98-2.216l-.026-.074c-3.276-9.232-5.718-11.883-7.192-12.493a1.28 1.28 0 00-.495-.104zm8.041 13.586c0 .032.03.074.042.107l-.042-.107zm135.927-63.779a2.617 2.617 0 01-2.408-1.601 2.61 2.61 0 01.543-2.84l12.94-13.133a2.609 2.609 0 013.658.005 2.611 2.611 0 01.065 3.658l-12.937 13.133a2.6 2.6 0 01-.853.575 2.604 2.604 0 01-1.008.203z" fill="#BBBDBF"/></g><g filter="url(#filter2_dd)"><path d="M135.219 418.544a2.611 2.611 0 01-2.424-1.638c-1.987-4.968-4.274-10.072-6.996-15.597-21.871-44.436-25.838-59.764-34.546-93.36l-3.603-13.836c-2.591-9.852-12.565-28.73-23.125-48.716-10.331-19.551-21.01-39.767-27.298-55.926-8.04-20.698 1.111-27.369 4.107-28.92 7.976-4.116 19.236.729 26.207 11.29 2.437 3.687 6.255 9.387 10.653 16.001 10.617 15.918 24.29 36.419 31.628 47.843.479-7.707 1.53-19.098 3.755-27.285 1.617-5.956 6.129-10.423 12.708-12.583 6.974-2.293 15.384-1.539 19.557 1.76 6.444 5.093 41.928 63.803 47.798 80.707 2.609 7.541.647 14.331-5.259 18.166-7.532 4.885-18.997 3.488-26.103-3.18-10.766-10.099-40.142-51.316-40.8-66.34a2.611 2.611 0 012.493-2.719c1.364-.134 2.659 1.051 2.719 2.495.551 12.645 28.134 52.415 39.156 62.758 5.983 5.619 14.89 5.73 19.688 2.609 3.871-2.508 4.994-6.793 3.169-12.068-6.07-17.499-40.994-74.291-46.101-78.324-2.46-1.947-8.777-2.844-14.691-.893-3.437 1.132-7.839 3.609-9.304 8.997-3.431 12.612-3.952 34.248-3.955 34.471a2.612 2.612 0 01-1.961 2.474 2.612 2.612 0 01-2.908-1.226c-3.782-6.552-23.131-35.559-35.937-54.752a6704.804 6704.804 0 01-10.664-16.023c-6.043-9.142-14.638-12.019-19.46-9.529-5.315 2.751-5.956 11.331-1.64 22.398 6.173 15.876 16.784 35.957 27.044 55.375 10.703 20.251 20.814 39.391 23.56 49.823l3.606 13.863c8.863 34.234 12.529 48.409 34.165 92.354 2.781 5.659 5.125 10.873 7.147 15.963a2.615 2.615 0 01-1.453 3.398 2.697 2.697 0 01-.932.17zm123.177-20.707a1.55 1.55 0 01-.167 0 2.589 2.589 0 01-.983-.263 2.601 2.601 0 01-1.45-2.51c.923-14.095 4.765-25.936 12.109-37.274 8.339-12.877 12.13-26.963 16.159-41.884 2.681-9.914 5.435-20.161 9.655-30.037 10.9-25.528 38.159-59.562 50.33-72.103l3.202-3.276c8.991-9.19 20.182-20.629 19.563-26.207-.069-.595-.298-1.337-1.421-2.084-16.248-10.543-46.705-1.213-78.16 43.423-8.97 12.741-17.437 14.215-22.931 13.199-9.733-1.787-18.354-12.928-22.5-29.081-2.635-10.257-7.883-34.945-13.443-61.084-7.508-35.311-16.022-75.33-20.474-91.166-3.75-13.335-11.347-19.244-16.886-18.151-4.932.956-9.268 7.743-7.842 20.763 4.289 39.204 10.507 76.359 15.501 106.214 1.534 9.188 2.937 17.571 4.104 24.969a2.618 2.618 0 01-.439 1.975 2.613 2.613 0 01-1.72 1.067 2.62 2.62 0 01-1.965-.483 2.624 2.624 0 01-1.028-1.743c-1.167-7.377-2.567-15.751-4.104-24.927-5-29.921-11.233-67.153-15.537-106.5-1.908-17.437 5.29-25.15 12.038-26.457 7.603-1.504 18.083 4.72 22.908 21.859 4.491 15.998 13.02 56.107 20.548 91.493 5.546 26.085 10.784 50.72 13.402 60.873 3.574 13.946 10.793 23.857 18.384 25.245 7.242 1.322 13.636-5.286 17.713-11.07 33.462-47.503 66.936-56.715 85.27-44.799 2.194 1.426 3.499 3.457 3.764 5.881.893 8.041-9.75 18.914-21.02 30.434l-3.18 3.276c-13.997 14.42-39.588 47.828-49.279 70.518-4.068 9.53-6.787 19.605-9.417 29.343-3.955 14.653-8.041 29.805-16.82 43.367-6.829 10.555-10.423 21.604-11.281 34.773a2.602 2.602 0 01-2.603 2.427zm-14.229-13.583c-11.993-.021-29.09-5.292-37.78-20.087-6.302-10.722-10.126-30.145 7.445-61.799a2.608 2.608 0 013.512-.955 2.61 2.61 0 011.056 3.483c-12.96 23.352-15.554 42.936-7.511 56.626 7.577 12.898 22.67 17.49 33.299 17.511a2.612 2.612 0 010 5.221h-.021zm-36.211-98.126c-3.181 0-6.531-1.045-9.765-3.139a2.61 2.61 0 01-1.173-1.648 2.612 2.612 0 013.063-3.127c.341.069.664.205.951.401 4.527 2.912 9.018 3.049 12.326.372 4.411-3.553 5.423-10.745 2.57-18.318l-.476-1.254c-23.783-63.297-32-75.069-34.43-77.196-3.067-2.68-7.076-2.608-9.872-2.066-6.368 1.206-13.402 6.102-16.005 11.141a2.606 2.606 0 01-3.517 1.116 2.61 2.61 0 01-1.117-3.517c3.372-6.513 11.642-12.347 19.656-13.869 5.658-1.075 10.605.054 14.295 3.276 6.016 5.26 18.092 31.934 35.883 79.283l.467 1.251c3.664 9.721 2.026 19.227-4.169 24.221a13.623 13.623 0 01-8.687 3.073zM95.682 275.44a2.587 2.587 0 01-2.582-2.269c-.066-.545-1.335-13.402 20.584-23.658a2.613 2.613 0 013.47 1.259 2.614 2.614 0 01-1.26 3.47c-18.2 8.511-17.616 18.256-17.607 18.351a2.631 2.631 0 01-2.597 2.847h-.008zm110.472-69.169a2.611 2.611 0 01-.845-5.081c1.748-.596 17.356-5.748 26.129-2.159a2.608 2.608 0 01.026 4.822 2.603 2.603 0 01-1.997.011c-5.918-2.418-18.232.819-22.47 2.267-.268.091-.55.138-.834.14h-.009z" fill="#059FDA"/></g><g filter="url(#filter3_dddd)"><path d="M135.219 416.98a1.043 1.043 0 01-.968-.661c-2.001-5-4.309-10.126-7.049-15.704-21.797-44.284-25.496-58.561-34.421-93.062-1.108-4.274-2.293-8.851-3.604-13.842-2.638-10.022-12.654-28.98-23.259-49.047-10.313-19.518-20.968-39.686-27.216-55.759-5.114-13.148-3.872-23.229 3.365-26.966 7.237-3.738 17.651.893 24.185 10.765 2.439 3.69 6.254 9.39 10.659 16.011 12.067 18.092 28.098 42.125 34.248 51.947.298-6.77 1.227-21.797 3.961-31.851 1.489-5.423 5.622-9.509 11.683-11.505 6.513-2.15 14.295-1.512 18.101 1.49 6.361 5.027 41.461 63.21 47.286 79.997 2.397 6.912.706 12.866-4.637 16.329-6.09 3.955-16.802 3.907-24.173-3.008-11.645-10.929-39.713-51.619-40.303-65.268a1.039 1.039 0 01.602-.991c.124-.057.259-.09.396-.096.628.039 1.069.426 1.087 1.001.575 13.241 28.188 53.082 39.644 63.833 6.624 6.209 16.186 6.289 21.612 2.778 4.542-2.936 5.888-7.877 3.8-13.899-6.123-17.627-41.434-74.944-46.613-79.039-2.832-2.242-9.64-3.275-16.15-1.155-5.361 1.769-9.036 5.361-10.325 10.075-3.479 12.806-4.003 34.629-4.009 34.844a1.05 1.05 0 01-.225.626 1.048 1.048 0 01-.558.362 1.066 1.066 0 01-1.164-.488c-3.809-6.596-22.408-34.48-35.988-54.839-4.416-6.623-8.222-12.329-10.661-16.022-6.776-10.242-16.115-12.806-21.487-10.057-4.765 2.469-7.901 10.164-2.383 24.355 6.21 15.96 16.838 36.08 27.122 55.539 10.661 20.179 20.73 39.233 23.428 49.496 1.314 4.985 2.5 9.571 3.607 13.848 8.89 34.349 12.571 48.567 34.278 92.66 2.764 5.614 5.087 10.799 7.109 15.853a1.046 1.046 0 01-.25 1.14c-.1.096-.217.171-.346.221a1.11 1.11 0 01-.384.089z" fill="#44D3F2"/></g><g filter="url(#filter4_dddd)"><path d="M207.95 284.553c-2.889 0-5.956-.959-8.902-2.874a1.042 1.042 0 011.126-1.754c5.042 3.255 10.343 3.377 14.17.298 4.947-3.988 6.141-11.877 3.044-20.093l-.471-1.251c-23.047-61.349-31.741-75.087-34.865-77.821-3.541-3.1-8.04-3.044-11.194-2.43-6.903 1.307-14.25 6.45-17.103 11.96a1.042 1.042 0 11-1.853-.959c3.115-6.025 11.097-11.633 18.563-13.053 5.167-.986 9.655.018 12.96 2.91 7.249 6.337 23.28 46.273 35.44 78.657l.467 1.254c3.419 9.071 1.972 17.886-3.69 22.452a12.09 12.09 0 01-7.692 2.704z" fill="#44D3F2"/></g><g filter="url(#filter5_dddd)"><path d="M258.396 396.274h-.065a1.046 1.046 0 01-.719-.35 1.032 1.032 0 01-.252-.758c.893-13.816 4.672-25.421 11.856-36.518 8.466-13.103 12.299-27.291 16.355-42.336 2.681-9.861 5.412-20.058 9.59-29.823 10.816-25.341 37.911-59.157 50.014-71.632l3.193-3.276c9.696-9.923 20.7-21.163 20.001-27.482-.152-1.332-.843-2.383-2.13-3.217-16.859-10.968-48.245-1.658-80.286 43.835-8.506 12.07-16.329 13.497-21.365 12.556-9.119-1.671-17.273-12.371-21.261-27.929-2.624-10.224-7.877-34.897-13.428-61.018-7.52-35.335-16.031-75.382-20.496-91.264-4.199-14.923-12.654-20.445-18.693-19.265-5.227 1.012-10.742 7.504-9.104 22.475 4.3 39.243 10.515 76.418 15.519 106.295 1.533 9.184 2.936 17.57 4.104 24.956a1.052 1.052 0 01-.186.777 1.03 1.03 0 01-.684.414 1.053 1.053 0 01-1.191-.863c-1.162-7.386-2.567-15.763-4.098-24.939-5.006-29.9-11.231-67.112-15.531-106.416-1.787-16.38 4.688-23.566 10.775-24.748 7.034-1.35 16.555 4.568 21.109 20.748 4.467 15.945 13.005 56.027 20.519 91.395 5.551 26.1 10.798 50.75 13.416 60.938 3.785 14.756 11.299 24.87 19.617 26.392 6.373 1.173 13.053-2.874 19.271-11.71 32.858-46.616 65.426-55.89 83.143-44.374 1.813 1.191 2.841 2.776 3.058 4.741.807 7.3-10.066 18.417-20.584 29.168l-3.187 3.276c-14.074 14.506-39.826 48.138-49.594 70.989-4.116 9.637-6.85 19.762-9.486 29.554-3.928 14.537-7.978 29.567-16.62 42.921-6.978 10.789-10.65 22.082-11.535 35.526a1.04 1.04 0 01-1.045.962z" fill="#44D3F2"/></g><g filter="url(#filter6_dddd)"><path d="M244.167 382.687c-11.585-.021-28.084-5.089-36.44-19.319-6.09-10.369-9.748-29.242 7.466-60.247a1.044 1.044 0 011.945.632 1.043 1.043 0 01-.126.387c-16.728 30.144-13.303 48.275-7.486 58.174 7.915 13.464 23.607 18.268 34.641 18.28a1.043 1.043 0 011.16 1.042 1.05 1.05 0 01-1.16 1.042v.009z" fill="#44D3F2"/></g><g filter="url(#filter7_dddd)"><path d="M95.696 273.897a1.04 1.04 0 01-1.033-.917c-.057-.497-1.212-12.273 19.694-22.038a1.042 1.042 0 011.43 1.296 1.04 1.04 0 01-.536.592c-19.415 9.078-18.515 19.811-18.506 19.921a1.043 1.043 0 01-.92 1.149.686.686 0 01-.129-.003z" fill="#44D3F2"/></g><g filter="url(#filter8_dddd)"><path d="M206.163 204.704a1.043 1.043 0 01-1.034-.872 1.045 1.045 0 01.692-1.162c.682-.223 16.677-5.617 25.034-2.186a1.03 1.03 0 01.569.56 1.03 1.03 0 01.002.798 1.017 1.017 0 01-.958.654c-.137 0-.273-.028-.4-.082-7.653-3.121-23.41 2.177-23.565 2.233-.11.037-.224.056-.34.057z" fill="#44D3F2"/></g><g filter="url(#filter9_ddddd)"><path d="M155.372 430.706c-16.618 0-26.89-3.011-30.556-7.49-1.858-2.269-2.18-4.932-.935-7.71a1.053 1.053 0 01.581-.548 1.039 1.039 0 011.13.26 1.037 1.037 0 01.192 1.142c-.923 2.061-.711 3.872.647 5.534 6.128 7.487 34.843 10.539 83.449-.471 43.016-9.735 54.892-18.464 57.278-24.081.81-1.897.646-3.737-.489-5.628a1.054 1.054 0 01-.117-.789 1.03 1.03 0 01.475-.641 1.043 1.043 0 011.429.358c1.489 2.465 1.707 4.994.632 7.513-3.75 8.816-23.527 17.33-58.741 25.314-22.681 5.125-41.062 7.237-54.975 7.237z" fill="#F858A5"/></g><g filter="url(#filter10_ddddd)"><path d="M158.4 483.457c-19.5 0-29.959-4.267-31.696-10.233l-3.573-43.414a1.034 1.034 0 01.242-.763 1.036 1.036 0 01.711-.366 1.06 1.06 0 011.125.953l3.532 43.209c2.136 7.252 27.003 14.218 84.439 1.209 40.8-9.232 53.34-17.57 56.679-22.931 1.018-1.638 1.331-3.196.959-4.765l-3.16-39.311a1.03 1.03 0 01.246-.76 1.027 1.027 0 01.713-.36c.616.018 1.078.379 1.12.956l3.133 39.15c.482 1.948.068 4.089-1.239 6.189-5.161 8.291-24.674 16.323-57.99 23.872-23.026 5.218-41.407 7.365-55.241 7.365z" fill="#F858A5"/></g><g filter="url(#filter11_dddd)"><path d="M149.83 468.332c-5.858 0-11.019-4.736-11.868-11.165-.894-6.945 3.573-13.271 9.985-14.114 6.412-.842 12.374 4.137 13.28 11.079a13.18 13.18 0 01-2.219 9.31 11.174 11.174 0 01-9.178 4.89zm-.474-23.289a9.23 9.23 0 00-1.138.077c-5.274.694-8.934 5.957-8.186 11.776.747 5.819 5.703 9.935 10.935 9.276a9.176 9.176 0 006.332-3.928 11.075 11.075 0 001.855-7.841c-.703-5.384-4.973-9.36-9.798-9.36z" fill="#fff"/></g><g filter="url(#filter12_dddd)"><path d="M253.649 449.626c-5.2 0-9.664-5.322-10.066-12.118-.197-3.335.596-6.537 2.243-9.017 1.706-2.573 4.118-4.077 6.781-4.226h.464c2.499 0 4.884 1.191 6.767 3.427 1.923 2.27 3.085 5.361 3.275 8.691.197 3.329-.595 6.528-2.242 9.008-1.704 2.576-4.116 4.086-6.781 4.235h-.441zm-.596-23.289h-.33c-1.998.117-3.827 1.293-5.158 3.303-1.4 2.109-2.085 4.851-1.909 7.743.351 5.837 4.169 10.424 8.309 10.147 1.992-.117 3.827-1.293 5.158-3.303 1.399-2.106 2.084-4.86 1.909-7.743-.17-2.889-1.168-5.539-2.8-7.469-1.465-1.734-3.293-2.678-5.179-2.678z" fill="#fff"/></g><g filter="url(#filter13_dddd)"><path d="M203.682 465.607a13.698 13.698 0 01-13.436-16.372 13.703 13.703 0 0110.764-10.764 13.703 13.703 0 0114.063 5.825 13.704 13.704 0 012.309 7.611 13.722 13.722 0 01-13.7 13.7zm0-25.314a11.614 11.614 0 1011.615 11.614 11.615 11.615 0 00-11.615-11.599v-.015z" fill="#fff"/></g><g filter="url(#filter14_dddd)"><path d="M175.831 289.627c-1.507 0-2.82-.482-3.573-1.727-1.46-2.403-5.168-11.114-3.574-16.478.488-1.638 1.429-2.799 2.796-3.457a4.84 4.84 0 014.044-.116c4.739 1.956 8.003 11.17 9.233 14.643.157.435.271.762.354.959.849 2.135-2.799 4.151-3.94 4.717-1.65.828-3.618 1.459-5.34 1.459zm-3.448-19.774c-.822.393-1.379 1.102-1.695 2.168-1.218 4.083 1.534 11.805 3.353 14.795.522.867 1.987.765 2.812.631 3.022-.491 6.117-2.602 6.301-3.392a3.69 3.69 0 01-.354-.863c-1.036-2.922-4.187-11.811-8.068-13.402a2.717 2.717 0 00-2.349.075v-.012z" fill="#fff"/></g><g filter="url(#filter15_dddd)"><path d="M205.225 273.903c-1.504 0-2.82-.482-3.574-1.727-1.459-2.403-5.164-11.126-3.573-16.478.488-1.641 1.432-2.802 2.799-3.455a4.77 4.77 0 014.041-.119c4.738 1.957 8.005 11.174 9.232 14.644.158.434.271.762.355.959.849 2.132-2.8 4.151-3.934 4.717-1.65.828-3.622 1.459-5.346 1.459zm-2.189-20.081a2.889 2.889 0 00-1.257.298c-.822.393-1.378 1.104-1.7 2.168-1.215 4.08 1.537 11.805 3.35 14.795.524.872 1.984.777 2.821.634 3.019-.488 6.117-2.603 6.301-3.392a3.707 3.707 0 01-.354-.863c-1.043-2.922-4.187-11.815-8.068-13.402a2.916 2.916 0 00-1.093-.238z" fill="#fff"/></g><g filter="url(#filter16_dddd)"><path d="M347.004 203.629a1.042 1.042 0 01-.98-.641 1.04 1.04 0 01.238-1.146l12.937-13.13a1.033 1.033 0 01.737-.312 1.048 1.048 0 01.752 1.78l-12.931 13.139a1.035 1.035 0 01-.753.31z" fill="#fff"/></g><defs><filter id="filter0_dd" x="67.565" y="334.427" width="261.069" height="204.573" filterUnits="userSpaceOnUse" color-interpolation-filters="sRGB"><feFlood flood-opacity="0" result="BackgroundImageFix"/><feColorMatrix in="SourceAlpha" values="0 0 0 0 0 0 0 0 0 0 0 0 0 0 0 0 0 0 127 0" result="hardAlpha"/><feOffset/><feGaussianBlur stdDeviation="27"/><feComposite in2="hardAlpha" operator="out"/><feColorMatrix values="0 0 0 0 0.776471 0 0 0 0 0.152941 0 0 0 0 0.345098 0 0 0 1 0"/><feBlend in2="BackgroundImageFix" result="effect1_dropShadow"/><feColorMatrix in="SourceAlpha" values="0 0 0 0 0 0 0 0 0 0 0 0 0 0 0 0 0 0 127 0" result="hardAlpha"/><feOffset dy="10"/><feGaussianBlur stdDeviation="3"/><feComposite in2="hardAlpha" operator="out"/><feColorMatrix values="0 0 0 0 0 0 0 0 0 0 0 0 0 0 0 0 0 0 0.23 0"/><feBlend in2="effect1_dropShadow" result="effect2_dropShadow"/><feBlend in="SourceGraphic" in2="effect2_dropShadow" result="shape"/></filter><filter id="filter1_dd" x="109.277" y="159.874" width="280.24" height="337.042" filterUnits="userSpaceOnUse" color-interpolation-filters="sRGB"><feFlood flood-opacity="0" result="BackgroundImageFix"/><feColorMatrix in="SourceAlpha" values="0 0 0 0 0 0 0 0 0 0 0 0 0 0 0 0 0 0 127 0" result="hardAlpha"/><feOffset/><feGaussianBlur stdDeviation="13.5"/><feComposite in2="hardAlpha" operator="out"/><feColorMatrix values="0 0 0 0 1 0 0 0 0 1 0 0 0 0 1 0 0 0 1 0"/><feBlend in2="BackgroundImageFix" result="effect1_dropShadow"/><feColorMatrix in="SourceAlpha" values="0 0 0 0 0 0 0 0 0 0 0 0 0 0 0 0 0 0 127 0" result="hardAlpha"/><feOffset dy="12"/><feGaussianBlur stdDeviation="3"/><feComposite in2="hardAlpha" operator="out"/><feColorMatrix values="0 0 0 0 0 0 0 0 0 0 0 0 0 0 0 0 0 0 0.3 0"/><feBlend in2="effect1_dropShadow" result="effect2_dropShadow"/><feBlend in="SourceGraphic" in2="effect2_dropShadow" result="shape"/></filter><filter id="filter2_dd" x="0" y="0" width="406.048" height="452.544" filterUnits="userSpaceOnUse" color-interpolation-filters="sRGB"><feFlood flood-opacity="0" result="BackgroundImageFix"/><feColorMatrix in="SourceAlpha" values="0 0 0 0 0 0 0 0 0 0 0 0 0 0 0 0 0 0 127 0" result="hardAlpha"/><feOffset/><feGaussianBlur stdDeviation="17"/><feComposite in2="hardAlpha" operator="out"/><feColorMatrix values="0 0 0 0 0.0941176 0 0 0 0 0.65098 0 0 0 0 0.866667 0 0 0 1 0"/><feBlend in2="BackgroundImageFix" result="effect1_dropShadow"/><feColorMatrix in="SourceAlpha" values="0 0 0 0 0 0 0 0 0 0 0 0 0 0 0 0 0 0 127 0" result="hardAlpha"/><feOffset dy="8"/><feGaussianBlur stdDeviation="2"/><feComposite in2="hardAlpha" operator="out"/><feColorMatrix values="0 0 0 0 0 0 0 0 0 0 0 0 0 0 0 0 0 0 0.18 0"/><feBlend in2="effect1_dropShadow" result="effect2_dropShadow"/><feBlend in="SourceGraphic" in2="effect2_dropShadow" result="shape"/></filter><filter id="filter3_dddd" x="29.592" y="154.649" width="169.663" height="268.331" filterUnits="userSpaceOnUse" color-interpolation-filters="sRGB"><feFlood flood-opacity="0" result="BackgroundImageFix"/><feColorMatrix in="SourceAlpha" values="0 0 0 0 0 0 0 0 0 0 0 0 0 0 0 0 0 0 127 0" result="hardAlpha"/><feOffset/><feGaussianBlur stdDeviation="2"/><feComposite in2="hardAlpha" operator="out"/><feColorMatrix values="0 0 0 0 0.196078 0 0 0 0 0.803922 0 0 0 0 0.937255 0 0 0 1 0"/><feBlend in2="BackgroundImageFix" result="effect1_dropShadow"/><feColorMatrix in="SourceAlpha" values="0 0 0 0 0 0 0 0 0 0 0 0 0 0 0 0 0 0 127 0" result="hardAlpha"/><feOffset/><feGaussianBlur stdDeviation="3"/><feComposite in2="hardAlpha" operator="out"/><feColorMatrix values="0 0 0 0 0.196078 0 0 0 0 0.803922 0 0 0 0 0.937255 0 0 0 1 0"/><feBlend in2="effect1_dropShadow" result="effect2_dropShadow"/><feColorMatrix in="SourceAlpha" values="0 0 0 0 0 0 0 0 0 0 0 0 0 0 0 0 0 0 127 0" result="hardAlpha"/><feOffset/><feGaussianBlur stdDeviation="2"/><feComposite in2="hardAlpha" operator="out"/><feColorMatrix values="0 0 0 0 0.196078 0 0 0 0 0.803922 0 0 0 0 0.937255 0 0 0 1 0"/><feBlend in2="effect2_dropShadow" result="effect3_dropShadow"/><feColorMatrix in="SourceAlpha" values="0 0 0 0 0 0 0 0 0 0 0 0 0 0 0 0 0 0 127 0" result="hardAlpha"/><feOffset/><feGaussianBlur stdDeviation="1.5"/><feComposite in2="hardAlpha" operator="out"/><feColorMatrix values="0 0 0 0 0.196078 0 0 0 0 0.803922 0 0 0 0 0.937255 0 0 0 1 0"/><feBlend in2="effect3_dropShadow" result="effect4_dropShadow"/><feBlend in="SourceGraphic" in2="effect4_dropShadow" result="shape"/></filter><filter id="filter4_dddd" x="145.785" y="170.208" width="81.378" height="120.345" filterUnits="userSpaceOnUse" color-interpolation-filters="sRGB"><feFlood flood-opacity="0" result="BackgroundImageFix"/><feColorMatrix in="SourceAlpha" values="0 0 0 0 0 0 0 0 0 0 0 0 0 0 0 0 0 0 127 0" result="hardAlpha"/><feOffset/><feGaussianBlur stdDeviation="2"/><feComposite in2="hardAlpha" operator="out"/><feColorMatrix values="0 0 0 0 0.196078 0 0 0 0 0.803922 0 0 0 0 0.937255 0 0 0 1 0"/><feBlend in2="BackgroundImageFix" result="effect1_dropShadow"/><feColorMatrix in="SourceAlpha" values="0 0 0 0 0 0 0 0 0 0 0 0 0 0 0 0 0 0 127 0" result="hardAlpha"/><feOffset/><feGaussianBlur stdDeviation="3"/><feComposite in2="hardAlpha" operator="out"/><feColorMatrix values="0 0 0 0 0.196078 0 0 0 0 0.803922 0 0 0 0 0.937255 0 0 0 1 0"/><feBlend in2="effect1_dropShadow" result="effect2_dropShadow"/><feColorMatrix in="SourceAlpha" values="0 0 0 0 0 0 0 0 0 0 0 0 0 0 0 0 0 0 127 0" result="hardAlpha"/><feOffset/><feGaussianBlur stdDeviation="2"/><feComposite in2="hardAlpha" operator="out"/><feColorMatrix values="0 0 0 0 0.196078 0 0 0 0 0.803922 0 0 0 0 0.937255 0 0 0 1 0"/><feBlend in2="effect2_dropShadow" result="effect3_dropShadow"/><feColorMatrix in="SourceAlpha" values="0 0 0 0 0 0 0 0 0 0 0 0 0 0 0 0 0 0 127 0" result="hardAlpha"/><feOffset/><feGaussianBlur stdDeviation="1.5"/><feComposite in2="hardAlpha" operator="out"/><feColorMatrix values="0 0 0 0 0.196078 0 0 0 0 0.803922 0 0 0 0 0.937255 0 0 0 1 0"/><feBlend in2="effect3_dropShadow" result="effect4_dropShadow"/><feBlend in="SourceGraphic" in2="effect4_dropShadow" result="shape"/></filter><filter id="filter5_dddd" x="173.237" y="29.562" width="203.252" height="372.712" filterUnits="userSpaceOnUse" color-interpolation-filters="sRGB"><feFlood flood-opacity="0" result="BackgroundImageFix"/><feColorMatrix in="SourceAlpha" values="0 0 0 0 0 0 0 0 0 0 0 0 0 0 0 0 0 0 127 0" result="hardAlpha"/><feOffset/><feGaussianBlur stdDeviation="2"/><feComposite in2="hardAlpha" operator="out"/><feColorMatrix values="0 0 0 0 0.196078 0 0 0 0 0.803922 0 0 0 0 0.937255 0 0 0 1 0"/><feBlend in2="BackgroundImageFix" result="effect1_dropShadow"/><feColorMatrix in="SourceAlpha" values="0 0 0 0 0 0 0 0 0 0 0 0 0 0 0 0 0 0 127 0" result="hardAlpha"/><feOffset/><feGaussianBlur stdDeviation="3"/><feComposite in2="hardAlpha" operator="out"/><feColorMatrix values="0 0 0 0 0.196078 0 0 0 0 0.803922 0 0 0 0 0.937255 0 0 0 1 0"/><feBlend in2="effect1_dropShadow" result="effect2_dropShadow"/><feColorMatrix in="SourceAlpha" values="0 0 0 0 0 0 0 0 0 0 0 0 0 0 0 0 0 0 127 0" result="hardAlpha"/><feOffset/><feGaussianBlur stdDeviation="2"/><feComposite in2="hardAlpha" operator="out"/><feColorMatrix values="0 0 0 0 0.196078 0 0 0 0 0.803922 0 0 0 0 0.937255 0 0 0 1 0"/><feBlend in2="effect2_dropShadow" result="effect3_dropShadow"/><feColorMatrix in="SourceAlpha" values="0 0 0 0 0 0 0 0 0 0 0 0 0 0 0 0 0 0 127 0" result="hardAlpha"/><feOffset/><feGaussianBlur stdDeviation="1.5"/><feComposite in2="hardAlpha" operator="out"/><feColorMatrix values="0 0 0 0 0.196078 0 0 0 0 0.803922 0 0 0 0 0.937255 0 0 0 1 0"/><feBlend in2="effect3_dropShadow" result="effect4_dropShadow"/><feBlend in="SourceGraphic" in2="effect4_dropShadow" result="shape"/></filter><filter id="filter6_dddd" x="196.661" y="296.588" width="54.665" height="92.099" filterUnits="userSpaceOnUse" color-interpolation-filters="sRGB"><feFlood flood-opacity="0" result="BackgroundImageFix"/><feColorMatrix in="SourceAlpha" values="0 0 0 0 0 0 0 0 0 0 0 0 0 0 0 0 0 0 127 0" result="hardAlpha"/><feOffset/><feGaussianBlur stdDeviation="2"/><feComposite in2="hardAlpha" operator="out"/><feColorMatrix values="0 0 0 0 0.196078 0 0 0 0 0.803922 0 0 0 0 0.937255 0 0 0 1 0"/><feBlend in2="BackgroundImageFix" result="effect1_dropShadow"/><feColorMatrix in="SourceAlpha" values="0 0 0 0 0 0 0 0 0 0 0 0 0 0 0 0 0 0 127 0" result="hardAlpha"/><feOffset/><feGaussianBlur stdDeviation="3"/><feComposite in2="hardAlpha" operator="out"/><feColorMatrix values="0 0 0 0 0.196078 0 0 0 0 0.803922 0 0 0 0 0.937255 0 0 0 1 0"/><feBlend in2="effect1_dropShadow" result="effect2_dropShadow"/><feColorMatrix in="SourceAlpha" values="0 0 0 0 0 0 0 0 0 0 0 0 0 0 0 0 0 0 127 0" result="hardAlpha"/><feOffset/><feGaussianBlur stdDeviation="2"/><feComposite in2="hardAlpha" operator="out"/><feColorMatrix values="0 0 0 0 0.196078 0 0 0 0 0.803922 0 0 0 0 0.937255 0 0 0 1 0"/><feBlend in2="effect2_dropShadow" result="effect3_dropShadow"/><feColorMatrix in="SourceAlpha" values="0 0 0 0 0 0 0 0 0 0 0 0 0 0 0 0 0 0 127 0" result="hardAlpha"/><feOffset/><feGaussianBlur stdDeviation="1.5"/><feComposite in2="hardAlpha" operator="out"/><feColorMatrix values="0 0 0 0 0.196078 0 0 0 0 0.803922 0 0 0 0 0.937255 0 0 0 1 0"/><feBlend in2="effect3_dropShadow" result="effect4_dropShadow"/><feBlend in="SourceGraphic" in2="effect4_dropShadow" result="shape"/></filter><filter id="filter7_dddd" x="88.635" y="244.842" width="33.213" height="35.06" filterUnits="userSpaceOnUse" color-interpolation-filters="sRGB"><feFlood flood-opacity="0" result="BackgroundImageFix"/><feColorMatrix in="SourceAlpha" values="0 0 0 0 0 0 0 0 0 0 0 0 0 0 0 0 0 0 127 0" result="hardAlpha"/><feOffset/><feGaussianBlur stdDeviation="2"/><feComposite in2="hardAlpha" operator="out"/><feColorMatrix values="0 0 0 0 0.196078 0 0 0 0 0.803922 0 0 0 0 0.937255 0 0 0 1 0"/><feBlend in2="BackgroundImageFix" result="effect1_dropShadow"/><feColorMatrix in="SourceAlpha" values="0 0 0 0 0 0 0 0 0 0 0 0 0 0 0 0 0 0 127 0" result="hardAlpha"/><feOffset/><feGaussianBlur stdDeviation="3"/><feComposite in2="hardAlpha" operator="out"/><feColorMatrix values="0 0 0 0 0.196078 0 0 0 0 0.803922 0 0 0 0 0.937255 0 0 0 1 0"/><feBlend in2="effect1_dropShadow" result="effect2_dropShadow"/><feColorMatrix in="SourceAlpha" values="0 0 0 0 0 0 0 0 0 0 0 0 0 0 0 0 0 0 127 0" result="hardAlpha"/><feOffset/><feGaussianBlur stdDeviation="2"/><feComposite in2="hardAlpha" operator="out"/><feColorMatrix values="0 0 0 0 0.196078 0 0 0 0 0.803922 0 0 0 0 0.937255 0 0 0 1 0"/><feBlend in2="effect2_dropShadow" result="effect3_dropShadow"/><feColorMatrix in="SourceAlpha" values="0 0 0 0 0 0 0 0 0 0 0 0 0 0 0 0 0 0 127 0" result="hardAlpha"/><feOffset/><feGaussianBlur stdDeviation="1.5"/><feComposite in2="hardAlpha" operator="out"/><feColorMatrix values="0 0 0 0 0.196078 0 0 0 0 0.803922 0 0 0 0 0.937255 0 0 0 1 0"/><feBlend in2="effect3_dropShadow" result="effect4_dropShadow"/><feBlend in="SourceGraphic" in2="effect4_dropShadow" result="shape"/></filter><filter id="filter8_dddd" x="199.115" y="193.345" width="38.391" height="17.359" filterUnits="userSpaceOnUse" color-interpolation-filters="sRGB"><feFlood flood-opacity="0" result="BackgroundImageFix"/><feColorMatrix in="SourceAlpha" values="0 0 0 0 0 0 0 0 0 0 0 0 0 0 0 0 0 0 127 0" result="hardAlpha"/><feOffset/><feGaussianBlur stdDeviation="2"/><feComposite in2="hardAlpha" operator="out"/><feColorMatrix values="0 0 0 0 0.196078 0 0 0 0 0.803922 0 0 0 0 0.937255 0 0 0 1 0"/><feBlend in2="BackgroundImageFix" result="effect1_dropShadow"/><feColorMatrix in="SourceAlpha" values="0 0 0 0 0 0 0 0 0 0 0 0 0 0 0 0 0 0 127 0" result="hardAlpha"/><feOffset/><feGaussianBlur stdDeviation="3"/><feComposite in2="hardAlpha" operator="out"/><feColorMatrix values="0 0 0 0 0.196078 0 0 0 0 0.803922 0 0 0 0 0.937255 0 0 0 1 0"/><feBlend in2="effect1_dropShadow" result="effect2_dropShadow"/><feColorMatrix in="SourceAlpha" values="0 0 0 0 0 0 0 0 0 0 0 0 0 0 0 0 0 0 127 0" result="hardAlpha"/><feOffset/><feGaussianBlur stdDeviation="2"/><feComposite in2="hardAlpha" operator="out"/><feColorMatrix values="0 0 0 0 0.196078 0 0 0 0 0.803922 0 0 0 0 0.937255 0 0 0 1 0"/><feBlend in2="effect2_dropShadow" result="effect3_dropShadow"/><feColorMatrix in="SourceAlpha" values="0 0 0 0 0 0 0 0 0 0 0 0 0 0 0 0 0 0 127 0" result="hardAlpha"/><feOffset/><feGaussianBlur stdDeviation="1.5"/><feComposite in2="hardAlpha" operator="out"/><feColorMatrix values="0 0 0 0 0.196078 0 0 0 0 0.803922 0 0 0 0 0.937255 0 0 0 1 0"/><feBlend in2="effect3_dropShadow" result="effect4_dropShadow"/><feBlend in="SourceGraphic" in2="effect4_dropShadow" result="shape"/></filter><filter id="filter9_ddddd" x="117.137" y="384.136" width="158.622" height="52.57" filterUnits="userSpaceOnUse" color-interpolation-filters="sRGB"><feFlood flood-opacity="0" result="BackgroundImageFix"/><feColorMatrix in="SourceAlpha" values="0 0 0 0 0 0 0 0 0 0 0 0 0 0 0 0 0 0 127 0" result="hardAlpha"/><feOffset/><feGaussianBlur stdDeviation="1"/><feComposite in2="hardAlpha" operator="out"/><feColorMatrix values="0 0 0 0 0.937255 0 0 0 0 0.196078 0 0 0 0 0.552941 0 0 0 1 0"/><feBlend in2="BackgroundImageFix" result="effect1_dropShadow"/><feColorMatrix in="SourceAlpha" values="0 0 0 0 0 0 0 0 0 0 0 0 0 0 0 0 0 0 127 0" result="hardAlpha"/><feOffset/><feGaussianBlur stdDeviation="2"/><feComposite in2="hardAlpha" operator="out"/><feColorMatrix values="0 0 0 0 0.937255 0 0 0 0 0.196078 0 0 0 0 0.552941 0 0 0 1 0"/><feBlend in2="effect1_dropShadow" result="effect2_dropShadow"/><feColorMatrix in="SourceAlpha" values="0 0 0 0 0 0 0 0 0 0 0 0 0 0 0 0 0 0 127 0" result="hardAlpha"/><feOffset/><feGaussianBlur stdDeviation="3"/><feComposite in2="hardAlpha" operator="out"/><feColorMatrix values="0 0 0 0 0.937255 0 0 0 0 0.196078 0 0 0 0 0.552941 0 0 0 1 0"/><feBlend in2="effect2_dropShadow" result="effect3_dropShadow"/><feColorMatrix in="SourceAlpha" values="0 0 0 0 0 0 0 0 0 0 0 0 0 0 0 0 0 0 127 0" result="hardAlpha"/><feOffset/><feGaussianBlur stdDeviation="2"/><feComposite in2="hardAlpha" operator="out"/><feColorMatrix values="0 0 0 0 0.937255 0 0 0 0 0.196078 0 0 0 0 0.552941 0 0 0 1 0"/><feBlend in2="effect3_dropShadow" result="effect4_dropShadow"/><feColorMatrix in="SourceAlpha" values="0 0 0 0 0 0 0 0 0 0 0 0 0 0 0 0 0 0 127 0" result="hardAlpha"/><feOffset/><feGaussianBlur stdDeviation="1.5"/><feComposite in2="hardAlpha" operator="out"/><feColorMatrix values="0 0 0 0 0.937255 0 0 0 0 0.196078 0 0 0 0 0.552941 0 0 0 1 0"/><feBlend in2="effect4_dropShadow" result="effect5_dropShadow"/><feBlend in="SourceGraphic" in2="effect5_dropShadow" result="shape"/></filter><filter id="filter10_ddddd" x="117.127" y="399.925" width="161.938" height="89.532" filterUnits="userSpaceOnUse" color-interpolation-filters="sRGB"><feFlood flood-opacity="0" result="BackgroundImageFix"/><feColorMatrix in="SourceAlpha" values="0 0 0 0 0 0 0 0 0 0 0 0 0 0 0 0 0 0 127 0" result="hardAlpha"/><feOffset/><feGaussianBlur stdDeviation="1"/><feComposite in2="hardAlpha" operator="out"/><feColorMatrix values="0 0 0 0 0.937255 0 0 0 0 0.196078 0 0 0 0 0.552941 0 0 0 1 0"/><feBlend in2="BackgroundImageFix" result="effect1_dropShadow"/><feColorMatrix in="SourceAlpha" values="0 0 0 0 0 0 0 0 0 0 0 0 0 0 0 0 0 0 127 0" result="hardAlpha"/><feOffset/><feGaussianBlur stdDeviation="2"/><feComposite in2="hardAlpha" operator="out"/><feColorMatrix values="0 0 0 0 0.937255 0 0 0 0 0.196078 0 0 0 0 0.552941 0 0 0 1 0"/><feBlend in2="effect1_dropShadow" result="effect2_dropShadow"/><feColorMatrix in="SourceAlpha" values="0 0 0 0 0 0 0 0 0 0 0 0 0 0 0 0 0 0 127 0" result="hardAlpha"/><feOffset/><feGaussianBlur stdDeviation="3"/><feComposite in2="hardAlpha" operator="out"/><feColorMatrix values="0 0 0 0 0.937255 0 0 0 0 0.196078 0 0 0 0 0.552941 0 0 0 1 0"/><feBlend in2="effect2_dropShadow" result="effect3_dropShadow"/><feColorMatrix in="SourceAlpha" values="0 0 0 0 0 0 0 0 0 0 0 0 0 0 0 0 0 0 127 0" result="hardAlpha"/><feOffset/><feGaussianBlur stdDeviation="2"/><feComposite in2="hardAlpha" operator="out"/><feColorMatrix values="0 0 0 0 0.937255 0 0 0 0 0.196078 0 0 0 0 0.552941 0 0 0 1 0"/><feBlend in2="effect3_dropShadow" result="effect4_dropShadow"/><feColorMatrix in="SourceAlpha" values="0 0 0 0 0 0 0 0 0 0 0 0 0 0 0 0 0 0 127 0" result="hardAlpha"/><feOffset/><feGaussianBlur stdDeviation="1.5"/><feComposite in2="hardAlpha" operator="out"/><feColorMatrix values="0 0 0 0 0.937255 0 0 0 0 0.196078 0 0 0 0 0.552941 0 0 0 1 0"/><feBlend in2="effect4_dropShadow" result="effect5_dropShadow"/><feBlend in="SourceGraphic" in2="effect5_dropShadow" result="shape"/></filter><filter id="filter11_dddd" x="131.848" y="436.96" width="35.504" height="37.371" filterUnits="userSpaceOnUse" color-interpolation-filters="sRGB"><feFlood flood-opacity="0" result="BackgroundImageFix"/><feColorMatrix in="SourceAlpha" values="0 0 0 0 0 0 0 0 0 0 0 0 0 0 0 0 0 0 127 0" result="hardAlpha"/><feOffset/><feGaussianBlur stdDeviation="2"/><feComposite in2="hardAlpha" operator="out"/><feColorMatrix values="0 0 0 0 1 0 0 0 0 1 0 0 0 0 1 0 0 0 1 0"/><feBlend in2="BackgroundImageFix" result="effect1_dropShadow"/><feColorMatrix in="SourceAlpha" values="0 0 0 0 0 0 0 0 0 0 0 0 0 0 0 0 0 0 127 0" result="hardAlpha"/><feOffset/><feGaussianBlur stdDeviation="3"/><feComposite in2="hardAlpha" operator="out"/><feColorMatrix values="0 0 0 0 1 0 0 0 0 1 0 0 0 0 1 0 0 0 1 0"/><feBlend in2="effect1_dropShadow" result="effect2_dropShadow"/><feColorMatrix in="SourceAlpha" values="0 0 0 0 0 0 0 0 0 0 0 0 0 0 0 0 0 0 127 0" result="hardAlpha"/><feOffset/><feGaussianBlur stdDeviation="2"/><feComposite in2="hardAlpha" operator="out"/><feColorMatrix values="0 0 0 0 1 0 0 0 0 1 0 0 0 0 1 0 0 0 1 0"/><feBlend in2="effect2_dropShadow" result="effect3_dropShadow"/><feColorMatrix in="SourceAlpha" values="0 0 0 0 0 0 0 0 0 0 0 0 0 0 0 0 0 0 127 0" result="hardAlpha"/><feOffset/><feGaussianBlur stdDeviation="1.5"/><feComposite in2="hardAlpha" operator="out"/><feColorMatrix values="0 0 0 0 1 0 0 0 0 1 0 0 0 0 1 0 0 0 1 0"/><feBlend in2="effect3_dropShadow" result="effect4_dropShadow"/><feBlend in="SourceGraphic" in2="effect4_dropShadow" result="shape"/></filter><filter id="filter12_dddd" x="237.554" y="418.265" width="31.589" height="37.361" filterUnits="userSpaceOnUse" color-interpolation-filters="sRGB"><feFlood flood-opacity="0" result="BackgroundImageFix"/><feColorMatrix in="SourceAlpha" values="0 0 0 0 0 0 0 0 0 0 0 0 0 0 0 0 0 0 127 0" result="hardAlpha"/><feOffset/><feGaussianBlur stdDeviation="2"/><feComposite in2="hardAlpha" operator="out"/><feColorMatrix values="0 0 0 0 1 0 0 0 0 1 0 0 0 0 1 0 0 0 1 0"/><feBlend in2="BackgroundImageFix" result="effect1_dropShadow"/><feColorMatrix in="SourceAlpha" values="0 0 0 0 0 0 0 0 0 0 0 0 0 0 0 0 0 0 127 0" result="hardAlpha"/><feOffset/><feGaussianBlur stdDeviation="3"/><feComposite in2="hardAlpha" operator="out"/><feColorMatrix values="0 0 0 0 1 0 0 0 0 1 0 0 0 0 1 0 0 0 1 0"/><feBlend in2="effect1_dropShadow" result="effect2_dropShadow"/><feColorMatrix in="SourceAlpha" values="0 0 0 0 0 0 0 0 0 0 0 0 0 0 0 0 0 0 127 0" result="hardAlpha"/><feOffset/><feGaussianBlur stdDeviation="2"/><feComposite in2="hardAlpha" operator="out"/><feColorMatrix values="0 0 0 0 1 0 0 0 0 1 0 0 0 0 1 0 0 0 1 0"/><feBlend in2="effect2_dropShadow" result="effect3_dropShadow"/><feColorMatrix in="SourceAlpha" values="0 0 0 0 0 0 0 0 0 0 0 0 0 0 0 0 0 0 127 0" result="hardAlpha"/><feOffset/><feGaussianBlur stdDeviation="1.5"/><feComposite in2="hardAlpha" operator="out"/><feColorMatrix values="0 0 0 0 1 0 0 0 0 1 0 0 0 0 1 0 0 0 1 0"/><feBlend in2="effect3_dropShadow" result="effect4_dropShadow"/><feBlend in="SourceGraphic" in2="effect4_dropShadow" result="shape"/></filter><filter id="filter13_dddd" x="183.983" y="432.208" width="39.398" height="39.399" filterUnits="userSpaceOnUse" color-interpolation-filters="sRGB"><feFlood flood-opacity="0" result="BackgroundImageFix"/><feColorMatrix in="SourceAlpha" values="0 0 0 0 0 0 0 0 0 0 0 0 0 0 0 0 0 0 127 0" result="hardAlpha"/><feOffset/><feGaussianBlur stdDeviation="2"/><feComposite in2="hardAlpha" operator="out"/><feColorMatrix values="0 0 0 0 1 0 0 0 0 1 0 0 0 0 1 0 0 0 1 0"/><feBlend in2="BackgroundImageFix" result="effect1_dropShadow"/><feColorMatrix in="SourceAlpha" values="0 0 0 0 0 0 0 0 0 0 0 0 0 0 0 0 0 0 127 0" result="hardAlpha"/><feOffset/><feGaussianBlur stdDeviation="3"/><feComposite in2="hardAlpha" operator="out"/><feColorMatrix values="0 0 0 0 1 0 0 0 0 1 0 0 0 0 1 0 0 0 1 0"/><feBlend in2="effect1_dropShadow" result="effect2_dropShadow"/><feColorMatrix in="SourceAlpha" values="0 0 0 0 0 0 0 0 0 0 0 0 0 0 0 0 0 0 127 0" result="hardAlpha"/><feOffset/><feGaussianBlur stdDeviation="2"/><feComposite in2="hardAlpha" operator="out"/><feColorMatrix values="0 0 0 0 1 0 0 0 0 1 0 0 0 0 1 0 0 0 1 0"/><feBlend in2="effect2_dropShadow" result="effect3_dropShadow"/><feColorMatrix in="SourceAlpha" values="0 0 0 0 0 0 0 0 0 0 0 0 0 0 0 0 0 0 127 0" result="hardAlpha"/><feOffset/><feGaussianBlur stdDeviation="1.5"/><feComposite in2="hardAlpha" operator="out"/><feColorMatrix values="0 0 0 0 1 0 0 0 0 1 0 0 0 0 1 0 0 0 1 0"/><feBlend in2="effect3_dropShadow" result="effect4_dropShadow"/><feBlend in="SourceGraphic" in2="effect4_dropShadow" result="shape"/></filter><filter id="filter14_dddd" x="162.294" y="261.461" width="28.944" height="34.166" filterUnits="userSpaceOnUse" color-interpolation-filters="sRGB"><feFlood flood-opacity="0" result="BackgroundImageFix"/><feColorMatrix in="SourceAlpha" values="0 0 0 0 0 0 0 0 0 0 0 0 0 0 0 0 0 0 127 0" result="hardAlpha"/><feOffset/><feGaussianBlur stdDeviation="2"/><feComposite in2="hardAlpha" operator="out"/><feColorMatrix values="0 0 0 0 1 0 0 0 0 1 0 0 0 0 1 0 0 0 1 0"/><feBlend in2="BackgroundImageFix" result="effect1_dropShadow"/><feColorMatrix in="SourceAlpha" values="0 0 0 0 0 0 0 0 0 0 0 0 0 0 0 0 0 0 127 0" result="hardAlpha"/><feOffset/><feGaussianBlur stdDeviation="3"/><feComposite in2="hardAlpha" operator="out"/><feColorMatrix values="0 0 0 0 1 0 0 0 0 1 0 0 0 0 1 0 0 0 1 0"/><feBlend in2="effect1_dropShadow" result="effect2_dropShadow"/><feColorMatrix in="SourceAlpha" values="0 0 0 0 0 0 0 0 0 0 0 0 0 0 0 0 0 0 127 0" result="hardAlpha"/><feOffset/><feGaussianBlur stdDeviation="2"/><feComposite in2="hardAlpha" operator="out"/><feColorMatrix values="0 0 0 0 1 0 0 0 0 1 0 0 0 0 1 0 0 0 1 0"/><feBlend in2="effect2_dropShadow" result="effect3_dropShadow"/><feColorMatrix in="SourceAlpha" values="0 0 0 0 0 0 0 0 0 0 0 0 0 0 0 0 0 0 127 0" result="hardAlpha"/><feOffset/><feGaussianBlur stdDeviation="1.5"/><feComposite in2="hardAlpha" operator="out"/><feColorMatrix values="0 0 0 0 1 0 0 0 0 1 0 0 0 0 1 0 0 0 1 0"/><feBlend in2="effect3_dropShadow" result="effect4_dropShadow"/><feBlend in="SourceGraphic" in2="effect4_dropShadow" result="shape"/></filter><filter id="filter15_dddd" x="191.689" y="245.732" width="28.943" height="34.171" filterUnits="userSpaceOnUse" color-interpolation-filters="sRGB"><feFlood flood-opacity="0" result="BackgroundImageFix"/><feColorMatrix in="SourceAlpha" values="0 0 0 0 0 0 0 0 0 0 0 0 0 0 0 0 0 0 127 0" result="hardAlpha"/><feOffset/><feGaussianBlur stdDeviation="2"/><feComposite in2="hardAlpha" operator="out"/><feColorMatrix values="0 0 0 0 1 0 0 0 0 1 0 0 0 0 1 0 0 0 1 0"/><feBlend in2="BackgroundImageFix" result="effect1_dropShadow"/><feColorMatrix in="SourceAlpha" values="0 0 0 0 0 0 0 0 0 0 0 0 0 0 0 0 0 0 127 0" result="hardAlpha"/><feOffset/><feGaussianBlur stdDeviation="3"/><feComposite in2="hardAlpha" operator="out"/><feColorMatrix values="0 0 0 0 1 0 0 0 0 1 0 0 0 0 1 0 0 0 1 0"/><feBlend in2="effect1_dropShadow" result="effect2_dropShadow"/><feColorMatrix in="SourceAlpha" values="0 0 0 0 0 0 0 0 0 0 0 0 0 0 0 0 0 0 127 0" result="hardAlpha"/><feOffset/><feGaussianBlur stdDeviation="2"/><feComposite in2="hardAlpha" operator="out"/><feColorMatrix values="0 0 0 0 1 0 0 0 0 1 0 0 0 0 1 0 0 0 1 0"/><feBlend in2="effect2_dropShadow" result="effect3_dropShadow"/><feColorMatrix in="SourceAlpha" values="0 0 0 0 0 0 0 0 0 0 0 0 0 0 0 0 0 0 127 0" result="hardAlpha"/><feOffset/><feGaussianBlur stdDeviation="1.5"/><feComposite in2="hardAlpha" operator="out"/><feColorMatrix values="0 0 0 0 1 0 0 0 0 1 0 0 0 0 1 0 0 0 1 0"/><feBlend in2="effect3_dropShadow" result="effect4_dropShadow"/><feBlend in="SourceGraphic" in2="effect4_dropShadow" result="shape"/></filter><filter id="filter16_dddd" x="339.945" y="182.4" width="27.044" height="27.229" filterUnits="userSpaceOnUse" color-interpolation-filters="sRGB"><feFlood flood-opacity="0" result="BackgroundImageFix"/><feColorMatrix in="SourceAlpha" values="0 0 0 0 0 0 0 0 0 0 0 0 0 0 0 0 0 0 127 0" result="hardAlpha"/><feOffset/><feGaussianBlur stdDeviation="2"/><feComposite in2="hardAlpha" operator="out"/><feColorMatrix values="0 0 0 0 1 0 0 0 0 1 0 0 0 0 1 0 0 0 1 0"/><feBlend in2="BackgroundImageFix" result="effect1_dropShadow"/><feColorMatrix in="SourceAlpha" values="0 0 0 0 0 0 0 0 0 0 0 0 0 0 0 0 0 0 127 0" result="hardAlpha"/><feOffset/><feGaussianBlur stdDeviation="3"/><feComposite in2="hardAlpha" operator="out"/><feColorMatrix values="0 0 0 0 1 0 0 0 0 1 0 0 0 0 1 0 0 0 1 0"/><feBlend in2="effect1_dropShadow" result="effect2_dropShadow"/><feColorMatrix in="SourceAlpha" values="0 0 0 0 0 0 0 0 0 0 0 0 0 0 0 0 0 0 127 0" result="hardAlpha"/><feOffset/><feGaussianBlur stdDeviation="2"/><feComposite in2="hardAlpha" operator="out"/><feColorMatrix values="0 0 0 0 1 0 0 0 0 1 0 0 0 0 1 0 0 0 1 0"/><feBlend in2="effect2_dropShadow" result="effect3_dropShadow"/><feColorMatrix in="SourceAlpha" values="0 0 0 0 0 0 0 0 0 0 0 0 0 0 0 0 0 0 127 0" result="hardAlpha"/><feOffset/><feGaussianBlur stdDeviation="1.5"/><feComposite in2="hardAlpha" operator="out"/><feColorMatrix values="0 0 0 0 1 0 0 0 0 1 0 0 0 0 1 0 0 0 1 0"/><feBlend in2="effect3_dropShadow" result="effect4_dropShadow"/><feBlend in="SourceGraphic" in2="effect4_dropShadow" result="shape"/></filter></defs></svg>